<svg width="20" height="20" viewBox="0 0 20 20" fill="none" xmlns="http://www.w3.org/2000/svg">
<path d="M10 20C15.5228 20 20 15.5228 20 10C20 4.47715 15.5228 0 10 0C4.47715 0 0 4.47715 0 10C0 15.5228 4.47715 20 10 20Z" fill="#01AF57"/>
<path fill-rule="evenodd" clip-rule="evenodd" d="M16.1103 13.6699L16.0997 13.6968C15.999 13.9537 15.8979 14.2104 15.7919 14.4654C15.7008 14.6846 15.6066 14.9045 15.5025 15.1178C15.4403 15.2451 15.3417 15.4462 15.2417 15.5462C15.1399 15.6482 15.0274 15.7389 14.9062 15.8169C14.2086 16.2634 13.3365 16.2005 12.5698 15.9949C9.27658 15.1127 4.88725 10.7233 4.00494 7.43016C3.79947 6.66324 3.73666 5.7909 4.18361 5.09324C4.26124 4.97211 4.3518 4.85977 4.45369 4.7582C4.55357 4.6582 4.75494 4.55969 4.88217 4.49746C5.09564 4.39336 5.31576 4.29914 5.5349 4.20809C5.78978 4.10262 6.04662 4.00105 6.30338 3.90027L6.33014 3.88996C6.46468 3.83668 6.61391 3.83363 6.75051 3.88137C6.88712 3.92911 7.00197 4.02444 7.07404 4.14992L8.34721 6.35562C8.4268 6.49451 8.44822 6.65924 8.4068 6.81386C8.36538 6.96848 8.26448 7.10044 8.12611 7.18094C7.67576 7.44113 7.31646 7.8459 7.21033 8.36496C7.15694 8.61217 7.158 8.86805 7.21345 9.11481C7.2689 9.36157 7.3774 9.5933 7.53142 9.79391C7.91602 10.296 8.33527 10.7705 8.78611 11.214C9.22975 11.6649 9.70438 12.0842 10.2065 12.4689C10.4071 12.623 10.6389 12.7315 10.8857 12.787C11.1325 12.8425 11.3884 12.8435 11.6356 12.79C12.1542 12.684 12.5594 12.3245 12.8194 11.8741C12.8999 11.7358 13.0318 11.6348 13.1864 11.5934C13.341 11.552 13.5057 11.5734 13.6445 11.653L15.85 12.9265C15.9754 12.9985 16.0708 13.1132 16.1186 13.2497C16.1664 13.3862 16.1635 13.5354 16.1103 13.6699Z" fill="#D2F2FF"/>
</svg>
