<svg width="64" height="64" viewBox="0 0 64 64" fill="none" xmlns="http://www.w3.org/2000/svg">
<g clip-path="url(#clip0_291_2946)">
<path d="M56 0H8C3.58667 0 0 3.58667 0 8V56C0 60.4107 3.58667 64 8 64H56C60.4107 64 64 60.4107 64 56V8C64 3.58667 60.4107 0 56 0Z" fill="#3B5999"/>
<path d="M44 32V24C44 21.792 45.792 22 48 22H52V12H44C40.8174 12 37.7652 13.2643 35.5147 15.5147C33.2643 17.7652 32 20.8174 32 24V32H24V42H32V64H44V42H50L54 32H44Z" fill="white"/>
</g>
<defs>
<clipPath id="clip0_291_2946">
<rect width="64" height="64" fill="white"/>
</clipPath>
</defs>
</svg>
