<svg width="64" height="64" viewBox="0 0 64 64" fill="none" xmlns="http://www.w3.org/2000/svg">
<path d="M3.99923 4.35471C-1.0301 9.57871 -0.000770718 15.128 -0.000770718 31.9867C-0.000770718 45.9867 -2.44344 60.0214 10.3406 63.3254C14.3326 64.352 49.7032 64.352 53.6899 63.32C59.0126 61.9467 63.3432 57.6294 63.9352 50.1014C64.0179 49.0507 64.0179 14.9414 63.9326 13.8694C63.3032 5.85071 58.3672 1.22938 51.8632 0.293376C50.3726 0.0773757 50.0739 0.0133757 42.4259 4.23267e-05C15.2979 0.0133757 9.35123 -1.19462 3.99923 4.35471Z" fill="url(#paint0_linear_291_2951)"/>
<path d="M31.9955 8.37071C22.3128 8.37071 13.1181 7.50937 9.60614 16.5227C8.15547 20.2454 8.36614 25.08 8.36614 32.0027C8.36614 38.0774 8.17147 43.7867 9.60614 47.48C13.1101 56.4987 22.3795 55.6347 31.9901 55.6347C41.2621 55.6347 50.8221 56.6 54.3768 47.48C55.8301 43.72 55.6168 38.9574 55.6168 32.0027C55.6168 22.7707 56.1261 16.8107 51.6488 12.336C47.1155 7.80271 40.9848 8.37071 31.9848 8.37071H31.9955ZM29.8781 12.6294C50.0755 12.5974 52.6461 10.352 51.2275 41.544C50.7235 52.576 42.3235 51.3654 31.9981 51.3654C13.1715 51.3654 12.6301 50.8267 12.6301 31.992C12.6301 12.9387 14.1235 12.64 29.8781 12.624V12.6294ZM44.6088 16.552C43.857 16.552 43.136 16.8507 42.6044 17.3823C42.0728 17.9139 41.7741 18.6349 41.7741 19.3867C41.7741 20.1385 42.0728 20.8595 42.6044 21.3911C43.136 21.9227 43.857 22.2214 44.6088 22.2214C45.3606 22.2214 46.0816 21.9227 46.6132 21.3911C47.1448 20.8595 47.4435 20.1385 47.4435 19.3867C47.4435 18.6349 47.1448 17.9139 46.6132 17.3823C46.0816 16.8507 45.3606 16.552 44.6088 16.552ZM31.9955 19.8667C30.4019 19.8669 28.824 20.1809 27.3518 20.7909C25.8797 21.4009 24.542 22.2949 23.4154 23.4218C21.1399 25.6978 19.8618 28.7844 19.8621 32.0027C19.8625 35.221 21.1413 38.3074 23.4172 40.5828C25.6932 42.8583 28.7798 44.1364 31.9981 44.136C35.2165 44.1357 38.3028 42.8569 40.5783 40.5809C42.8537 38.305 44.1318 35.2184 44.1315 32C44.1311 28.7817 42.8523 25.6954 40.5764 23.4199C38.3004 21.1445 35.2138 19.8664 31.9955 19.8667ZM31.9955 24.1254C42.4088 24.1254 42.4221 39.88 31.9955 39.88C21.5848 39.88 21.5688 24.1254 31.9955 24.1254Z" fill="white"/>
<defs>
<linearGradient id="paint0_linear_291_2951" x1="4.12195" y1="59.9123" x2="63.6032" y2="8.43197" gradientUnits="userSpaceOnUse">
<stop stop-color="#FFDD55"/>
<stop offset="0.5" stop-color="#FF543E"/>
<stop offset="1" stop-color="#C837AB"/>
</linearGradient>
</defs>
</svg>
