<svg width="19" height="20" viewBox="0 0 19 20" fill="none" xmlns="http://www.w3.org/2000/svg">
<g clip-path="url(#clip0_291_2972)">
<path fill-rule="evenodd" clip-rule="evenodd" d="M9.5 0.5C4.14835 0.5 0 4.42009 0 9.715C0 12.4846 1.13506 14.8778 2.98352 16.5309C3.13871 16.6698 3.23238 16.8643 3.23872 17.0726L3.29045 18.7624C3.30696 19.3015 3.86375 19.6522 4.35701 19.4344L6.24261 18.602C6.40241 18.5315 6.58163 18.5184 6.75001 18.5648C7.61651 18.803 8.53872 18.93 9.49996 18.93C14.8516 18.93 19 15.0099 19 9.71496C19 4.42005 14.8516 0.5 9.5 0.5Z" fill="url(#paint0_radial_291_2972)"/>
<path fill-rule="evenodd" clip-rule="evenodd" d="M3.79588 12.4099L6.58651 7.98255C7.03041 7.27822 7.98096 7.10284 8.647 7.60237L10.8665 9.26702C10.9656 9.34136 11.0863 9.38139 11.2102 9.38104C11.3341 9.38068 11.4545 9.33996 11.5532 9.26505L14.5507 6.9901C14.9508 6.68647 15.4731 7.16529 15.2053 7.59019L12.4147 12.0176C11.9708 12.7219 11.0202 12.8973 10.3542 12.3978L8.13463 10.7331C8.03552 10.6587 7.91489 10.6187 7.791 10.6191C7.66711 10.6194 7.54672 10.6602 7.44804 10.7351L4.45045 13.01C4.05034 13.3136 3.52806 12.8348 3.79588 12.4099Z" fill="white"/>
</g>
<defs>
<radialGradient id="paint0_radial_291_2972" cx="0" cy="0" r="1" gradientUnits="userSpaceOnUse" gradientTransform="translate(3.65898 19.2693) scale(20.6922 20.6922)">
<stop stop-color="#0099FF"/>
<stop offset="0.61" stop-color="#A033FF"/>
<stop offset="0.935" stop-color="#FF5280"/>
<stop offset="1" stop-color="#FF7061"/>
</radialGradient>
<clipPath id="clip0_291_2972">
<rect width="19" height="19" fill="white" transform="translate(0 0.5)"/>
</clipPath>
</defs>
</svg>
