<svg width="64" height="64" viewBox="0 0 64 64" fill="none" xmlns="http://www.w3.org/2000/svg">
<g clip-path="url(#clip0_291_2954)">
<path d="M52.5508 62.9091C38.8926 64.3663 25.1181 64.3663 11.4599 62.9091C8.80757 62.629 6.33141 61.4483 4.4442 59.5637C2.55699 57.6791 1.37277 55.2046 1.08896 52.5527C-0.368196 38.8945 -0.368196 25.12 1.08896 11.4618C1.36905 8.80953 2.5498 6.33337 4.43436 4.44616C6.31892 2.55895 8.79342 1.37472 11.4453 1.09092C25.1035 -0.366243 38.878 -0.366243 52.5362 1.09092C55.1885 1.371 57.6647 2.55175 59.5519 4.43631C61.4391 6.32088 62.6233 8.79538 62.9072 11.4473C64.3643 25.1055 64.3643 38.88 62.9072 52.5382C62.6271 55.1905 61.4463 57.6667 59.5618 59.5539C57.6772 61.4411 55.2027 62.6253 52.5508 62.9091Z" fill="#E60000"/>
<path d="M51.0624 22.3782C50.2624 19.9164 47.6152 18.4255 45.1788 18.0837C36.4156 17.1528 27.5784 17.1528 18.8152 18.0837C16.3788 18.4255 13.7243 19.9019 12.9315 22.3782C11.6843 28.7334 11.6843 35.2704 12.9315 41.6255C13.7315 44.0837 16.3788 45.5782 18.8152 45.9201C27.5784 46.851 36.4156 46.851 45.1788 45.9201C47.6152 45.5782 50.2697 44.1019 51.0624 41.6255C52.3097 35.2704 52.3097 28.7334 51.0624 22.3782ZM27.2115 39.6655V24.3346L39.6915 32.0001C35.4843 34.5855 31.4006 37.091 27.2115 39.6655Z" fill="white"/>
</g>
<defs>
<clipPath id="clip0_291_2954">
<rect width="64" height="64" fill="white"/>
</clipPath>
</defs>
</svg>
