<svg width="86" height="86" viewBox="0 0 86 86" fill="none" xmlns="http://www.w3.org/2000/svg">
<g clip-path="url(#clip0_362_1510)">
<path d="M24.3232 54.6635C23.993 54.6635 23.6763 54.7946 23.4428 55.0281C23.2093 55.2616 23.0781 55.5783 23.0781 55.9086V58.1498C23.0781 58.48 23.2093 58.7967 23.4428 59.0302C23.6763 59.2637 23.993 59.3949 24.3232 59.3949C24.6535 59.3949 24.9702 59.2637 25.2037 59.0302C25.4372 58.7967 25.5684 58.48 25.5684 58.1498V55.9086C25.5684 55.5783 25.4372 55.2616 25.2037 55.0281C24.9702 54.7946 24.6535 54.6635 24.3232 54.6635Z" fill="#535353"/>
<path d="M81.5674 71.1976H79.5515V36.6516C82.8909 36.0606 85.4359 33.1395 85.4359 29.6331V24.8392C85.4359 24.8148 85.4336 24.7909 85.4323 24.7669C85.4314 24.7534 85.4314 24.74 85.4303 24.7265C85.426 24.6779 85.4189 24.6297 85.409 24.5819C85.4085 24.5791 85.4075 24.5764 85.4069 24.5738C85.397 24.5288 85.3846 24.4845 85.3697 24.441C85.366 24.43 85.3617 24.419 85.3577 24.4083C85.3441 24.3713 85.3287 24.335 85.3116 24.2995C85.3084 24.293 85.3064 24.2862 85.3033 24.2799L79.7979 13.3314V7.60482C79.7979 6.12695 78.5954 4.9245 77.1175 4.9245H20.4976C20.1674 4.9245 19.8507 5.05568 19.6171 5.28919C19.3836 5.52269 19.2525 5.83939 19.2525 6.16962C19.2525 6.49984 19.3836 6.81654 19.6171 7.05005C19.8507 7.28355 20.1674 7.41473 20.4976 7.41473H77.1175C77.2223 7.41473 77.3076 7.50007 77.3076 7.60482V12.3934H8.69237V7.60482C8.69237 7.50007 8.77771 7.41473 8.88246 7.41473H14.7043C15.0345 7.41473 15.3512 7.28355 15.5847 7.05005C15.8182 6.81654 15.9494 6.49984 15.9494 6.16962C15.9494 5.83939 15.8182 5.52269 15.5847 5.28919C15.3512 5.05568 15.0345 4.9245 14.7043 4.9245H8.88246C7.40459 4.9245 6.20214 6.12695 6.20214 7.60482V13.3314L0.696895 24.2799C0.69374 24.2864 0.691582 24.2932 0.688594 24.2995C0.671483 24.335 0.656081 24.3713 0.642441 24.4083C0.638457 24.4192 0.634141 24.43 0.630488 24.441C0.615612 24.4845 0.603196 24.5288 0.593301 24.5738L0.591143 24.5819C0.581182 24.6292 0.574209 24.6774 0.569893 24.7265C0.56873 24.74 0.56873 24.7534 0.5679 24.7669C0.566572 24.7909 0.564248 24.8148 0.564248 24.8392V29.6331C0.564248 33.1394 3.10927 36.0606 6.44867 36.6516V71.1976H4.43258C2.26408 71.1976 0.5 72.9619 0.5 75.1303V79.0686C0.5 80.1752 1.4003 81.0755 2.50696 81.0755H83.493C84.5997 81.0755 85.5 80.1752 85.5 79.0686V75.1303C85.5 72.9619 83.7359 71.1976 81.5674 71.1976ZM82.9455 29.6333C82.9455 32.1914 80.8643 34.2726 78.3062 34.2726C75.7481 34.2726 73.6669 32.1914 73.6669 29.6333V26.0845H82.9455V29.6333ZM77.7911 14.8836L82.1709 23.5941H73.2977L70.1693 14.8836H77.7911ZM67.5232 14.8836L70.6516 23.5941H61.6585L59.7814 14.8836H67.5232ZM71.1768 26.0844V29.6331C71.1768 32.1912 69.0957 34.2724 66.5375 34.2724C63.9794 34.2724 61.8982 32.1912 61.8982 29.6331V26.0844H71.1768ZM57.234 14.8836L59.1111 23.5941H50.0434L49.4177 14.8836H57.234ZM59.408 26.0844V29.6331C59.408 32.1912 57.3268 34.2724 54.7688 34.2724C52.2109 34.2724 50.1295 32.1912 50.1295 29.6331V26.0844H59.408ZM39.079 14.8836H46.9208L47.5465 23.5941H38.4533L39.079 14.8836ZM38.3607 26.0844H47.6393V29.6331C47.6393 32.1912 45.5581 34.2724 43 34.2724C40.4419 34.2724 38.3607 32.1912 38.3607 29.6331V26.0844ZM43 36.7626C45.4411 36.7626 47.5988 35.529 48.8844 33.6528C50.1701 35.529 52.3278 36.7626 54.7688 36.7626C57.2099 36.7626 59.3676 35.529 60.6531 33.6528C61.9387 35.529 64.0964 36.7626 66.5375 36.7626C68.9786 36.7626 71.1363 35.529 72.422 33.6528C73.4838 35.2024 75.1411 36.3117 77.0613 36.6516V71.1976H30.1896V43.5288C30.1896 42.2518 29.1506 41.2129 27.8737 41.2129H13.4786C12.2016 41.2129 11.1627 42.2518 11.1627 43.5288V71.1976H8.93891V36.6516C10.859 36.3117 12.5164 35.2024 13.5782 33.6528C14.8638 35.529 17.0215 36.7626 19.4626 36.7626C21.9037 36.7626 24.0614 35.529 25.3471 33.6528C26.6327 35.529 28.7904 36.7626 31.2313 36.7626C33.6722 36.7626 35.8301 35.529 37.1157 33.6528C38.4012 35.529 40.5589 36.7626 43 36.7626ZM27.6993 43.7031V71.1976H13.6529V43.7031H27.6993ZM14.8232 29.6333V26.0845H24.1018V29.6333C24.1018 32.1914 22.0206 34.2726 19.4625 34.2726C16.9043 34.2726 14.8232 32.1912 14.8232 29.6333ZM28.766 14.8836H36.5823L35.9566 23.5941H26.8888L28.766 14.8836ZM26.592 26.0844H35.8705V29.6331C35.8705 32.1912 33.7893 34.2724 31.2312 34.2724C28.673 34.2724 26.592 32.1912 26.592 29.6331V26.0844ZM26.2185 14.8836L24.3413 23.5941H15.3483L18.4767 14.8836H26.2185ZM8.20894 14.8836H15.8307L12.7023 23.5941H3.82911L8.20894 14.8836ZM3.05448 29.6333V26.0845H12.3331V29.6333C12.3331 32.1914 10.2519 34.2726 7.69379 34.2726C5.13565 34.2726 3.05448 32.1912 3.05448 29.6333ZM2.99023 78.5853V75.1302C2.99023 74.3348 3.6372 73.6878 4.43258 73.6878H81.5673C82.3626 73.6878 83.0096 74.3348 83.0096 75.1302V78.5853H2.99023Z" fill="#535353"/>
<path d="M71.351 41.2129H56.1252C55.795 41.2129 55.4783 41.3441 55.2448 41.5776C55.0113 41.8111 54.8801 42.1278 54.8801 42.458C54.8801 42.7882 55.0113 43.1049 55.2448 43.3384C55.4783 43.5719 55.795 43.7031 56.1252 43.7031H71.1768V63.2988H35.2803V43.7031H50.2632C50.5934 43.7031 50.9101 43.5719 51.1436 43.3384C51.3771 43.1049 51.5083 42.7882 51.5083 42.458C51.5083 42.1278 51.3771 41.8111 51.1436 41.5776C50.9101 41.3441 50.5934 41.2129 50.2632 41.2129H35.106C33.829 41.2129 32.79 42.2516 32.79 43.5288V63.4733C32.79 64.7503 33.829 65.7892 35.106 65.7892H71.351C72.628 65.7892 73.6669 64.7503 73.6669 63.4733V43.5288C73.6669 42.2518 72.628 41.2129 71.351 41.2129Z" fill="#535353"/>
</g>
<defs>
<clipPath id="clip0_362_1510">
<rect width="85" height="85" fill="white" transform="translate(0.5 0.5)"/>
</clipPath>
</defs>
</svg>
