<svg width="103" height="102" viewBox="0 0 103 102" fill="none" xmlns="http://www.w3.org/2000/svg">
<g id="Group">
<path id="Vector" d="M51.5 102C79.6665 102 102.5 79.1665 102.5 51C102.5 22.8335 79.6665 0 51.5 0C23.3335 0 0.5 22.8335 0.5 51C0.5 79.1665 23.3335 102 51.5 102Z" fill="#CCCCCC"/>
<g id="Group_2">
<path id="Vector_2" d="M92.4269 81.3942C87.6704 75.0263 81.4942 69.8555 74.3892 66.2929C67.2841 62.7302 59.446 60.8738 51.4977 60.8713C43.5495 60.8687 35.7102 62.7201 28.6028 66.2782C21.4955 69.8363 15.316 75.003 10.5554 81.3679C15.2916 87.7652 21.461 92.9637 28.5687 96.5466C35.6764 100.13 43.5248 101.997 51.4845 102C59.4442 102.002 67.2938 100.14 74.4039 96.5614C81.5139 92.983 87.6865 87.7885 92.4269 81.3942Z" fill="#666666"/>
<path id="Vector_3" d="M51.5001 54.2901C62.4033 54.2901 71.2421 45.4514 71.2421 34.5482C71.2421 23.645 62.4033 14.8063 51.5001 14.8063C40.5969 14.8063 31.7582 23.645 31.7582 34.5482C31.7582 45.4514 40.5969 54.2901 51.5001 54.2901Z" fill="#666666"/>
</g>
</g>
</svg>
