<svg width="57" height="56" viewBox="0 0 57 56" fill="none" xmlns="http://www.w3.org/2000/svg">
<path d="M52.9688 13.6562H3.53125C3.28963 13.6562 3.09375 13.8521 3.09375 14.0938V40.7812C3.09375 41.0229 3.28963 41.2188 3.53125 41.2188H52.9688C53.2104 41.2188 53.4062 41.0229 53.4062 40.7812V14.0938C53.4062 13.8521 53.2104 13.6562 52.9688 13.6562Z" fill="#78C2A4"/>
<path d="M5.9375 40.7812V14.0938C5.9375 13.9777 5.98359 13.8664 6.06564 13.7844C6.14769 13.7023 6.25897 13.6562 6.375 13.6562H3.53125C3.41522 13.6562 3.30394 13.7023 3.22189 13.7844C3.13984 13.8664 3.09375 13.9777 3.09375 14.0938V40.7812C3.09375 40.8973 3.13984 41.0086 3.22189 41.0906C3.30394 41.1727 3.41522 41.2188 3.53125 41.2188H6.375C6.25897 41.2188 6.14769 41.1727 6.06564 41.0906C5.98359 41.0086 5.9375 40.8973 5.9375 40.7812Z" fill="#65A589"/>
<path d="M50.125 20.875V34C48.9648 34.0004 47.8523 34.4615 47.0319 35.2819C46.2115 36.1023 45.7504 37.2148 45.75 38.375H10.75C10.7496 37.2148 10.2885 36.1023 9.46811 35.2819C8.64773 34.4615 7.53519 34.0004 6.375 34V20.875C7.53519 20.8746 8.64773 20.4135 9.46811 19.5931C10.2885 18.7727 10.7496 17.6602 10.75 16.5H45.75C45.75 17.6603 46.2109 18.7731 47.0314 19.5936C47.8519 20.4141 48.9647 20.875 50.125 20.875Z" fill="#B3E59F"/>
<path d="M44.5107 30.0625C45.9605 30.0625 47.1357 28.8872 47.1357 27.4375C47.1357 25.9878 45.9605 24.8125 44.5107 24.8125C43.061 24.8125 41.8857 25.9878 41.8857 27.4375C41.8857 28.8872 43.061 30.0625 44.5107 30.0625Z" fill="#95D6A4"/>
<path d="M28.25 36.7344C33.3845 36.7344 37.5469 32.572 37.5469 27.4375C37.5469 22.303 33.3845 18.1406 28.25 18.1406C23.1155 18.1406 18.9531 22.303 18.9531 27.4375C18.9531 32.572 23.1155 36.7344 28.25 36.7344Z" fill="#95D6A4"/>
<path d="M2 47.3438H54.5V50.4062H2V47.3438Z" fill="#B3E59F"/>
<path d="M2 41.2188H54.5V44.2812H2V41.2188Z" fill="#B3E59F"/>
<path d="M2 44.2812H54.5V47.3438H2V44.2812Z" fill="#A8D394"/>
<path d="M2 47.3438H5.28125V50.4062H2V47.3438Z" fill="#98C185"/>
<path d="M2 41.2188H5.28125V44.2812H2V41.2188Z" fill="#98C185"/>
<path d="M2 44.2812H5.28125V47.3438H2V44.2812Z" fill="#90B57D"/>
<path d="M24.4219 41H32.0781V50.625H24.4219V41Z" fill="#EFDAA0"/>
<path d="M24.4219 41H27.7031V50.625H24.4219V41Z" fill="#CCB989"/>
<path d="M22.2345 27.4375C22.2351 25.2567 23.0022 23.1454 24.4017 21.4729C25.8013 19.8004 27.7442 18.6731 29.8907 18.288C28.5518 18.0467 27.1762 18.1023 25.8611 18.4507C24.546 18.7992 23.3234 19.432 22.2796 20.3045C21.2357 21.1771 20.3961 22.2681 19.82 23.5006C19.2439 24.7331 18.9453 26.077 18.9453 27.4375C18.9453 28.798 19.2439 30.1419 19.82 31.3744C20.3961 32.6069 21.2357 33.6979 22.2796 34.5705C23.3234 35.443 24.546 36.0758 25.8611 36.4243C27.1762 36.7727 28.5518 36.8283 29.8907 36.587C27.7442 36.2019 25.8013 35.0746 24.4017 33.4021C23.0022 31.7296 22.2351 29.6183 22.2345 27.4375Z" fill="#8ABF91"/>
<path d="M9.65625 33.3868V21.4882C9.65548 21.33 9.71224 21.1769 9.81595 21.0575C9.91966 20.9381 10.0633 20.8604 10.22 20.839C11.2736 20.7015 12.2413 20.1854 12.9425 19.3871C13.6438 18.5887 14.0307 17.5626 14.0312 16.5H10.75C10.7496 17.6602 10.2885 18.7727 9.46811 19.5931C8.64773 20.4135 7.53519 20.8746 6.375 20.875V34C7.53519 34.0004 8.64773 34.4615 9.46811 35.2819C10.2885 36.1023 10.7496 37.2148 10.75 38.375H14.0312C14.0307 37.3124 13.6438 36.2863 12.9425 35.4879C12.2413 34.6896 11.2736 34.1735 10.22 34.036C10.0633 34.0146 9.91966 33.9369 9.81595 33.8175C9.71224 33.6981 9.65548 33.545 9.65625 33.3868Z" fill="#9AC487"/>
<path d="M11.9893 30.0625C13.439 30.0625 14.6143 28.8872 14.6143 27.4375C14.6143 25.9878 13.439 24.8125 11.9893 24.8125C10.5395 24.8125 9.36426 25.9878 9.36426 27.4375C9.36426 28.8872 10.5395 30.0625 11.9893 30.0625Z" fill="#95D6A4"/>
<path d="M10.0938 16.5C10.0926 17.4859 9.7005 18.4312 9.00334 19.1283C8.30618 19.8255 7.36094 20.2176 6.375 20.2188C6.20095 20.2188 6.03403 20.2879 5.91096 20.411C5.78789 20.534 5.71875 20.701 5.71875 20.875V34C5.71875 34.174 5.78789 34.341 5.91096 34.464C6.03403 34.5871 6.20095 34.6562 6.375 34.6562C7.36094 34.6574 8.30618 35.0495 9.00334 35.7467C9.7005 36.4438 10.0926 37.3891 10.0938 38.375C10.0938 38.549 10.1629 38.716 10.286 38.839C10.409 38.9621 10.576 39.0312 10.75 39.0312H45.75C45.924 39.0312 46.091 38.9621 46.214 38.839C46.3371 38.716 46.4062 38.549 46.4062 38.375C46.4073 37.3891 46.7995 36.4438 47.4967 35.7467C48.1938 35.0495 49.1391 34.6574 50.125 34.6562C50.299 34.6562 50.466 34.5871 50.589 34.464C50.7121 34.341 50.7812 34.174 50.7812 34V20.875C50.7812 20.701 50.7121 20.534 50.589 20.411C50.466 20.2879 50.299 20.2188 50.125 20.2188C49.1391 20.2176 48.1938 19.8255 47.4967 19.1283C46.7995 18.4312 46.4073 17.4859 46.4062 16.5C46.4062 16.326 46.3371 16.159 46.214 16.036C46.091 15.9129 45.924 15.8438 45.75 15.8438H10.75C10.576 15.8438 10.409 15.9129 10.286 16.036C10.1629 16.159 10.0938 16.326 10.0938 16.5ZM45.1364 17.1562C45.2825 18.2539 45.7859 19.273 46.569 20.056C47.352 20.8391 48.3711 21.3425 49.4688 21.4886V33.3864C48.3711 33.5325 47.352 34.0359 46.569 34.819C45.7859 35.602 45.2825 36.6211 45.1364 37.7188H11.3636C11.2175 36.6211 10.7141 35.602 9.93103 34.819C9.148 34.0359 8.12894 33.5325 7.03125 33.3864V21.4886C8.12894 21.3425 9.148 20.8391 9.93103 20.056C10.7141 19.273 11.2175 18.2539 11.3636 17.1562H45.1364Z" fill="#284268"/>
<path d="M8.70801 27.4375C8.70801 28.0865 8.90045 28.7209 9.261 29.2605C9.62155 29.8001 10.134 30.2206 10.7336 30.469C11.3331 30.7173 11.9929 30.7823 12.6294 30.6557C13.2659 30.5291 13.8506 30.2166 14.3095 29.7577C14.7683 29.2988 15.0809 28.7141 15.2075 28.0776C15.3341 27.4411 15.2691 26.7814 15.0207 26.1818C14.7724 25.5823 14.3518 25.0698 13.8122 24.7092C13.2726 24.3487 12.6382 24.1562 11.9893 24.1562C11.1193 24.1572 10.2853 24.5032 9.67012 25.1184C9.05497 25.7335 8.70896 26.5676 8.70801 27.4375ZM11.9893 25.4688C12.3786 25.4688 12.7593 25.5842 13.083 25.8005C13.4068 26.0169 13.6591 26.3243 13.8081 26.6841C13.9572 27.0438 13.9961 27.4397 13.9202 27.8216C13.8442 28.2035 13.6567 28.5543 13.3814 28.8296C13.106 29.105 12.7552 29.2925 12.3733 29.3684C11.9914 29.4444 11.5956 29.4054 11.2358 29.2564C10.8761 29.1074 10.5686 28.855 10.3523 28.5313C10.136 28.2075 10.0205 27.8269 10.0205 27.4375C10.0211 26.9155 10.2287 26.4151 10.5978 26.0461C10.9669 25.677 11.4673 25.4694 11.9893 25.4688Z" fill="#284268"/>
<path d="M44.5107 30.7188C45.1597 30.7188 45.7941 30.5263 46.3337 30.1658C46.8733 29.8052 47.2939 29.2928 47.5422 28.6932C47.7906 28.0936 47.8556 27.4339 47.7289 26.7974C47.6023 26.1609 47.2898 25.5762 46.8309 25.1173C46.372 24.6584 45.7874 24.3459 45.1509 24.2193C44.5144 24.0927 43.8546 24.1577 43.2551 24.406C42.6555 24.6544 42.143 25.0749 41.7825 25.6145C41.4219 26.1541 41.2295 26.7885 41.2295 27.4375C41.2304 28.3074 41.5765 29.1415 42.1916 29.7566C42.8068 30.3718 43.6408 30.7178 44.5107 30.7188ZM44.5107 25.4688C44.9001 25.4688 45.2808 25.5842 45.6045 25.8005C45.9283 26.0169 46.1806 26.3244 46.3296 26.6841C46.4786 27.0438 46.5176 27.4397 46.4417 27.8216C46.3657 28.2035 46.1782 28.5543 45.9029 28.8296C45.6275 29.105 45.2767 29.2925 44.8948 29.3684C44.5129 29.4444 44.1171 29.4054 43.7573 29.2564C43.3976 29.1074 43.0901 28.855 42.8738 28.5313C42.6575 28.2075 42.542 27.8269 42.542 27.4375C42.5426 26.9155 42.7502 26.4151 43.1193 26.046C43.4884 25.6769 43.9888 25.4693 44.5107 25.4688Z" fill="#284268"/>
<path d="M15.1533 19.8137H20.5478C20.7219 19.8137 20.8888 19.7446 21.0118 19.6215C21.1349 19.4984 21.2041 19.3315 21.2041 19.1575C21.2041 18.9834 21.1349 18.8165 21.0118 18.6934C20.8888 18.5704 20.7219 18.5012 20.5478 18.5012H15.1533C14.9793 18.5012 14.8124 18.5704 14.6893 18.6934C14.5662 18.8165 14.4971 18.9834 14.4971 19.1575C14.4971 19.3315 14.5662 19.4984 14.6893 19.6215C14.8124 19.7446 14.9793 19.8137 15.1533 19.8137Z" fill="#284268"/>
<path d="M12.134 19.8137H12.8196C12.9936 19.8137 13.1606 19.7446 13.2836 19.6215C13.4067 19.4984 13.4758 19.3315 13.4758 19.1575C13.4758 18.9834 13.4067 18.8165 13.2836 18.6934C13.1606 18.5704 12.9936 18.5012 12.8196 18.5012H12.134C11.96 18.5012 11.7931 18.5704 11.67 18.6934C11.5469 18.8165 11.4778 18.9834 11.4778 19.1575C11.4778 19.3315 11.5469 19.4984 11.67 19.6215C11.7931 19.7446 11.96 19.8137 12.134 19.8137Z" fill="#284268"/>
<path d="M54.5 40.5625H54.0625V14.0938C54.0625 13.8037 53.9473 13.5255 53.7421 13.3204C53.537 13.1152 53.2588 13 52.9688 13H16.2103C16.0363 13 15.8694 13.0691 15.7463 13.1922C15.6232 13.3153 15.5541 13.4822 15.5541 13.6562C15.5541 13.8303 15.6232 13.9972 15.7463 14.1203C15.8694 14.2434 16.0363 14.3125 16.2103 14.3125H52.75V40.5625H32.5663C32.5049 40.4937 32.4297 40.4386 32.3456 40.4009C32.2615 40.3632 32.1703 40.3437 32.0781 40.3438H24.4219C24.3297 40.3437 24.2385 40.3632 24.1544 40.4009C24.0703 40.4386 23.9951 40.4937 23.9337 40.5625H3.75V14.3125H10.7416C10.9156 14.3125 11.0825 14.2434 11.2056 14.1203C11.3287 13.9972 11.3978 13.8303 11.3978 13.6562C11.3978 13.4822 11.3287 13.3153 11.2056 13.1922C11.0825 13.0691 10.9156 13 10.7416 13H3.53125C3.24117 13 2.96297 13.1152 2.75785 13.3204C2.55273 13.5255 2.4375 13.8037 2.4375 14.0938V40.5625H2C1.82595 40.5625 1.65903 40.6316 1.53596 40.7547C1.41289 40.8778 1.34375 41.0447 1.34375 41.2188V50.4062C1.34375 50.5803 1.41289 50.7472 1.53596 50.8703C1.65903 50.9934 1.82595 51.0625 2 51.0625H23.9337C23.9951 51.1313 24.0703 51.1864 24.1544 51.2241C24.2385 51.2618 24.3297 51.2813 24.4219 51.2812H32.0781C32.1703 51.2813 32.2615 51.2618 32.3456 51.2241C32.4297 51.1864 32.5049 51.1313 32.5663 51.0625H54.5C54.674 51.0625 54.841 50.9934 54.964 50.8703C55.0871 50.7472 55.1562 50.5803 55.1562 50.4062V41.2188C55.1562 41.0447 55.0871 40.8778 54.964 40.7547C54.841 40.6316 54.674 40.5625 54.5 40.5625ZM23.7656 49.75H2.65625V48H23.7656V49.75ZM23.7656 46.6875H2.65625V44.9375H23.7656V46.6875ZM23.7656 43.625H2.65625V41.875H23.7656V43.625ZM31.4219 49.9688H25.0781V41.6562H31.4219V49.9688ZM53.8438 49.75H32.7344V48H53.8438V49.75ZM53.8438 43.625H48.6535C48.4794 43.625 48.3125 43.6941 48.1894 43.8172C48.0664 43.9403 47.9972 44.1072 47.9972 44.2812C47.9972 44.4553 48.0664 44.6222 48.1894 44.7453C48.3125 44.8684 48.4794 44.9375 48.6535 44.9375H53.8438V46.6875H32.7344V44.9375H43.1847C43.3588 44.9375 43.5257 44.8684 43.6488 44.7453C43.7718 44.6222 43.841 44.4553 43.841 44.2812C43.841 44.1072 43.7718 43.9403 43.6488 43.8172C43.5257 43.6941 43.3588 43.625 43.1847 43.625H32.7344V41.875H53.8438V43.625Z" fill="#284268"/>
<path d="M18.2995 27.2078C18.2703 28.4274 18.4665 29.642 18.8782 30.7904C18.9077 30.8715 18.9529 30.946 19.0112 31.0095C19.0695 31.0731 19.1397 31.1246 19.2179 31.1611C19.2961 31.1975 19.3807 31.2182 19.4669 31.222C19.553 31.2257 19.6391 31.2125 19.7202 31.1829C19.8012 31.1534 19.8757 31.1082 19.9393 31.0499C20.0029 30.9916 20.0544 30.9214 20.0908 30.8432C20.1273 30.765 20.148 30.6804 20.1517 30.5942C20.1555 30.508 20.1422 30.422 20.1127 30.3409C19.4153 28.3922 19.4396 26.258 20.1811 24.3257C20.9227 22.3933 22.3323 20.7908 24.1543 19.8089C25.9764 18.827 28.09 18.5307 30.1118 18.9739C32.1335 19.4171 33.9294 20.5704 35.1736 22.2244C36.4178 23.8785 37.0278 25.9237 36.893 27.9891C36.7582 30.0545 35.8875 32.0031 34.4389 33.4814C32.9902 34.9597 31.0597 35.8697 28.9975 36.0463C26.9353 36.223 24.8781 35.6545 23.1991 34.4441C23.058 34.3498 22.8858 34.3138 22.7187 34.3438C22.5516 34.3737 22.4026 34.4672 22.303 34.6047C22.2034 34.7422 22.161 34.9129 22.1846 35.081C22.2082 35.2491 22.2961 35.4015 22.4297 35.5063C23.7001 36.4227 25.1689 37.0263 26.7167 37.268C28.2644 37.5096 29.8474 37.3825 31.3367 36.8969C32.826 36.4113 34.1797 35.5809 35.2875 34.4734C36.3954 33.3659 37.2261 32.0125 37.7121 30.5233C38.1982 29.0341 38.3258 27.4512 38.0846 25.9034C37.8434 24.3556 37.2402 22.8865 36.3241 21.6158C35.408 20.3452 34.2048 19.3087 32.8125 18.5908C31.4202 17.8728 29.8781 17.4937 28.3116 17.4843C22.9058 17.4515 18.422 21.8031 18.2995 27.2078Z" fill="#284268"/>
<path d="M30.9459 26.3957C30.4592 26.3938 29.9917 26.585 29.6457 26.9273C29.4774 27.0948 29.3441 27.2941 29.2534 27.5136C29.1628 27.733 29.1166 27.9683 29.1175 28.2058V28.5178C29.1175 28.6918 29.1866 28.8588 29.3097 28.9818C29.4328 29.1049 29.5997 29.174 29.7737 29.174C29.9478 29.174 30.1147 29.1049 30.2378 28.9818C30.3609 28.8588 30.43 28.6918 30.43 28.5178V28.2043C30.4296 28.1393 30.4422 28.0749 30.467 28.0148C30.4917 27.9548 30.5282 27.9002 30.5743 27.8543C30.6211 27.8075 30.6767 27.7704 30.738 27.7453C30.7992 27.7201 30.8648 27.7074 30.931 27.7078H30.961C31.0279 27.7074 31.0941 27.7216 31.155 27.7496C31.2158 27.7775 31.2698 27.8184 31.3131 27.8694C31.3578 27.9211 31.3907 27.9819 31.4094 28.0476C31.428 28.1133 31.4321 28.1823 31.4213 28.2497C31.3134 29.0435 31.0098 29.7979 30.5379 30.4452C29.4264 31.9512 27.7221 32.3672 26.7842 32.4809V26.6772H27.7141C27.8882 26.6772 28.0551 26.6081 28.1781 26.485C28.3012 26.362 28.3704 26.195 28.3704 26.021C28.3704 25.8469 28.3012 25.68 28.1781 25.5569C28.0551 25.4339 27.8882 25.3647 27.7141 25.3647H26.7844V23.5186C26.7837 22.9482 26.5569 22.4013 26.1535 21.998C25.7502 21.5947 25.2033 21.3678 24.6329 21.3672H24.4652C24.2912 21.3672 24.1243 21.4363 24.0012 21.5594C23.8781 21.6825 23.809 21.8494 23.809 22.0234C23.809 22.1975 23.8781 22.3644 24.0012 22.4875C24.1243 22.6105 24.2912 22.6797 24.4652 22.6797H24.6329C24.8553 22.6799 25.0686 22.7684 25.2259 22.9256C25.3832 23.0829 25.4717 23.2962 25.4719 23.5186V25.3647H24.417C24.2429 25.3647 24.076 25.4339 23.953 25.5569C23.8299 25.68 23.7607 25.8469 23.7607 26.021C23.7607 26.195 23.8299 26.362 23.953 26.485C24.076 26.6081 24.2429 26.6772 24.417 26.6772H25.4719V33.1797C25.4719 33.3527 25.5402 33.5187 25.662 33.6416C25.7837 33.7645 25.9491 33.8343 26.122 33.8359H26.1623C26.8369 33.8359 29.7763 33.688 31.5942 31.2249C32.1936 30.4071 32.58 29.4531 32.7188 28.4487C32.7581 28.1943 32.7418 27.9343 32.671 27.6868C32.6003 27.4393 32.4768 27.21 32.3091 27.0148C32.1393 26.8201 31.9298 26.6641 31.6947 26.5573C31.4595 26.4505 31.2042 26.3954 30.9459 26.3957Z" fill="#284268"/>
</svg>
