<svg width="48" height="48" viewBox="0 0 48 48" fill="none" xmlns="http://www.w3.org/2000/svg">
<g clip-path="url(#clip0_623_1069)">
<path d="M43.8181 14.228H30.8435L31.5305 13.1775C31.6045 13.0643 31.6464 12.9333 31.652 12.7983C31.6577 12.6632 31.6267 12.5292 31.5624 12.4103C31.4981 12.2914 31.4028 12.1921 31.2868 12.1228C31.1707 12.0536 31.038 12.017 30.9029 12.017H28.4985V0.75C28.4985 0.551088 28.4194 0.360322 28.2788 0.21967C28.1381 0.0790176 27.9474 0 27.7485 0L20.2545 0C20.0555 0 19.8648 0.0790176 19.7241 0.21967C19.5835 0.360322 19.5045 0.551088 19.5045 0.75V12.017H17.1C16.9649 12.017 16.8322 12.0535 16.7161 12.1227C16.5999 12.1919 16.5047 12.2913 16.4404 12.4102C16.376 12.5291 16.3451 12.6632 16.3507 12.7983C16.3563 12.9333 16.3984 13.0644 16.4724 13.1775L17.1594 14.228H4.18477C2.64736 14.228 1.39645 15.4776 1.39645 17.0137V45.2118C1.39645 46.7492 2.64736 48 4.18477 48H43.8181C45.3541 48 46.6036 46.7492 46.6036 45.2118V17.0137C46.6036 15.4776 45.3541 14.228 43.8181 14.228ZM45.1036 17.0137V45.2118C45.1036 45.3349 45.0853 45.4536 45.0529 45.5664L28.3225 31.1147L45.0534 16.6613C45.0854 16.7735 45.1036 16.8913 45.1036 17.0137ZM20.2544 13.517C20.4533 13.517 20.644 13.438 20.7847 13.2973C20.9253 13.1566 21.0044 12.9659 21.0044 12.767V1.5H26.9984V12.767C26.9984 12.9659 27.0774 13.1566 27.218 13.2973C27.3587 13.438 27.5494 13.517 27.7484 13.517H29.5161L24.0014 21.9494L18.4866 13.517H20.2544ZM18.1403 15.728L23.3737 23.7302C23.4419 23.8345 23.535 23.9202 23.6445 23.9795C23.7541 24.0387 23.8768 24.0698 24.0014 24.0698C24.126 24.0698 24.2486 24.0387 24.3582 23.9795C24.4678 23.9202 24.5609 23.8345 24.629 23.7302L29.8624 15.728H43.818C43.8248 15.728 43.8314 15.7289 43.8381 15.729L24.0014 32.8654L4.16339 15.729C4.17061 15.7289 4.17755 15.728 4.18486 15.728H18.1403ZM2.94745 45.5672C2.91387 45.4517 2.8967 45.332 2.89645 45.2117V17.0136C2.89645 16.8909 2.91483 16.7728 2.94708 16.6604L19.6789 31.1137L2.94745 45.5672ZM4.18477 46.5C4.17755 46.5 4.17061 46.4991 4.16339 46.499L20.8262 32.1047L23.5111 34.424C23.652 34.5457 23.8266 34.6064 24.0014 34.6064C24.1761 34.6064 24.3509 34.5457 24.4916 34.424L27.1752 32.1057L43.838 46.499C43.8313 46.4991 43.8248 46.5 43.8181 46.5H4.18477Z" fill="black"/>
<path d="M2.94708 16.6606C2.91377 16.7754 2.89673 16.8943 2.89645 17.0138V45.2119C2.89645 45.3353 2.91492 45.4543 2.94745 45.5674L19.6789 31.1139L2.94708 16.6606ZM45.0529 45.5667C45.0853 45.4538 45.1036 45.3351 45.1036 45.212V17.0139C45.1036 16.8916 45.0854 16.7737 45.0534 16.6616L28.3225 31.1149L45.0529 45.5667Z" fill="#FFD26F"/>
<path d="M24.4917 34.4238C24.3509 34.5455 24.1762 34.6062 24.0015 34.6062C23.8267 34.6062 23.652 34.5455 23.5112 34.4238L20.8263 32.1045L4.16339 46.4988C4.17061 46.4989 4.17755 46.4998 4.18477 46.4998H43.818C43.8248 46.4998 43.8313 46.4989 43.838 46.4988L27.1753 32.1055L24.4917 34.4238Z" fill="#F9C969"/>
<path d="M4.16339 15.7292L24.0014 32.8655L43.8382 15.7291C43.8315 15.729 43.8249 15.728 43.818 15.728H29.8625L24.6291 23.7302C24.5609 23.8345 24.4679 23.9202 24.3583 23.9795C24.2487 24.0388 24.1261 24.0699 24.0015 24.0699C23.8769 24.0699 23.7542 24.0388 23.6446 23.9795C23.535 23.9202 23.442 23.8345 23.3738 23.7302L18.1404 15.728H4.18477C4.17755 15.7281 4.17061 15.7291 4.16339 15.7292Z" fill="#FFE187"/>
<path d="M29.5161 13.517H27.7484C27.5494 13.517 27.3587 13.438 27.218 13.2973C27.0774 13.1566 26.9984 12.9659 26.9984 12.767V1.5H21.0044V12.767C21.0044 12.9659 20.9253 13.1566 20.7847 13.2973C20.644 13.438 20.4533 13.517 20.2544 13.517H18.4866L24.0014 21.9494L29.5161 13.517Z" fill="#ADE4A4"/>
</g>
<defs>
<clipPath id="clip0_623_1069">
<rect width="48" height="48" fill="white"/>
</clipPath>
</defs>
</svg>
