<svg width="42" height="48" viewBox="0 0 42 48" fill="none" xmlns="http://www.w3.org/2000/svg">
<path d="M32.2942 47.2968H2.61325C1.66262 47.2968 0.89209 46.5262 0.89209 45.5757V6.25778C0.89209 5.30715 1.66272 4.53662 2.61325 4.53662H32.2942C33.2448 4.53662 34.0154 5.30725 34.0154 6.25778V45.5757C34.0155 46.5262 33.2448 47.2968 32.2942 47.2968Z" fill="#FFC250"/>
<path d="M32.2942 4.53662H26.5338C27.4844 4.53662 28.2549 5.30725 28.2549 6.25778V45.5757C28.2549 46.5263 27.4843 47.2968 26.5338 47.2968H32.2942C33.2448 47.2968 34.0154 46.5262 34.0154 45.5757V6.25787C34.0155 5.30725 33.2448 4.53662 32.2942 4.53662Z" fill="#EAB14D"/>
<path d="M3.70525 43.8682V7.9648C3.70525 7.80164 3.77006 7.64516 3.88543 7.52979C4.0008 7.41442 4.15728 7.34961 4.32043 7.34961H30.5869C30.7501 7.34961 30.9066 7.41442 31.0219 7.52979C31.1373 7.64516 31.2021 7.80164 31.2021 7.9648V43.8682C31.2021 44.0314 31.1373 44.1879 31.0219 44.3032C30.9066 44.4186 30.7501 44.4834 30.5869 44.4834H4.32053C4.23973 44.4834 4.15972 44.4675 4.08508 44.4366C4.01043 44.4057 3.9426 44.3604 3.88546 44.3033C3.82833 44.2461 3.783 44.1783 3.75208 44.1037C3.72116 44.029 3.70525 43.949 3.70525 43.8682Z" fill="#F5F5F5"/>
<path d="M30.587 7.34961H24.8266C24.9897 7.34961 25.1462 7.41442 25.2616 7.52979C25.3769 7.64516 25.4418 7.80164 25.4418 7.9648V43.8682C25.4418 44.0314 25.3769 44.1879 25.2616 44.3032C25.1462 44.4186 24.9897 44.4834 24.8266 44.4834H30.587C30.7502 44.4834 30.9067 44.4186 31.022 44.3032C31.1374 44.1879 31.2022 44.0314 31.2022 43.8682V7.9648C31.2022 7.80164 31.1374 7.64516 31.022 7.52979C30.9067 7.41442 30.7502 7.34961 30.587 7.34961Z" fill="#EAEAEA"/>
<path d="M21.1102 2.84512V1.93903C21.1102 1.25644 20.5569 0.703125 19.8743 0.703125H15.0333C14.3507 0.703125 13.7974 1.25644 13.7974 1.93903V2.84512C13.7974 2.97917 13.7441 3.10772 13.6493 3.2025C13.5545 3.29728 13.426 3.35053 13.2919 3.35053H11.2772C10.6069 3.35053 10.0636 3.89391 10.0636 4.56412V7.34972H24.8442V4.56422C24.8442 3.894 24.3008 3.35063 23.6306 3.35063H21.6158C21.5494 3.35064 21.4837 3.33757 21.4223 3.31217C21.361 3.28677 21.3053 3.24954 21.2583 3.2026C21.2114 3.15566 21.1741 3.09993 21.1487 3.03859C21.1233 2.97726 21.1102 2.91152 21.1102 2.84512Z" fill="#C2D0DA"/>
<path d="M7.28387 17.3376V11.9195C7.28387 11.3192 7.77053 10.8325 8.37081 10.8325H13.789C14.3893 10.8325 14.8759 11.3192 14.8759 11.9195V17.3376C14.8759 17.9379 14.3893 18.4246 13.789 18.4246H8.37081C7.77044 18.4246 7.28387 17.938 7.28387 17.3376ZM7.28387 28.6258V23.2076C7.28387 22.6073 7.77053 22.1207 8.37081 22.1207H13.789C14.3893 22.1207 14.8759 22.6073 14.8759 23.2076V28.6258C14.8759 29.2261 14.3893 29.7127 13.789 29.7127H8.37081C7.77044 29.7127 7.28387 29.2261 7.28387 28.6258ZM7.28387 39.9138V34.4956C7.28387 33.8953 7.77053 33.4086 8.37081 33.4086H13.789C14.3893 33.4086 14.8759 33.8953 14.8759 34.4956V39.9138C14.8759 40.514 14.3893 41.0007 13.789 41.0007H8.37081C7.77044 41.0007 7.28387 40.514 7.28387 39.9138Z" fill="#66B49D"/>
<path d="M38.3735 19.0601L37.6832 18.1506L35.1 16.5149L34.1071 16.3584L20.8802 37.2595C20.561 37.7635 20.3269 38.3165 20.1871 38.8964C20.9762 38.9061 21.7471 39.1349 22.4138 39.5571C23.0806 39.9793 23.6169 40.5784 23.9631 41.2876C24.4276 40.9133 24.8274 40.4652 25.1465 39.9612L38.3735 19.0601Z" fill="#FC8086"/>
<path d="M40.2408 12.6237L39.1247 11.9169C38.2546 11.366 37.1025 11.6248 36.5518 12.4951L35.5282 14.1126L35.8548 14.7708L38.9607 16.7376L39.7947 16.8143L40.8188 15.1958C41.3693 14.3259 41.1107 13.1745 40.2408 12.6237Z" fill="#8C9BA6"/>
<path d="M34.1087 16.3521L35.5306 14.1064L39.7978 16.8081L38.3759 19.0539L34.1087 16.3521Z" fill="#C9E2E7"/>
<path d="M23.9632 41.2877L20.197 44.3226C19.6657 44.7508 18.8939 44.262 19.0537 43.5987L20.1871 38.8965C20.9762 38.9062 21.7471 39.1349 22.4139 39.5572C23.0806 39.9794 23.617 40.5785 23.9632 41.2877Z" fill="#7C8B96"/>
<path d="M12.9987 12.8248C12.9243 12.77 12.8399 12.7304 12.7502 12.7083C12.6606 12.6862 12.5674 12.6819 12.4761 12.6958C12.3848 12.7097 12.2971 12.7414 12.2181 12.7892C12.139 12.837 12.0702 12.8998 12.0154 12.9742L10.6237 14.8651L10.1478 14.2114C10.0378 14.0614 9.8727 13.9612 9.68883 13.9326C9.50496 13.904 9.31727 13.9495 9.16685 14.059C9.01642 14.1685 8.91554 14.3332 8.88628 14.517C8.85703 14.7007 8.90178 14.8886 9.01075 15.0394L9.83172 16.1669C9.92237 16.2909 10.0409 16.3919 10.1777 16.4617C10.3145 16.5315 10.4658 16.5683 10.6194 16.569H10.6218C10.775 16.5687 10.926 16.5326 11.0627 16.4635C11.1994 16.3944 11.318 16.2942 11.4091 16.171L13.1483 13.8081C13.2588 13.6579 13.3051 13.4699 13.2771 13.2855C13.249 13.1011 13.1489 12.9354 12.9987 12.8248ZM12.9987 24.3586C12.9243 24.3038 12.8399 24.2642 12.7502 24.2421C12.6606 24.22 12.5674 24.2157 12.4761 24.2296C12.3848 24.2435 12.2971 24.2752 12.2181 24.323C12.139 24.3707 12.0702 24.4336 12.0154 24.508L10.6237 26.3987L10.1478 25.7452C10.0367 25.5982 9.87221 25.5006 9.68985 25.4736C9.5075 25.4466 9.32183 25.4923 9.17279 25.6008C9.02376 25.7092 8.92327 25.8719 8.89294 26.0537C8.86262 26.2356 8.90489 26.422 9.01066 26.573L9.83163 27.7006C9.92226 27.8246 10.0407 27.9256 10.1775 27.9954C10.3143 28.0653 10.4656 28.102 10.6192 28.1026L10.6217 28.1027C10.9312 28.1027 11.2254 27.9541 11.409 27.7047L13.1482 25.3419C13.2587 25.1917 13.3051 25.0037 13.277 24.8193C13.249 24.6349 13.1489 24.4692 12.9987 24.3586ZM12.9987 35.4008C12.9243 35.346 12.8399 35.3065 12.7502 35.2843C12.6606 35.2622 12.5674 35.258 12.4761 35.2718C12.3848 35.2857 12.2971 35.3174 12.2181 35.3652C12.139 35.413 12.0702 35.4759 12.0154 35.5502L10.6237 37.441L10.1478 36.7875C10.0938 36.712 10.0254 36.6479 9.94646 36.599C9.86756 36.5501 9.77975 36.5173 9.68811 36.5025C9.59646 36.4877 9.5028 36.4912 9.41251 36.5128C9.32222 36.5344 9.23709 36.5736 9.16204 36.6282C9.08699 36.6829 9.0235 36.7518 8.97523 36.8311C8.92695 36.9104 8.89485 36.9985 8.88078 37.0902C8.86671 37.182 8.87094 37.2756 8.89323 37.3657C8.91552 37.4558 8.95543 37.5407 9.01066 37.6153L9.83163 38.7429C9.92226 38.8669 10.0407 38.9679 10.1775 39.0377C10.3143 39.1075 10.4656 39.1442 10.6192 39.1449L10.6217 39.145C10.9312 39.145 11.2254 38.9963 11.409 38.7469L13.1482 36.3841C13.2587 36.2339 13.3051 36.0459 13.277 35.8615C13.249 35.6771 13.1489 35.5114 12.9987 35.4008ZM18.3776 13.8627H27.0697C27.4581 13.8627 27.773 13.5479 27.773 13.1594C27.773 12.7709 27.4581 12.4561 27.0697 12.4561H18.3776C17.9892 12.4561 17.6743 12.7709 17.6743 13.1594C17.6743 13.5479 17.9892 13.8627 18.3776 13.8627ZM18.3776 16.8009H22.7237C23.1121 16.8009 23.427 16.4861 23.427 16.0976C23.427 15.7091 23.1121 15.3943 22.7237 15.3943H18.3776C17.9892 15.3943 17.6743 15.7091 17.6743 16.0976C17.6743 16.4861 17.9892 16.8009 18.3776 16.8009ZM18.3776 25.1506H24.2096C24.598 25.1506 24.9129 24.8358 24.9129 24.4473C24.9129 24.0588 24.598 23.744 24.2096 23.744H18.3776C17.9892 23.744 17.6743 24.0588 17.6743 24.4473C17.6743 24.8358 17.9892 25.1506 18.3776 25.1506ZM22.7237 28.089C23.1121 28.089 23.427 27.7741 23.427 27.3856C23.427 26.9971 23.1121 26.6823 22.7237 26.6823H18.3776C17.9892 26.6823 17.6743 26.9971 17.6743 27.3856C17.6743 27.7741 17.9892 28.089 18.3776 28.089H22.7237Z" fill="black"/>
<path d="M13.7895 10.1294H8.37127C7.38418 10.1294 6.58102 10.9326 6.58102 11.9196V17.3378C6.58102 18.3249 7.38418 19.1281 8.37127 19.1281H13.7895C14.7766 19.1281 15.5797 18.3249 15.5797 17.3378V11.9196C15.5797 10.9326 14.7766 10.1294 13.7895 10.1294ZM14.1732 17.3378C14.1731 17.4395 14.1326 17.537 14.0607 17.609C13.9888 17.6809 13.8913 17.7213 13.7896 17.7215H8.37137C8.26965 17.7214 8.17214 17.6809 8.10021 17.609C8.02829 17.5371 7.98784 17.4395 7.98774 17.3378V11.9196C7.98787 11.8179 8.02832 11.7204 8.10024 11.6485C8.17216 11.5766 8.26966 11.5361 8.37137 11.536H13.7896C13.8913 11.5361 13.9888 11.5766 14.0607 11.6485C14.1326 11.7204 14.1731 11.8179 14.1732 11.9196V17.3378ZM13.7895 21.4175H8.37127C7.38418 21.4175 6.58102 22.2206 6.58102 23.2077V28.6259C6.58102 29.613 7.38418 30.4161 8.37127 30.4161H13.7895C14.7766 30.4161 15.5797 29.613 15.5797 28.6259V23.2077C15.5797 22.2205 14.7766 21.4175 13.7895 21.4175ZM14.1732 28.6259C14.1731 28.7276 14.1326 28.8251 14.0607 28.897C13.9888 28.9689 13.8913 29.0094 13.7896 29.0095H8.37137C8.26965 29.0094 8.17214 28.969 8.10021 28.897C8.02829 28.8251 7.98784 28.7276 7.98774 28.6259V23.2077C7.98787 23.106 8.02832 23.0085 8.10024 22.9366C8.17216 22.8647 8.26966 22.8242 8.37137 22.8241H13.7896C13.8913 22.8242 13.9888 22.8646 14.0607 22.9366C14.1326 23.0085 14.1731 23.106 14.1732 23.2077V28.6259ZM13.7895 32.7053H8.37127C7.38418 32.7053 6.58102 33.5085 6.58102 34.4956V39.9138C6.58102 40.9009 7.38418 41.704 8.37127 41.704H13.7895C14.7766 41.704 15.5797 40.9009 15.5797 39.9138V34.4956C15.5797 33.5085 14.7766 32.7053 13.7895 32.7053ZM14.1732 39.9138C14.1731 40.0155 14.1326 40.113 14.0607 40.1849C13.9888 40.2568 13.8913 40.2973 13.7896 40.2974H8.37137C8.26965 40.2973 8.17214 40.2568 8.10021 40.1849C8.02829 40.113 7.98784 40.0155 7.98774 39.9138V34.4956C7.98787 34.3939 8.02832 34.2964 8.10024 34.2245C8.17216 34.1525 8.26966 34.1121 8.37137 34.112H13.7896C13.8913 34.1121 13.9888 34.1525 14.0607 34.2244C14.1326 34.2964 14.1731 34.3939 14.1732 34.4956V39.9138Z" fill="black"/>
<path d="M40.6175 12.0298L39.5013 11.3229C38.9218 10.9558 38.2338 10.8367 37.5647 10.9869C36.8954 11.1374 36.3247 11.5395 35.9579 12.1192L34.9343 13.7365L33.5131 15.9823L31.9058 18.5221V7.96509C31.9058 7.23806 31.3143 6.64659 30.5873 6.64659H25.5477V5.24006H32.2945C32.8558 5.24006 33.3124 5.69662 33.3124 6.25791V12.3487C33.3124 12.7372 33.6273 13.052 34.0158 13.052C34.4042 13.052 34.7191 12.7372 34.7191 12.3487V6.25791C34.7191 4.92112 33.6315 3.83344 32.2946 3.83344H25.4023C25.1143 3.13809 24.4291 2.64741 23.6309 2.64741H21.814V1.93913C21.814 0.87 20.9441 0 19.8748 0H15.0337C13.9644 0 13.0945 0.87 13.0945 1.93922V2.6475H11.2776C10.4794 2.6475 9.79422 3.13819 9.50631 3.83353H2.61391C1.27703 3.83353 0.189438 4.92112 0.189438 6.258V45.5756C0.189438 46.9124 1.27703 48.0001 2.61391 48.0001H32.2947C33.6316 48.0001 34.7192 46.9124 34.7192 45.5756V29.8061C34.7192 29.4176 34.4043 29.1028 34.0158 29.1028C33.6274 29.1028 33.3125 29.4176 33.3125 29.8061V45.5755C33.3125 46.1368 32.8559 46.5934 32.2946 46.5934H2.61391C2.05263 46.5934 1.59597 46.1368 1.59597 45.5755V6.25791C1.59597 5.69662 2.05263 5.24006 2.61391 5.24006H9.36072V6.64669H4.32109C3.59406 6.64669 3.00259 7.23816 3.00259 7.96519V43.8683C3.00259 44.5954 3.59406 45.1868 4.32109 45.1868H30.5874C31.3144 45.1868 31.9059 44.5954 31.9059 43.8683V30.596L38.9682 19.4363L38.9686 19.4356L40.3893 17.1906L41.4136 15.5722C42.1704 14.376 41.8133 12.7869 40.6175 12.0298ZM37.8731 12.3593C38.0218 12.3254 38.1759 12.3213 38.3262 12.3474C38.4765 12.3735 38.6202 12.4292 38.7488 12.5112L39.865 13.2182C40.4058 13.5606 40.5672 14.2791 40.2249 14.8199L39.5769 15.8438L36.4989 13.8947L37.1465 12.8714C37.2277 12.7422 37.3338 12.6304 37.4585 12.5425C37.5832 12.4546 37.7241 12.3924 37.8731 12.3593ZM24.5529 39.5849C24.4202 39.7942 24.2713 39.9928 24.1075 40.1788C23.8887 39.8852 23.638 39.6167 23.3599 39.3785L36.465 18.6837L37.4037 19.2782L24.5529 39.5849ZM19.7504 43.7794C19.7455 43.7777 19.7394 43.7744 19.7371 43.7744C19.7366 43.7744 19.7363 43.7745 19.7361 43.7749L20.7297 39.6485C21.1952 39.7264 21.6405 39.8967 22.0392 40.1492C22.438 40.4017 22.7823 40.7314 23.0518 41.1189C19.3278 44.1197 19.8032 43.7313 19.7504 43.7794ZM35.7467 15.0833L38.8248 17.0324L38.1558 18.0895L35.0778 16.1404L35.7467 15.0833ZM10.7673 4.58006C10.7677 4.57144 10.7683 4.56281 10.7685 4.55409C10.7686 4.55109 10.7682 4.54819 10.7683 4.54519C10.7784 4.27275 11.0027 4.05394 11.2776 4.05394H13.2924C13.9589 4.05394 14.5011 3.51169 14.5011 2.84522V1.93913C14.5013 1.79791 14.5575 1.66253 14.6573 1.56268C14.7572 1.46284 14.8926 1.40668 15.0338 1.40653H19.8749C20.0161 1.40668 20.1515 1.46284 20.2513 1.56268C20.3512 1.66253 20.4074 1.79791 20.4076 1.93913V2.84522C20.4076 3.51169 20.9498 4.05394 21.6163 4.05394H23.6311C23.906 4.05394 24.1303 4.27266 24.1404 4.54519C24.1404 4.54819 24.1401 4.55109 24.1402 4.55409C24.1404 4.56262 24.141 4.57125 24.1414 4.57987V6.64659H10.7673V4.58006ZM4.40913 8.05322H30.4993V20.7448L23.1384 32.3766C23.0387 32.5342 23.0056 32.725 23.0465 32.9069C23.0874 33.0889 23.1989 33.2472 23.3566 33.347C23.6834 33.5537 24.1184 33.4584 24.327 33.1287L34.3255 17.3289L35.2765 17.9311L22.1715 38.6259C21.8372 38.4764 21.4874 38.3646 21.1284 38.2924C21.2266 38.0647 21.3425 37.8451 21.4749 37.6356L22.5682 35.908C22.6186 35.83 22.6531 35.7427 22.6696 35.6513C22.6861 35.5598 22.6843 35.466 22.6644 35.3753C22.6444 35.2846 22.6067 35.1987 22.5533 35.1226C22.5 35.0465 22.4321 34.9818 22.3536 34.9321C22.275 34.8824 22.1875 34.8488 22.0959 34.8331C22.0043 34.8175 21.9105 34.8201 21.8199 34.8409C21.7294 34.8617 21.6439 34.9003 21.5683 34.9543C21.4927 35.0084 21.4286 35.0769 21.3797 35.1559L20.2864 36.8833C19.9259 37.4523 19.6615 38.0768 19.5038 38.7317L19.5037 38.7322L18.3705 43.4338C18.3431 43.5473 18.3294 43.6636 18.3297 43.7803H4.40913V8.05322ZM30.4993 43.7802H21.9912L24.405 41.8352C24.9296 41.4126 25.3811 40.9066 25.7413 40.3372L30.4993 32.8187V43.7802Z" fill="black"/>
</svg>
