<svg width="48" height="48" viewBox="0 0 48 48" fill="none" xmlns="http://www.w3.org/2000/svg">
<g clip-path="url(#clip0_623_1089)">
<path d="M46.5001 23.8293V42.7761C46.5 43.3501 46.2721 43.9005 45.8663 44.3065C45.4606 44.7124 44.9103 44.9406 44.3363 44.9408H31.4898C31.2055 44.9408 30.9241 44.8848 30.6616 44.7759C30.399 44.6671 30.1605 44.5077 29.9595 44.3066C29.7586 44.1056 29.5992 43.867 29.4905 43.6044C29.3818 43.3418 29.3259 43.0604 29.326 42.7761V23.8293C29.326 23.5451 29.3819 23.2637 29.4906 23.0012C29.5993 22.7386 29.7587 22.5001 29.9596 22.2992C30.1606 22.0982 30.3991 21.9389 30.6617 21.8301C30.9242 21.7214 31.2056 21.6655 31.4898 21.6655H34.4119V21.6721C34.4119 21.8834 34.4535 22.0926 34.5343 22.2878C34.6151 22.483 34.7336 22.6604 34.883 22.8098C35.0324 22.9592 35.2098 23.0777 35.405 23.1585C35.6002 23.2393 35.8094 23.2809 36.0207 23.2808H39.8054C40.0167 23.2809 40.2259 23.2393 40.4211 23.1585C40.6163 23.0777 40.7937 22.9592 40.943 22.8098C41.0924 22.6604 41.2109 22.483 41.2918 22.2878C41.3726 22.0926 41.4142 21.8834 41.4141 21.6721V21.6655H44.3363C44.9102 21.6656 45.4605 21.8936 45.8663 22.2993C46.272 22.7051 46.5 23.2554 46.5001 23.8293ZM35.3363 35.8246V32.7327H32.2454V35.8246H35.3363Z" fill="#F8EC7D"/>
<path d="M34.4119 21.6657V21.5672C34.4119 21.356 34.4535 21.1468 34.5343 20.9515C34.6151 20.7563 34.7336 20.579 34.883 20.4296C35.0324 20.2802 35.2098 20.1617 35.405 20.0809C35.6002 20 35.8094 19.9584 36.0207 19.9585H39.8054C40.0166 19.9584 40.2259 20 40.4211 20.0809C40.6163 20.1617 40.7936 20.2802 40.943 20.4296C41.0924 20.579 41.2109 20.7563 41.2918 20.9515C41.3726 21.1468 41.4142 21.356 41.4141 21.5672V21.6722C41.4142 21.8835 41.3726 22.0927 41.2918 22.2879C41.2109 22.4832 41.0924 22.6605 40.943 22.8099C40.7936 22.9593 40.6163 23.0778 40.4211 23.1586C40.2259 23.2395 40.0166 23.281 39.8054 23.281H36.0207C35.8094 23.281 35.6002 23.2395 35.405 23.1586C35.2098 23.0778 35.0324 22.9593 34.883 22.8099C34.7336 22.6605 34.6151 22.4832 34.5343 22.2879C34.4535 22.0927 34.4119 21.8835 34.4119 21.6722V21.6657Z" fill="#6FE3FF"/>
<path d="M36.6854 13.2168V19.9583H36.0207C35.8094 19.9583 35.6002 19.9998 35.405 20.0807C35.2098 20.1615 35.0324 20.28 34.883 20.4294C34.7336 20.5788 34.6151 20.7562 34.5343 20.9514C34.4535 21.1466 34.4119 21.3558 34.4119 21.5671V21.6655H31.4898C31.2056 21.6655 30.9242 21.7214 30.6617 21.8301C30.3991 21.9388 30.1606 22.0982 29.9596 22.2991C29.7587 22.5001 29.5993 22.7386 29.4906 23.0012C29.3819 23.2637 29.326 23.5451 29.326 23.8293V37.7793L19.0923 43.6874V23.3718L36.6835 13.2158L36.6854 13.2168Z" fill="#C16752"/>
<path d="M19.0923 23.3718L10.1241 18.194L27.7144 8.03711H27.7154L36.6835 13.2159L19.0923 23.3718Z" fill="#AF593C"/>
<path d="M32.2454 32.7329H35.3363V35.8248H32.2454V32.7329Z" fill="#6FE3FF"/>
<path d="M27.7144 8.03721L10.1241 18.1941L1.50194 13.216L19.0922 3.05908L27.7144 8.03721Z" fill="#AF593C"/>
<path d="M19.0922 23.3718V43.6874L1.50006 33.5305V13.2168L1.50194 13.2158L10.1241 18.1939L19.0922 23.3718Z" fill="#E48E66"/>
<path d="M44.3363 21H42.0007C41.8677 20.5185 41.5815 20.0933 41.1855 19.7889C40.7894 19.4844 40.3049 19.3172 39.8054 19.3125H37.3126V13.2169C37.3151 13.1022 37.287 12.9889 37.2312 12.8887C37.1755 12.7885 37.094 12.7049 36.9952 12.6465L28.0363 7.46892L27.7289 8.03798H27.7501V8.03648L28.0602 7.46892L19.4292 2.4908C19.3286 2.43316 19.2148 2.40283 19.0989 2.40283C18.983 2.40283 18.8691 2.43316 18.7685 2.4908L1.18525 12.6423C1.08222 12.6989 0.996214 12.782 0.936171 12.8831C0.876128 12.9841 0.844237 13.0994 0.843811 13.2169V33.5307C0.843814 33.6459 0.874138 33.759 0.931736 33.8588C0.989334 33.9585 1.07218 34.0414 1.17194 34.099L18.7641 44.2559C18.8639 44.3135 18.977 44.3438 19.0922 44.3438C19.2104 44.3439 19.3267 44.3137 19.4297 44.2559L28.6876 38.9157V42.7763C28.6866 43.1438 28.7585 43.5079 28.8992 43.8474C29.0399 44.1869 29.2465 44.4951 29.5071 44.7543C29.7677 45.0134 30.0772 45.2183 30.4175 45.357C30.7578 45.4957 31.1222 45.5656 31.4897 45.5625H44.3363C44.7048 45.566 45.0703 45.4966 45.4118 45.3582C45.7533 45.2198 46.064 45.0152 46.3261 44.7563C46.5882 44.4973 46.7965 44.189 46.939 43.8492C47.0815 43.5094 47.1553 43.1448 47.1563 42.7763V23.8294C47.1558 23.0808 46.8589 22.3628 46.3304 21.8326C45.8019 21.3024 45.0849 21.003 44.3363 21ZM40.7813 21.5672V21.6722C40.7813 22.1972 40.3306 22.5938 39.8054 22.5938H36.0207C35.8965 22.597 35.7729 22.5755 35.6572 22.5304C35.5414 22.4852 35.4358 22.4175 35.3466 22.331C35.2574 22.2446 35.1863 22.1412 35.1375 22.027C35.0888 21.9127 35.0633 21.7899 35.0626 21.6657V21.5672C35.0635 21.4424 35.0891 21.319 35.1378 21.2041C35.1865 21.0892 35.2573 20.985 35.3463 20.8975C35.4353 20.81 35.5407 20.7409 35.6564 20.6942C35.7721 20.6474 35.8959 20.6239 36.0207 20.625H39.8054C40.0592 20.6223 40.304 20.7196 40.4867 20.8959C40.6693 21.0722 40.7752 21.3134 40.7813 21.5672ZM35.3711 13.216L19.0922 22.6141L11.4365 18.1941L27.7148 8.79473L35.3711 13.216ZM19.0922 3.81689L26.402 8.03723L10.1241 17.4363L2.81434 13.216L19.0922 3.81689ZM2.15631 14.3516L18.4688 23.7508V42.5509L2.15631 33.1518V14.3516ZM19.7813 42.5509V23.7509L36.0001 14.3516V19.3125H36.0207C35.5211 19.3172 35.0366 19.4843 34.6404 19.7888C34.2443 20.0933 33.9581 20.5185 33.8251 21H31.4897C30.743 21.0037 30.0282 21.3039 29.5027 21.8345C28.9772 22.365 28.684 23.0826 28.6876 23.8294V37.4006L19.7813 42.5509ZM45.8438 42.7759C45.843 42.9721 45.8032 43.1662 45.7268 43.3468C45.6503 43.5275 45.5387 43.6912 45.3984 43.8283C45.2582 43.9655 45.092 44.0734 44.9097 44.1458C44.7274 44.2182 44.5325 44.2536 44.3363 44.25H31.4897C31.2946 44.2533 31.1007 44.2175 30.9195 44.1448C30.7384 44.0721 30.5735 43.9639 30.4348 43.8267C30.296 43.6894 30.1861 43.5257 30.1114 43.3453C30.0368 43.165 29.9989 42.9715 30.0001 42.7763V23.8294C29.9981 23.632 30.0351 23.4361 30.1089 23.2529C30.1828 23.0698 30.292 22.903 30.4304 22.7621C30.5687 22.6212 30.7335 22.509 30.9153 22.4318C31.0971 22.3547 31.2923 22.3142 31.4897 22.3125H33.851C33.9918 22.7771 34.2792 23.1834 34.6704 23.4708C35.0616 23.7581 35.5353 23.9109 36.0207 23.9063H39.8054C40.2907 23.9109 40.7645 23.7581 41.1556 23.4708C41.5468 23.1835 41.8342 22.7771 41.9749 22.3125H44.3363C44.737 22.3151 45.1203 22.4761 45.4027 22.7602C45.6852 23.0444 45.8437 23.4288 45.8438 23.8294V42.7759Z" fill="#63316D"/>
<path d="M32.2454 30.4688H32.9326C33.1066 30.4688 33.2735 30.3996 33.3966 30.2765C33.5197 30.1535 33.5888 29.9865 33.5888 29.8125C33.5888 29.6385 33.5197 29.4715 33.3966 29.3485C33.2735 29.2254 33.1066 29.1562 32.9326 29.1562H32.9063V27.375H34.7157C34.7569 27.5069 34.8403 27.6217 34.953 27.7017C35.0658 27.7818 35.2016 27.8226 35.3398 27.818C35.5141 27.8185 35.6816 27.7499 35.8054 27.6271C35.9291 27.5043 35.9992 27.3375 36.0001 27.1631V26.7216C35.9985 26.5464 35.9279 26.379 35.8036 26.2556C35.6794 26.1322 35.5114 26.0628 35.3363 26.0625H32.2454C32.1593 26.0629 32.0741 26.0803 31.9948 26.1136C31.9154 26.147 31.8434 26.1957 31.7829 26.2569C31.7224 26.3181 31.6745 26.3907 31.6421 26.4704C31.6096 26.5501 31.5932 26.6355 31.5938 26.7216V29.8134C31.5933 29.8993 31.6098 29.9845 31.6423 30.0639C31.6748 30.1434 31.7227 30.2157 31.7833 30.2766C31.8438 30.3375 31.9158 30.3858 31.9951 30.4188C32.0744 30.4518 32.1595 30.4688 32.2454 30.4688ZM36.0001 32.7188C36.0001 32.5447 35.9309 32.3778 35.8078 32.2547C35.6848 32.1316 35.5179 32.0625 35.3438 32.0625H32.2501C32.076 32.0625 31.9091 32.1316 31.786 32.2547C31.6629 32.3778 31.5938 32.5447 31.5938 32.7188V35.8125C31.5938 35.9865 31.6629 36.1535 31.786 36.2765C31.9091 36.3996 32.076 36.4688 32.2501 36.4688H35.3438C35.5179 36.4688 35.6848 36.3996 35.8078 36.2765C35.9309 36.1535 36.0001 35.9865 36.0001 35.8125V32.7188ZM32.9063 33.375H34.6876V35.1562H32.9063V33.375ZM32.9326 41.1562H32.9063V39.375H34.6805C34.685 39.5469 34.7564 39.7103 34.8795 39.8304C35.0027 39.9505 35.1678 40.0178 35.3398 40.0179C35.5118 40.018 35.6771 39.951 35.8004 39.8311C35.9237 39.7112 35.9954 39.5479 36.0001 39.3759V38.7441C35.9994 38.5666 35.9298 38.3963 35.806 38.2691C35.6821 38.1419 35.5137 38.0678 35.3363 38.0625H32.2454C32.0692 38.0684 31.9024 38.1431 31.7807 38.2705C31.6589 38.3979 31.5918 38.5678 31.5938 38.7441V41.835C31.5937 41.9198 31.6107 42.0037 31.6436 42.0818C31.6765 42.1599 31.7248 42.2306 31.7856 42.2897C31.8463 42.3488 31.9183 42.3951 31.9973 42.4258C32.0763 42.4566 32.1606 42.4712 32.2454 42.4688H32.9326C33.1066 42.4688 33.2735 42.3996 33.3966 42.2765C33.5197 42.1535 33.5888 41.9865 33.5888 41.8125C33.5888 41.6385 33.5197 41.4715 33.3966 41.3485C33.2735 41.2254 33.1066 41.1562 32.9326 41.1562Z" fill="#63316D"/>
<path d="M36.8476 26.868L34.9257 28.7899L34.3406 28.2053C34.2175 28.0823 34.0506 28.0131 33.8765 28.0131C33.7025 28.0131 33.5355 28.0823 33.4125 28.2053C33.2894 28.3284 33.2202 28.4953 33.2202 28.6694C33.2202 28.8434 33.2894 29.0104 33.4125 29.1335L34.4616 30.1816C34.5226 30.2425 34.5949 30.2909 34.6745 30.3239C34.7542 30.3568 34.8395 30.3738 34.9257 30.3738C35.0119 30.3738 35.0972 30.3568 35.1768 30.3239C35.2565 30.2909 35.3288 30.2425 35.3897 30.1816L37.7757 27.7956C37.8366 27.7347 37.885 27.6624 37.918 27.5827C37.9509 27.5031 37.9679 27.4178 37.9679 27.3316C37.9679 27.2454 37.9509 27.1601 37.918 27.0804C37.885 27.0008 37.8366 26.9285 37.7757 26.8675C37.7147 26.8066 37.6424 26.7582 37.5628 26.7252C37.4831 26.6923 37.3978 26.6753 37.3116 26.6753C37.2254 26.6753 37.1401 26.6923 37.0605 26.7252C36.9808 26.7582 36.9085 26.8066 36.8476 26.8675V26.868ZM36.8476 38.9852L34.9257 40.907L34.3406 40.3225C34.2175 40.1994 34.0506 40.1303 33.8765 40.1303C33.7025 40.1303 33.5355 40.1994 33.4125 40.3225C33.2894 40.4456 33.2202 40.6125 33.2202 40.7866C33.2202 40.9606 33.2894 41.1276 33.4125 41.2506L34.4616 42.2988C34.5226 42.3597 34.5949 42.4081 34.6745 42.441C34.7542 42.474 34.8395 42.491 34.9257 42.491C35.0119 42.491 35.0972 42.474 35.1768 42.441C35.2565 42.4081 35.3288 42.3597 35.3897 42.2988L37.7757 39.9128C37.8366 39.8519 37.885 39.7795 37.918 39.6999C37.9509 39.6203 37.9679 39.5349 37.9679 39.4488C37.9679 39.3626 37.9509 39.2772 37.918 39.1976C37.885 39.118 37.8366 39.0456 37.7757 38.9847C37.7147 38.9238 37.6424 38.8754 37.5628 38.8424C37.4831 38.8095 37.3978 38.7925 37.3116 38.7925C37.2254 38.7925 37.1401 38.8095 37.0605 38.8424C36.9808 38.8754 36.9085 38.9238 36.8476 38.9847V38.9852ZM43.5807 27.6564H39.4585C39.2845 27.6564 39.1175 27.7256 38.9945 27.8486C38.8714 27.9717 38.8022 28.1386 38.8022 28.3127C38.8022 28.4867 38.8714 28.6536 38.9945 28.7767C39.1175 28.8998 39.2845 28.9689 39.4585 28.9689H43.5807C43.7547 28.9689 43.9217 28.8998 44.0447 28.7767C44.1678 28.6536 44.2369 28.4867 44.2369 28.3127C44.2369 28.1386 44.1678 27.9717 44.0447 27.8486C43.9217 27.7256 43.7547 27.6564 43.5807 27.6564ZM43.5807 33.6564H39.4585C39.2845 33.6564 39.1175 33.7256 38.9945 33.8486C38.8714 33.9717 38.8022 34.1386 38.8022 34.3127C38.8022 34.4867 38.8714 34.6536 38.9945 34.7767C39.1175 34.8998 39.2845 34.9689 39.4585 34.9689H43.5807C43.7547 34.9689 43.9217 34.8998 44.0447 34.7767C44.1678 34.6536 44.2369 34.4867 44.2369 34.3127C44.2369 34.1386 44.1678 33.9717 44.0447 33.8486C43.9217 33.7256 43.7547 33.6564 43.5807 33.6564ZM43.5807 39.6564H39.4585C39.2845 39.6564 39.1175 39.7256 38.9945 39.8486C38.8714 39.9717 38.8022 40.1386 38.8022 40.3127C38.8022 40.4867 38.8714 40.6536 38.9945 40.7767C39.1175 40.8998 39.2845 40.9689 39.4585 40.9689H43.5807C43.7547 40.9689 43.9217 40.8998 44.0447 40.7767C44.1678 40.6536 44.2369 40.4867 44.2369 40.3127C44.2369 40.1386 44.1678 39.9717 44.0447 39.8486C43.9217 39.7256 43.7547 39.6564 43.5807 39.6564Z" fill="#63316D"/>
</g>
<defs>
<clipPath id="clip0_623_1089">
<rect width="48" height="48" fill="white"/>
</clipPath>
</defs>
</svg>
