<svg width="57" height="56" viewBox="0 0 57 56" fill="none" xmlns="http://www.w3.org/2000/svg">
<path d="M48.1731 50.5786H46.1932C45.9005 50.5786 45.6631 50.3413 45.6631 50.0485V47.5386H48.7031V50.0485C48.7032 50.3413 48.4659 50.5786 48.1731 50.5786Z" fill="#8D9CA8"/>
<path d="M11.3066 50.5786H9.32675C9.03401 50.5786 8.79663 50.3413 8.79663 50.0485V47.5386H11.8367V50.0485C11.8367 50.3413 11.5994 50.5786 11.3066 50.5786Z" fill="#8D9CA8"/>
<path d="M48.7033 47.5386V50.0485C48.7033 50.3416 48.4656 50.5784 48.1734 50.5784H46.697C46.9892 50.5784 47.227 50.3416 47.227 50.0485V47.5386H48.7033Z" fill="#7A8C98"/>
<path d="M11.8366 47.5385V50.0484C11.8366 50.3415 11.5998 50.5783 11.3067 50.5783H9.83032C10.1225 50.5783 10.3603 50.3415 10.3603 50.0484V47.5385H11.8366Z" fill="#7A8C98"/>
<path d="M50.9846 47.5386H6.51559C6.33066 47.5386 6.18066 47.3887 6.18066 47.2037V45.2278C6.18066 45.0428 6.33057 44.8928 6.51559 44.8928H50.9846C51.1695 44.8928 51.3195 45.0427 51.3195 45.2278V47.2037C51.3195 47.3887 51.1695 47.5386 50.9846 47.5386Z" fill="#8D9CA8"/>
<path d="M51.3194 45.2277V47.204C51.3194 47.3891 51.1696 47.5389 50.9845 47.5389H49.1697C49.3548 47.5389 49.5045 47.3891 49.5045 47.204V45.2277C49.5045 45.0425 49.3548 44.8928 49.1697 44.8928H50.9845C51.1696 44.8928 51.3194 45.0425 51.3194 45.2277Z" fill="#7A8C98"/>
<path d="M48.4855 44.8926H28.75V25.1571H47.787C48.1728 25.1571 48.4855 25.4698 48.4855 25.8555V44.8926Z" fill="#FCCD7F"/>
<path d="M48.4853 25.8558V44.8934H46.7029V25.8558C46.7029 25.4707 46.3901 25.158 46.0051 25.158H47.7875C48.1725 25.158 48.4853 25.4707 48.4853 25.8558Z" fill="#FBC56D"/>
<path d="M38.6178 25.1572H36.2617V30.3979C36.2617 30.7083 36.5899 30.9088 36.8661 30.7673L38.4285 29.9664C38.5473 29.9055 38.6882 29.9055 38.8071 29.9664L40.3695 30.7673C40.6457 30.9088 40.9739 30.7083 40.9739 30.3979V25.1572H38.6178Z" fill="#D8AA5E"/>
<path d="M40.9741 25.158V30.3981C40.9741 30.7083 40.6452 30.9096 40.3689 30.768L39.1917 30.1646V25.158H40.9741Z" fill="#C99C56"/>
<path d="M41.9421 41.5747H35.2935C35.0726 41.5747 34.8936 41.3957 34.8936 41.1748V38.3218C34.8936 38.1009 35.0726 37.9219 35.2935 37.9219H41.9421C42.163 37.9219 42.342 38.1009 42.342 38.3218V41.1748C42.3421 41.3957 42.1631 41.5747 41.9421 41.5747Z" fill="#D8AA5E"/>
<path d="M42.3423 38.3213V41.1741C42.3423 41.3951 42.1632 41.5742 41.9421 41.5742H40.125C40.346 41.5742 40.5252 41.3951 40.5252 41.1741V38.3213C40.5252 38.1003 40.346 37.9211 40.125 37.9211H41.9421C42.1632 37.9212 42.3423 38.1004 42.3423 38.3213Z" fill="#C99C56"/>
<path d="M38.6178 25.1569H18.8823V6.11919C18.8823 5.73381 19.1947 5.42139 19.5801 5.42139H37.9194C38.3051 5.42139 38.6178 5.73408 38.6178 6.11983V25.1569Z" fill="#FCCD7F"/>
<path d="M38.6174 6.11993V25.1576H36.835V6.11993C36.835 5.73491 36.5222 5.42212 36.1372 5.42212H37.9196C38.3046 5.42212 38.6174 5.73491 38.6174 6.11993Z" fill="#FBC56D"/>
<path d="M28.7502 5.42139H26.394V10.6621C26.394 10.9724 26.7223 11.173 26.9984 11.0314L28.5608 10.2305C28.6797 10.1696 28.8206 10.1696 28.9394 10.2305L30.5018 11.0314C30.7781 11.173 31.1062 10.9724 31.1062 10.6621V5.42139H28.7502Z" fill="#D8AA5E"/>
<path d="M31.1064 5.42212V10.6623C31.1064 10.9724 30.7776 11.1738 30.5013 11.0322L29.324 10.4288V5.42212H31.1064Z" fill="#C99C56"/>
<path d="M32.0744 21.8387H25.4258C25.2049 21.8387 25.0259 21.6597 25.0259 21.4388V18.5858C25.0259 18.3649 25.2049 18.1859 25.4258 18.1859H32.0744C32.2953 18.1859 32.4743 18.3649 32.4743 18.5858V21.4388C32.4743 21.6597 32.2953 21.8387 32.0744 21.8387Z" fill="#D8AA5E"/>
<path d="M32.4744 18.5855V21.4381C32.4744 21.6592 32.2952 21.8383 32.0742 21.8383H30.2571C30.4781 21.8383 30.6573 21.6592 30.6573 21.4381V18.5855C30.6573 18.3644 30.4781 18.1853 30.2571 18.1853H32.0742C32.2952 18.1853 32.4744 18.3645 32.4744 18.5855Z" fill="#C99C56"/>
<path d="M28.7501 44.8926H9.01465V25.8555C9.01465 25.4698 9.32735 25.1571 9.71309 25.1571H28.7501V44.8926Z" fill="#FCCD7F"/>
<path d="M28.7499 25.158V44.8934H26.9676V25.8558C26.9676 25.4707 26.6548 25.158 26.2698 25.158H28.7499Z" fill="#FBC56D"/>
<path d="M18.8825 25.1572H16.5264V30.3979C16.5264 30.7083 16.8546 30.9088 17.1307 30.7673L18.6931 29.9664C18.812 29.9055 18.9529 29.9055 19.0718 29.9664L20.6342 30.7673C20.9104 30.9088 21.2385 30.7083 21.2385 30.3979V25.1572H18.8825Z" fill="#D8AA5E"/>
<path d="M21.2387 25.158V30.3981C21.2387 30.7083 20.9099 30.9096 20.6336 30.768L19.4563 30.1646V25.158H21.2387Z" fill="#C99C56"/>
<path d="M22.2068 41.5747H15.5581C15.3372 41.5747 15.1582 41.3957 15.1582 41.1748V38.3218C15.1582 38.1009 15.3372 37.9219 15.5581 37.9219H22.2068C22.4276 37.9219 22.6067 38.1009 22.6067 38.3218V41.1748C22.6067 41.3957 22.4276 41.5747 22.2068 41.5747Z" fill="#D8AA5E"/>
<path d="M22.6067 38.3213V41.1741C22.6067 41.3951 22.4276 41.5742 22.2065 41.5742H20.3894C20.6105 41.5742 20.7896 41.3951 20.7896 41.1741V38.3213C20.7896 38.1003 20.6105 37.9211 20.3894 37.9211H22.2065C22.4276 37.9212 22.6067 38.1004 22.6067 38.3213Z" fill="#C99C56"/>
<path d="M32.0742 22.5192C32.6699 22.5192 33.1547 22.0345 33.1547 21.4386V18.5857C33.1547 17.9899 32.6699 17.5052 32.0742 17.5052H25.4255C24.8297 17.5052 24.345 17.9899 24.345 18.5857V21.4386C24.345 22.0345 24.8297 22.5192 25.4255 22.5192H32.0742ZM25.7061 18.8664H31.7934V21.1581H25.7061V18.8664Z" fill="black"/>
<path d="M35.2934 37.241C34.6976 37.241 34.2129 37.7256 34.2129 38.3214V41.1745C34.2129 41.7702 34.6976 42.2549 35.2934 42.2549H41.9421C42.5378 42.2549 43.0226 41.7702 43.0226 41.1745V38.3214C43.0226 37.7256 42.5378 37.241 41.9421 37.241H35.2934ZM41.6614 40.8938H35.574V38.6021H41.6614V40.8938Z" fill="black"/>
<path d="M22.2064 37.241H15.5578C14.9619 37.241 14.4773 37.7256 14.4773 38.3214V41.1745C14.4773 41.7702 14.9619 42.2549 15.5578 42.2549H22.2064C22.8021 42.2549 23.2869 41.7702 23.2869 41.1745V38.3214C23.2869 37.7256 22.8021 37.241 22.2064 37.241ZM21.9258 40.8938H15.8384V38.6021H21.9258V40.8938Z" fill="black"/>
<path d="M50.9845 44.2123H49.166V41.5741C49.166 41.1982 48.8613 40.8935 48.4854 40.8935C48.1094 40.8935 47.8048 41.1982 47.8048 41.5741V44.2119H29.4306V25.8377H35.5811V30.3978C35.5811 30.7826 35.7771 31.132 36.1053 31.3327C36.4335 31.5333 36.834 31.5482 37.1764 31.3728L38.6177 30.634L40.059 31.3728C40.2177 31.4541 40.3888 31.4945 40.5593 31.4945C40.757 31.4945 40.954 31.4403 41.1301 31.3326C41.4583 31.1319 41.6543 30.7824 41.6543 30.3977V25.8376H47.787C47.7968 25.8376 47.8048 25.8456 47.8048 25.8555V38.4823C47.8048 38.8582 48.1094 39.1629 48.4854 39.1629C48.8613 39.1629 49.166 38.8582 49.166 38.4823V25.8555C49.166 25.0951 48.5474 24.4765 47.787 24.4765H39.2983V6.11909C39.2983 5.35904 38.68 4.74072 37.9199 4.74072H19.5807C18.8204 4.74072 18.2017 5.35931 18.2017 6.11973V9.53181C18.2017 9.90766 18.5064 10.2124 18.8823 10.2124C19.2581 10.2124 19.5628 9.90766 19.5628 9.53181V6.11973C19.5628 6.10993 19.5708 6.10185 19.5807 6.10185H25.7133V10.6621C25.7133 11.0468 25.9093 11.3963 26.2376 11.5969C26.4139 11.7046 26.6108 11.7588 26.8083 11.7588C26.9789 11.7588 27.1501 11.7183 27.3087 11.637L28.75 10.8982L30.1912 11.6369C30.5336 11.8124 30.9341 11.7976 31.2623 11.5969C31.5907 11.3963 31.7867 11.0467 31.7867 10.662V6.10185H37.9199C37.9295 6.10185 37.9372 6.10957 37.9372 6.11909V24.4762H19.5628V12.6235C19.5628 12.2476 19.2581 11.9429 18.8823 11.9429C18.5064 11.9429 18.2017 12.2476 18.2017 12.6235V24.4766H9.71297C8.95264 24.4766 8.33396 25.0951 8.33396 25.8556V44.2123H6.51549C5.95552 44.2123 5.5 44.6678 5.5 45.2278V47.2037C5.5 47.7637 5.95552 48.2192 6.51549 48.2192H8.11618V50.0486C8.11618 50.7161 8.65927 51.2592 9.32677 51.2592H11.3067C11.9742 51.2592 12.5174 50.7161 12.5174 50.0486V48.2192H44.9827V50.0486C44.9827 50.7161 45.5258 51.2592 46.1934 51.2592H48.1732C48.8407 51.2592 49.3839 50.7161 49.3839 50.0486V48.2192H50.9846C51.5445 48.2192 52 47.7637 52 47.2037V45.2278C51.9999 44.6678 51.5444 44.2123 50.9845 44.2123ZM30.4256 10.2275L29.2497 9.62482C28.9368 9.46448 28.5633 9.46448 28.2502 9.62482L27.0745 10.2275V6.10185H30.4256V10.2275ZM36.9422 25.8377H40.2932V29.9634L39.1175 29.3607C38.8047 29.2002 38.4309 29.2001 38.1179 29.3607L36.9422 29.9634V25.8377ZM17.2067 25.8377H20.5577V29.9634L19.3819 29.3607C19.069 29.2002 18.6953 29.2002 18.3824 29.3607L17.2066 29.9634V25.8377H17.2067ZM9.69509 25.8555C9.69509 25.8457 9.70308 25.8376 9.71297 25.8376H15.8456V30.3977C15.8456 30.7825 16.0416 31.1319 16.3698 31.3326C16.6981 31.5332 17.0986 31.5483 17.441 31.3727L18.8823 30.6339L20.3235 31.3727C20.4822 31.454 20.6533 31.4944 20.8239 31.4944C21.0215 31.4944 21.2184 31.4402 21.3946 31.3325C21.7229 31.1319 21.9189 30.7823 21.9189 30.3977V25.8375H28.0694V44.2118H9.69509V25.8555ZM11.1562 49.8981H9.47731V48.2192H11.1562V49.8981ZM48.0227 49.8981H46.3438V48.2192H48.0227V49.8981ZM50.6388 46.8581H6.86113V45.5734H50.6388V46.8581Z" fill="black"/>
</svg>
