<svg width="20" height="16" viewBox="0 0 20 16" fill="none" xmlns="http://www.w3.org/2000/svg">
<path d="M12.892 14.7172C16.6019 14.7172 19.6093 11.7098 19.6093 8C19.6093 4.29018 16.6019 1.28278 12.892 1.28278C9.18221 1.28278 6.1748 4.29018 6.1748 8C6.1748 11.7098 9.18221 14.7172 12.892 14.7172Z" fill="#FFE57F"/>
<path d="M12.8921 13C15.6535 13 17.8921 10.7614 17.8921 8C17.8921 5.23858 15.6535 3 12.8921 3C10.1307 3 7.89209 5.23858 7.89209 8C7.89209 10.7614 10.1307 13 12.8921 13Z" fill="#FFC400"/>
<path d="M19.0509 4.44918C18.943 4.26242 18.7041 4.1984 18.5172 4.30633C18.3304 4.41426 18.2664 4.65317 18.3744 4.83996C18.9268 5.79621 19.2188 6.88895 19.2188 8C19.2188 11.4885 16.3807 14.3266 12.8922 14.3266C9.40367 14.3266 6.56559 11.4885 6.56559 8C6.56559 4.51149 9.40367 1.6734 12.8922 1.6734C14.0035 1.6734 15.0964 1.96551 16.0526 2.51805C16.2394 2.62614 16.4783 2.56203 16.5862 2.37528C16.6942 2.18852 16.6303 1.94957 16.4435 1.84164C15.3685 1.22051 14.1405 0.892151 12.8922 0.892151C11.0731 0.892151 9.41176 1.57934 8.15324 2.70735H3.75004C3.53434 2.70735 3.35941 2.88227 3.35941 3.09797C3.35941 3.31367 3.53434 3.4886 3.75004 3.4886H7.40363C6.98988 3.99106 6.64402 4.55125 6.37934 5.15485H4.28344C4.06773 5.15485 3.89281 5.32977 3.89281 5.54547C3.89281 5.76117 4.06773 5.9361 4.28344 5.9361H6.09027C5.92789 6.4702 5.82672 7.03063 5.7952 7.60938H2.4209C2.2052 7.60938 2.03027 7.7843 2.03027 8C2.03027 8.21571 2.2052 8.39063 2.4209 8.39063H5.79523C5.82672 8.96938 5.92793 9.52981 6.09031 10.0639H4.4141C4.1984 10.0639 4.02348 10.2388 4.02348 10.4545C4.02348 10.6702 4.1984 10.8452 4.4141 10.8452H6.37934C6.64402 11.4488 6.98988 12.0089 7.40363 12.5114H3.50785C3.29215 12.5114 3.11723 12.6863 3.11723 12.902C3.11723 13.1177 3.29215 13.2927 3.50785 13.2927H8.15328C9.4118 14.4207 11.0732 15.1079 12.8922 15.1079C16.8115 15.1079 20 11.9193 20 8C20 6.75192 19.6718 5.52403 19.0509 4.44918Z" fill="#212121"/>
<path d="M17.6426 3.64035C17.7426 3.64035 17.8425 3.60219 17.9188 3.52594L17.9232 3.5216C18.0757 3.36906 18.0757 3.12172 17.9232 2.96914C17.7706 2.81664 17.5233 2.81664 17.3707 2.96914L17.3664 2.97348C17.2138 3.12602 17.2138 3.37336 17.3664 3.52594C17.4427 3.60219 17.5426 3.64035 17.6426 3.64035Z" fill="#212121"/>
<path d="M7.50146 8C7.50146 10.9724 9.91967 13.3906 12.8921 13.3906C15.8645 13.3906 18.2827 10.9724 18.2827 8C18.2827 5.02758 15.8645 2.60938 12.8921 2.60938C9.91967 2.60938 7.50146 5.02758 7.50146 8ZM17.5015 8C17.5015 10.5416 15.4337 12.6094 12.8921 12.6094C10.3505 12.6094 8.28271 10.5416 8.28271 8C8.28271 5.4584 10.3505 3.39062 12.8921 3.39062C15.4337 3.39062 17.5015 5.4584 17.5015 8Z" fill="#212121"/>
<path d="M15.1702 7.07662V7.6943H12.64V9.64406C12.64 9.84747 12.6673 9.98887 12.7218 10.0682C12.7764 10.1476 12.8881 10.1873 13.0567 10.1873C13.1956 10.1873 13.3346 10.16 13.4735 10.1055C13.6124 10.0459 13.7389 9.96902 13.853 9.87476C13.9671 9.7805 14.0564 9.67135 14.1209 9.54732C14.1904 9.42329 14.2251 9.2943 14.2251 9.16034C14.2251 9.06608 14.1953 8.99166 14.1358 8.93709C14.0763 8.87755 13.9795 8.84778 13.8456 8.84778C13.7215 8.84778 13.6099 8.86019 13.5107 8.88499L13.4214 8.30453C13.5057 8.27972 13.5975 8.26236 13.6967 8.25244C13.8009 8.23755 13.9051 8.23011 14.0093 8.23011C14.2822 8.23011 14.5029 8.29709 14.6716 8.43104C14.8453 8.56003 14.9321 8.77088 14.9321 9.0636C14.9321 9.30174 14.875 9.52747 14.7609 9.74081C14.6468 9.94918 14.498 10.1327 14.3144 10.2915C14.1308 10.4503 13.9225 10.5743 13.6893 10.6636C13.4611 10.7479 13.2329 10.7901 13.0046 10.7901C12.8112 10.7901 12.6524 10.7678 12.5284 10.7231C12.4043 10.6785 12.3001 10.6189 12.2158 10.5445C12.1662 10.4949 12.1191 10.4379 12.0744 10.3734C12.0347 10.3089 12.0025 10.222 11.9777 10.1129C11.9578 9.99879 11.9479 9.84747 11.9479 9.65895V7.6943H11.2484V7.07662H15.1702ZM11.6725 5.21616C11.8263 5.21616 11.9578 5.236 12.067 5.27569C12.1811 5.31538 12.2753 5.37492 12.3498 5.4543C12.444 5.54856 12.516 5.67755 12.5656 5.84127C12.6152 6.00499 12.64 6.23569 12.64 6.53337V7.12871H11.9479V6.56313C11.9479 6.40437 11.9355 6.2729 11.9107 6.16871C11.8908 6.05957 11.8462 5.97771 11.7767 5.92313C11.7073 5.86856 11.6006 5.84127 11.4567 5.84127C11.3724 5.84127 11.2881 5.85368 11.2037 5.87848C11.1194 5.89833 11.0425 5.92065 10.973 5.94546L10.7498 5.40964C10.9085 5.34515 11.0598 5.29802 11.2037 5.26825C11.3525 5.23352 11.5088 5.21616 11.6725 5.21616Z" fill="#212121"/>
<path d="M2.39571 10.0639H0.902588C0.686885 10.0639 0.511963 10.2388 0.511963 10.4545C0.511963 10.6702 0.686885 10.8452 0.902588 10.8452H2.39571C2.61142 10.8452 2.78634 10.6702 2.78634 10.4545C2.78634 10.2388 2.61142 10.0639 2.39571 10.0639Z" fill="#212121"/>
<path d="M0.78125 8C0.78125 7.89727 0.739453 7.79648 0.666758 7.72383C0.594141 7.65113 0.493359 7.60938 0.390625 7.60938C0.287891 7.60938 0.187109 7.65113 0.114453 7.72383C0.0417969 7.79652 0 7.89727 0 8C0 8.10273 0.0417578 8.20352 0.114453 8.27613C0.187109 8.34883 0.287891 8.39062 0.390625 8.39062C0.493359 8.39062 0.594141 8.34883 0.666758 8.27613C0.739453 8.20352 0.78125 8.10273 0.78125 8Z" fill="#212121"/>
<path d="M0.902588 5.9361H2.39571C2.61142 5.9361 2.78634 5.76117 2.78634 5.54547C2.78634 5.32977 2.61142 5.15485 2.39571 5.15485H0.902588C0.686885 5.15485 0.511963 5.32977 0.511963 5.54547C0.511963 5.76117 0.686885 5.9361 0.902588 5.9361Z" fill="#212121"/>
</svg>
