<svg width="54" height="54" viewBox="0 0 54 54" fill="none" xmlns="http://www.w3.org/2000/svg">
<g opacity="0.8">
<path d="M3.89307 10.3286H50.1063V49.8836H3.89307V10.3286Z" fill="#E9EAEB"/>
<path d="M44.2397 10.3286H50.107V49.8836H44.2397V10.3286Z" fill="#B9BBC1"/>
<path d="M50.2681 10.3282H3.73193V3.83493C3.73193 3.58582 3.8309 3.3469 4.00705 3.17075C4.1832 2.99459 4.42212 2.89563 4.67124 2.89563H49.3288C49.5779 2.89563 49.8169 2.99459 49.993 3.17075C50.1692 3.3469 50.2681 3.58582 50.2681 3.83493V10.3282Z" fill="#FDC74F"/>
<path d="M49.3288 2.89563H44.4009V7.78379H50.2681V3.83493C50.2681 3.58582 50.1691 3.3469 49.993 3.17075C49.8168 2.99459 49.5779 2.89563 49.3288 2.89563Z" fill="#FCA629"/>
<path d="M3.89318 22.1029C1.7663 22.1029 0.0419922 20.3787 0.0419922 18.2519V15.1144H7.74427V18.2519C7.74437 20.3787 6.02007 22.1029 3.89318 22.1029Z" fill="#E60D28"/>
<path d="M11.5953 22.1029C9.46845 22.1029 7.74414 20.3787 7.74414 18.2519V15.1144H15.4464V18.2519C15.4465 20.3787 13.7222 22.1029 11.5953 22.1029Z" fill="#F2F2F2"/>
<path d="M19.2975 22.1029C17.1706 22.1029 15.4463 20.3787 15.4463 18.2519V15.1144H23.1486V18.2519C23.1487 20.3787 21.4244 22.1029 19.2975 22.1029Z" fill="#E60D28"/>
<path d="M27.0001 22.1029C24.8732 22.1029 23.1489 20.3787 23.1489 18.2519V15.1144H30.8512V18.2519C30.8512 20.3787 29.127 22.1029 27.0001 22.1029Z" fill="#F2F2F2"/>
<path d="M34.7023 22.1029C32.5754 22.1029 30.8511 20.3787 30.8511 18.2519V15.1144H38.5534V18.2519C38.5535 20.3787 36.8291 22.1029 34.7023 22.1029Z" fill="#E60D28"/>
<path d="M42.4044 22.1029C40.2775 22.1029 38.5532 20.3787 38.5532 18.2519V15.1144H46.2555V18.2519C46.2556 20.3787 44.5313 22.1029 42.4044 22.1029Z" fill="#F2F2F2"/>
<path d="M50.1071 22.1029C47.9802 22.1029 46.2559 20.3787 46.2559 18.2519V15.1144H53.9581V18.2519C53.9582 20.3787 52.2339 22.1029 50.1071 22.1029Z" fill="#E60D28"/>
<path d="M7.74427 15.1143H0.0419922L3.72802 7.78381H10.3772L7.74427 15.1143Z" fill="#FC502A"/>
<path d="M15.4464 15.1143H7.74414L10.3771 7.78381H17.0261L15.4464 15.1143Z" fill="white"/>
<path d="M23.1486 15.1143H15.4463L17.026 7.78381H23.6752L23.1486 15.1143Z" fill="#FC502A"/>
<path d="M30.8512 15.1143H23.1489L23.6755 7.78381H30.3247L30.8512 15.1143Z" fill="white"/>
<path d="M38.5535 15.1143H30.8512L30.3247 7.78381H36.9739L38.5535 15.1143Z" fill="#FC502A"/>
<path d="M46.2555 15.1143H38.5532L36.9736 7.78381H43.6227L46.2555 15.1143Z" fill="white"/>
<path d="M53.9581 15.1143H46.2559L43.623 7.78381H50.2722L53.9581 15.1143Z" fill="#FC502A"/>
<path d="M52.2411 46.2693H1.7589C0.787535 46.2693 0 47.0568 0 48.0283V50.6058C0 50.738 0.0525257 50.8648 0.146022 50.9583C0.239519 51.0518 0.366327 51.1044 0.498551 51.1044H53.5013C53.6336 51.1044 53.7604 51.0518 53.8539 50.9583C53.9474 50.8648 53.9999 50.738 53.9999 50.6058V48.0283C54 47.0568 53.2125 46.2693 52.2411 46.2693Z" fill="#8B8996"/>
<path d="M52.2411 46.2693H48.1147V51.1044H53.5015C53.6337 51.1044 53.7605 51.0518 53.854 50.9583C53.9475 50.8648 54 50.738 54 50.6058V48.0283C54 47.0568 53.2125 46.2693 52.2411 46.2693Z" fill="#706F7F"/>
<path d="M45.5549 41.0998H21.8337C21.6478 41.0998 21.4695 41.026 21.3381 40.8945C21.2067 40.7631 21.1328 40.5848 21.1328 40.399V27.346C21.1328 27.1602 21.2067 26.9819 21.3381 26.8505C21.4695 26.719 21.6478 26.6452 21.8337 26.6452H45.5549C45.7408 26.6452 45.9191 26.719 46.0505 26.8505C46.1819 26.9819 46.2558 27.1602 46.2558 27.346V40.3991C46.2558 40.5849 46.1819 40.7632 46.0505 40.8946C45.919 41.026 45.7408 41.0998 45.5549 41.0998Z" fill="#00C6C8"/>
<path d="M45.5551 26.6452H40.3706V41.0998H45.5551C45.741 41.0998 45.9193 41.026 46.0507 40.8945C46.1821 40.7631 46.256 40.5848 46.256 40.399V27.346C46.256 27.1602 46.1821 26.9819 46.0507 26.8505C45.9193 26.719 45.741 26.6452 45.5551 26.6452Z" fill="#0FB0C0"/>
<path d="M17.8013 46.2694H6.97852V27.346C6.97852 27.1602 7.05235 26.9819 7.18379 26.8505C7.31522 26.719 7.49348 26.6452 7.67936 26.6452H17.1005C17.1925 26.6452 17.2836 26.6633 17.3687 26.6986C17.4537 26.7338 17.5309 26.7854 17.596 26.8505C17.6611 26.9156 17.7127 26.9928 17.7479 27.0778C17.7832 27.1629 17.8013 27.254 17.8013 27.346V46.2694Z" fill="#00C6C8"/>
<path d="M17.1001 26.6452H11.9155V46.2694H17.8008V27.346C17.8008 27.254 17.7827 27.1629 17.7475 27.0778C17.7123 26.9928 17.6607 26.9155 17.5956 26.8504C17.5305 26.7854 17.4533 26.7337 17.3683 26.6985C17.2832 26.6633 17.1921 26.6452 17.1001 26.6452Z" fill="#0FB0C0"/>
<path d="M14.7768 37.7299C14.9929 37.7299 15.2001 37.644 15.353 37.4912C15.5058 37.3384 15.5916 37.1311 15.5916 36.915V35.4483C15.5916 35.2322 15.5058 35.0249 15.353 34.8721C15.2001 34.7193 14.9929 34.6334 14.7768 34.6334C14.5607 34.6334 14.3534 34.7193 14.2006 34.8721C14.0478 35.0249 13.9619 35.2322 13.9619 35.4483V36.915C13.9619 37.022 13.983 37.128 14.0239 37.2269C14.0649 37.3257 14.1249 37.4156 14.2005 37.4912C14.2762 37.5669 14.3661 37.6269 14.4649 37.6679C14.5638 37.7088 14.6698 37.7299 14.7768 37.7299Z" fill="white"/>
</g>
</svg>
