<svg width="100" height="90" viewBox="0 0 100 90" fill="none" xmlns="http://www.w3.org/2000/svg">
<g clip-path="url(#clip0_691_3460)">
<path d="M76.8433 79.5674C76.8433 81.5881 75.3233 82.9714 73.4392 82.9714C71.5551 82.9714 70.026 81.5881 70.026 79.5674C70.026 77.5466 71.5459 76.1358 73.4392 76.1358C75.3325 76.1358 76.8433 77.5283 76.8433 79.5674ZM76.17 79.5674C76.17 77.8741 75.005 76.7458 73.4392 76.7458C71.8734 76.7458 70.6993 77.8749 70.6993 79.5674C70.6993 81.2598 71.9009 82.3614 73.4392 82.3614C74.9775 82.3614 76.17 81.2331 76.17 79.5674ZM75.0417 80.2865C74.8417 80.869 74.3225 81.3698 73.4309 81.3698C72.3293 81.3698 71.7193 80.6507 71.7193 79.4765C71.7193 78.3024 72.3834 77.6108 73.4576 77.6108C74.3225 77.6108 74.8408 78.1116 75.0142 78.7665L74.3317 78.9574C74.2134 78.4482 73.8584 78.1841 73.4309 78.1841C72.8759 78.1841 72.4659 78.5941 72.4659 79.4765C72.4659 80.359 72.8759 80.7873 73.4309 80.7873C73.8317 80.7873 74.2134 80.614 74.35 80.104L75.0417 80.2865Z" fill="black"/>
<path d="M97.5101 47.9026C100.546 52.8149 100.823 58.9555 98.2442 64.122C95.6568 69.2818 90.582 72.7492 84.828 73.2667C79.0815 73.7842 73.4667 71.2893 69.9985 66.6628H29.9973C26.5374 71.2893 20.9218 73.7842 15.1678 73.2667C9.41385 72.7492 4.33902 69.281 1.75911 64.122C-0.820809 58.9547 -0.549984 52.8141 2.48491 47.9026C5.52815 42.9902 10.888 40.0012 16.6661 40.0012H50.0017L44.9968 46.6668H54.999L50.0017 40.0012H83.3372C89.107 40.0012 94.4752 42.9902 97.5101 47.9026ZM65.0012 59.998L60.0038 53.3324H39.9995L35.0022 59.998H65.0012Z" fill="#FFC801"/>
<path d="M33.3339 73.3292H66.6694C66.6694 77.7549 64.9086 81.9956 61.7879 85.1155C58.6597 88.2437 54.4198 89.997 50.0016 89.997C45.5835 89.997 41.3436 88.2437 38.2154 85.1155C35.0871 81.9948 33.3339 77.7549 33.3339 73.3292Z" fill="#FFC801"/>
<path d="M61.7879 4.8815C64.9161 8.00973 66.6694 12.2421 66.6694 16.6678C66.6694 21.0935 64.9161 25.3183 61.7879 28.4541C58.6522 31.5823 54.4273 33.3356 50.0016 33.3356C45.576 33.3356 41.3436 31.5823 38.2154 28.4466C35.0871 25.3183 33.3339 21.0935 33.3339 16.6678C33.3339 12.2421 35.0871 8.00973 38.2154 4.8815C41.3436 1.75328 45.576 0 50.0016 0C54.4273 0 58.6522 1.75328 61.7879 4.8815Z" fill="#FFC801"/>
</g>
<defs>
<clipPath id="clip0_691_3460">
<rect width="100" height="89.997" fill="white"/>
</clipPath>
</defs>
</svg>
