<svg width="40" height="40" viewBox="0 0 40 40" fill="none" xmlns="http://www.w3.org/2000/svg">
<path d="M37.6921 9.075C36.3307 9.06984 35.6505 7.4225 36.6146 6.45843C37.284 5.78906 37.284 4.70382 36.6146 4.03445L35.9377 3.3575C35.2684 2.6882 34.2073 2.72156 33.5355 3.38836C32.5693 4.34734 30.9235 3.66343 30.9235 2.30007C30.9235 1.35343 30.1561 0.58609 29.2095 0.58609H28.2893C27.3427 0.58609 26.5753 1.35351 26.5753 2.30007C26.5753 3.66562 24.9243 4.34945 23.9588 3.3839C23.2894 2.71453 22.2042 2.71453 21.5348 3.3839L20.8842 4.03453C20.2148 4.7039 20.2148 5.78914 20.8842 6.45851C21.8482 7.42257 21.168 9.06992 19.8068 9.07508C18.8602 9.07867 18.0864 9.80531 18.0864 10.7519V11.7093C18.0864 12.6559 18.8538 13.4233 19.8003 13.4233C21.1659 13.4233 21.8497 15.0743 20.8842 16.0398C20.2148 16.7092 20.2148 17.7945 20.8842 18.4638L21.5348 19.1144C22.2042 19.7838 23.2894 19.7838 23.9588 19.1144C24.9243 18.1489 26.5753 18.8327 26.5753 20.1983C26.5753 21.1449 27.3428 21.9123 28.2894 21.9123H29.2096C30.1562 21.9123 30.9236 21.1449 30.9236 20.1984C30.9236 18.8328 32.5746 18.149 33.5401 19.1145C34.2095 19.7839 35.2947 19.7839 35.9641 19.1145L36.6147 18.4639C37.2841 17.7945 37.2841 16.7093 36.6147 16.0399C35.6507 15.0759 36.3309 13.4285 37.6921 13.4234C38.6387 13.4198 39.4125 12.6931 39.4125 11.7466V10.7519C39.4125 9.80523 38.6386 9.07859 37.6921 9.075ZM29.0487 15.8487C26.2671 16.0245 23.974 13.7312 24.1498 10.9498C24.2947 8.65586 26.1561 6.79461 28.45 6.64961C31.2315 6.47382 33.5246 8.76703 33.3489 11.5485C33.2039 13.8424 31.3425 15.7037 29.0487 15.8487Z" fill="#8C9BA6"/>
<path d="M37.6921 9.075C36.3308 9.06984 35.6505 7.4225 36.6147 6.45844C37.284 5.78906 37.284 4.70383 36.6147 4.03445L35.9377 3.3575C35.2684 2.6882 34.2073 2.72156 33.5355 3.38836C32.5694 4.34726 30.9235 3.66344 30.9235 2.3C30.9235 1.35336 30.1561 0.586014 29.2095 0.586014H28.2894C27.8644 0.586014 27.4758 0.741014 27.1764 0.997108C31.4929 2.40523 34.6123 6.46258 34.6123 11.2492C34.6123 16.0359 31.4929 20.0932 27.1764 21.5013C27.4759 21.7574 27.8644 21.9123 28.2894 21.9123H29.2095C30.1562 21.9123 30.9235 21.1449 30.9235 20.1984C30.9235 18.8328 32.5745 18.149 33.5401 19.1145C34.2094 19.7839 35.2947 19.7839 35.964 19.1145L36.6147 18.4639C37.284 17.7945 37.284 16.7093 36.6147 16.0399C35.6506 15.0759 36.3308 13.4284 37.6921 13.4234C38.6387 13.4198 39.4125 12.6931 39.4125 11.7466V10.752C39.4125 9.80523 38.6387 9.07859 37.6921 9.075Z" fill="#7C8B96"/>
<path d="M19.1915 25.0035C18.6681 24.9356 18.2763 24.4904 18.2763 23.9627V19.1621H10.9415V23.9627C10.9415 24.4904 10.5497 24.9356 10.0263 25.0035C10.0263 25.0035 8.65248 29.6267 14.6089 29.6267C20.5653 29.6267 19.1915 25.0035 19.1915 25.0035Z" fill="#FFECE3"/>
<path d="M13.476 19.1621V25.9901C13.476 26.5178 13.8678 26.963 14.3912 27.0309C15.4662 27.1705 17.3047 27.4423 18.8931 27.8419C19.648 26.5403 19.1915 25.0035 19.1915 25.0035C18.6681 24.9356 18.2763 24.4904 18.2763 23.9627V19.1621H13.476Z" fill="#FFDDCE"/>
<path d="M21.5602 12.4644H21.1165V11.9434V10.698C21.1165 8.93953 20.3946 7.23555 19.0621 6.08812C18.0174 5.18851 16.5488 4.40336 14.6089 4.38172C12.669 4.40336 11.2004 5.18851 10.1557 6.08812C8.8231 7.23547 8.10122 8.93945 8.10122 10.698V11.9434V12.4644H7.65755C7.00708 12.4644 6.47974 12.9917 6.47974 13.6422V14.9473C6.47974 15.5978 7.00708 16.1252 7.65755 16.1252H8.10302C8.13974 17.8345 8.85802 19.4798 10.1558 20.5972C11.2005 21.4967 12.669 22.282 14.609 22.3036C16.5489 22.282 18.0174 21.4968 19.0622 20.5972C20.3599 19.4798 21.0782 17.8345 21.1149 16.1252H21.5604C22.2108 16.1252 22.7382 15.5978 22.7382 14.9473V13.6422C22.738 12.9917 22.2107 12.4644 21.5602 12.4644Z" fill="#FFECE3"/>
<path d="M21.5602 12.4644H21.1165V11.9434V10.698C21.1165 8.93953 20.3946 7.23555 19.0621 6.08813C18.3524 5.47703 17.4469 4.91906 16.3313 4.61703L16.3302 16.1252C16.2935 17.8345 15.5752 19.4798 14.2775 20.5972C13.7156 21.0809 13.031 21.5314 12.2166 21.848C12.9165 22.1202 13.7123 22.2935 14.609 22.3036C16.5489 22.282 18.0174 21.4967 19.0622 20.5972C20.3599 19.4798 21.0782 17.8345 21.1149 16.1252H21.5604C22.2108 16.1252 22.7382 15.5978 22.7382 14.9473V13.6422C22.738 12.9916 22.2107 12.4644 21.5602 12.4644Z" fill="#FFDDCE"/>
<path d="M26.1413 39.4141C27.5158 39.4141 28.6301 38.2998 28.6301 36.9252V31.0995C28.6301 29.0827 27.4431 27.2547 25.6006 26.4344C23.9233 25.6876 20.7525 25.2061 19.1915 25.0035L14.6089 27.8697L10.0263 25.0035C8.46536 25.2061 5.29458 25.6876 3.61724 26.4344C1.77474 27.2547 0.587708 29.0827 0.587708 31.0995V36.9252C0.587708 38.2998 1.702 39.4141 3.07654 39.4141H26.1413Z" fill="#F5F5F5"/>
<path d="M25.6006 26.4344C23.9232 25.6876 20.7524 25.2061 19.1914 25.0035L15.6617 27.2112C17.3103 27.465 19.5021 27.8839 20.8001 28.4618C22.6426 29.2821 23.8296 31.1101 23.8296 33.127V38.9527C23.8296 39.1105 23.8143 39.2645 23.7863 39.4141H26.1412C27.5157 39.4141 28.63 38.2998 28.63 36.9253V31.0995C28.6301 29.0827 27.4431 27.2547 25.6006 26.4344Z" fill="#E0E0E0"/>
<path d="M17.1433 3.99414H12.0279C11.094 3.99414 10.3005 4.59273 10.0091 5.42719C9.89983 5.74 9.60132 5.94672 9.26999 5.94672C8.07952 5.94672 7.11444 6.9118 7.11444 8.10227V12.597C7.11444 12.597 9.00585 12.5745 9.64561 13.2055C9.78014 13.3381 10.0073 13.2445 10.0073 13.0557V10.1009C10.0073 9.075 10.839 8.24336 11.8649 8.24336H11.8873C12.1946 8.24336 12.4986 8.29078 12.7891 8.38227C13.342 8.55641 13.9144 8.66078 14.494 8.66078H14.7236C15.3032 8.66078 15.8757 8.55641 16.4285 8.38227C16.719 8.29078 17.023 8.24336 17.3304 8.24336H17.3527C18.3787 8.24336 19.2103 9.07508 19.2103 10.1009V12.8416C19.2103 13.1184 19.4346 13.3427 19.7113 13.3427H19.7134C20.1381 13.3427 20.5507 13.2192 20.9169 13.0042C21.4901 12.6678 22.1032 12.597 22.1032 12.597V8.95422C22.1033 6.21484 19.8826 3.99414 17.1433 3.99414Z" fill="#616161"/>
<path d="M17.1433 3.99414H16.3313L16.3309 8.41125C16.3635 8.40148 16.3962 8.39242 16.4287 8.38219C16.7192 8.2907 17.0232 8.24328 17.3305 8.24328H17.3529C18.3788 8.24328 19.2105 9.075 19.2105 10.1009V12.8416C19.2105 13.1183 19.4348 13.3426 19.7115 13.3426H19.7136C20.1383 13.3426 20.5509 13.2191 20.9171 13.0041C21.4902 12.6677 22.1034 12.597 22.1034 12.597V8.95414C22.1034 6.21484 19.8827 3.99414 17.1433 3.99414Z" fill="#424242"/>
<path d="M8.6034 27.0166L11.2372 29.2773C11.6164 29.6027 12.1691 29.6263 12.5746 29.3343L14.6089 27.8697L10.0263 25.0035C9.77293 25.0364 9.47715 25.0766 9.15223 25.1241C8.2334 25.2585 7.89879 26.4118 8.6034 27.0166Z" fill="#E0E0E0"/>
<path d="M20.6144 27.0166L17.9805 29.2773C17.6014 29.6027 17.0487 29.6263 16.6431 29.3343L14.6089 27.8697L19.1915 25.0035C19.4448 25.0364 19.7406 25.0766 20.0655 25.1241C20.9844 25.2585 21.319 26.4118 20.6144 27.0166Z" fill="#E0E0E0"/>
<path d="M14.6089 27.8697L12.5746 29.3344L13.5368 30.6859H15.6809L16.6431 29.3344L14.6089 27.8697Z" fill="#FFC400"/>
<path d="M16.8618 39.4141L15.6809 30.6859H13.5368L12.3559 39.4141H16.8618Z" fill="#FFC400"/>
<path d="M28.413 6.06484C25.8135 6.22906 23.7293 8.3132 23.565 10.9127C23.3674 14.0401 25.9496 16.6321 29.0857 16.4334C31.6851 16.2691 33.7692 14.185 33.9335 11.5855C34.1312 8.45867 31.5499 5.86617 28.413 6.06484ZM32.7642 11.5116C32.637 13.5236 31.0239 15.1367 29.0117 15.2639C26.5713 15.4166 24.5817 13.4041 24.7345 10.9866C24.8617 8.97453 26.4748 7.36141 28.4869 7.23422C30.9143 7.08156 32.9176 9.08235 32.7642 11.5116Z" fill="#212121"/>
<path d="M37.6944 8.48906C36.8499 8.48586 36.432 7.46977 37.029 6.87266C37.4635 6.43828 37.7027 5.8607 37.7027 5.24633C37.7027 4.63195 37.4635 4.05445 37.029 3.62008L36.352 2.94313C35.4584 2.04945 34.0399 2.06227 33.1229 2.97234C32.5235 3.56711 31.5095 3.1443 31.5095 2.29984C31.5094 1.03172 30.4777 0 29.2095 0H28.2893C27.0211 0 25.9894 1.03172 25.9894 2.29992C25.9894 3.14516 24.9724 3.56891 24.373 2.96945C23.9386 2.535 23.361 2.29578 22.7467 2.29578C22.1324 2.29578 21.5549 2.535 21.1205 2.96945L20.4699 3.62008C20.2912 3.79875 20.1456 4.00297 20.036 4.22437C19.1933 3.70703 18.2027 3.40812 17.1435 3.40812H12.0281C10.871 3.40812 9.83744 4.1418 9.45603 5.23383C9.42955 5.30969 9.35486 5.3607 9.27009 5.3607C7.75845 5.3607 6.52861 6.59055 6.52861 8.10219C6.52861 8.42578 6.79096 8.68805 7.11447 8.68805C7.43806 8.68805 7.70033 8.4257 7.70033 8.10219C7.70033 7.23664 8.40447 6.5325 9.27002 6.5325C9.85228 6.5325 10.3716 6.16594 10.5622 5.62023C10.7795 4.99797 11.3685 4.57992 12.028 4.57992H17.1434C19.5553 4.57992 21.5176 6.54219 21.5176 8.95406V12.1231C20.6103 12.378 20.4891 12.718 19.7965 12.7544V10.1008C19.7965 8.75344 18.7003 7.65727 17.353 7.65727H17.3306C16.3274 7.65727 15.9176 8.07469 14.7238 8.07469H14.4943C13.313 8.07469 12.8828 7.65727 11.8875 7.65727H11.8652C10.5178 7.65727 9.42166 8.75344 9.42166 10.1008V12.3849C8.86697 12.1502 8.1897 12.0615 7.70056 12.0288V10.8742C7.70056 10.5506 7.43822 10.2884 7.1147 10.2884C6.79111 10.2884 6.52884 10.5507 6.52884 10.8742V12.288C6.13064 12.6188 5.89416 13.1106 5.89416 13.642V14.9472C5.89416 15.8845 6.62916 16.6534 7.55306 16.7078C7.72869 18.4059 8.52017 19.9616 9.77369 21.041C9.96353 21.2045 10.1578 21.3563 10.3558 21.4982V23.9626C10.3558 24.1948 10.1819 24.3924 9.95119 24.4224C9.95111 24.4224 9.95127 24.4224 9.95119 24.4224C8.23517 24.6451 5.09939 25.133 3.379 25.8991C1.32744 26.8125 0.0018921 28.8538 0.0018921 31.0995V36.9252C0.00173585 38.6207 1.38103 40 3.07642 40H26.1413C27.8367 40 29.216 38.6207 29.216 36.9253V34.9467C29.216 34.6231 28.9537 34.3609 28.6302 34.3609C28.3067 34.3609 28.0443 34.6232 28.0443 34.9467V36.9253C28.0443 37.9746 27.1906 38.8282 26.1414 38.8282H24.636V35.6333C24.636 35.3097 24.3737 35.0474 24.0502 35.0474C23.7267 35.0474 23.4643 35.3098 23.4643 35.6333V38.8282H17.3739L16.2928 30.837L16.8413 30.0663C16.9839 30.105 17.1299 30.1255 17.276 30.1255C17.6636 30.1255 18.05 29.9898 18.3623 29.7218L20.9961 27.4611C21.4378 27.082 21.6436 26.5237 21.5617 25.962C22.9126 26.2063 24.4106 26.5457 25.3625 26.9695C26.9917 27.6949 28.0445 29.316 28.0445 31.0995V32.2088C28.0445 32.5323 28.3068 32.7946 28.6303 32.7946C28.9538 32.7946 29.2162 32.5323 29.2162 32.2088V31.0995C29.2162 28.8538 27.8906 26.8125 25.8391 25.8991C24.1187 25.1331 20.9831 24.6452 19.267 24.4224C19.0363 24.3924 18.8624 24.1948 18.8624 23.9626V21.4982C19.0603 21.3563 19.2546 21.2045 19.4445 21.041C20.0226 20.5432 20.501 19.9432 20.8674 19.2755L21.1205 19.5286C22.0193 20.4274 23.4742 20.4276 24.3731 19.5286C24.9708 18.9309 25.9895 19.3503 25.9895 20.1981C25.9895 21.4663 27.0212 22.498 28.2894 22.498H29.2095C30.4778 22.498 31.5095 21.4663 31.5095 20.1981C31.5095 19.3525 32.5268 18.9295 33.1259 19.5286C33.5603 19.963 34.1378 20.2023 34.7522 20.2023C35.3666 20.2023 35.9441 19.963 36.3785 19.5287L37.0291 18.878C37.9258 17.9813 37.9258 16.5222 37.0291 15.6255C36.432 15.0284 36.8501 14.0123 37.6945 14.0091C38.9865 14.0042 39.9985 13.0102 39.9985 11.7464V10.7518C39.9985 9.48789 38.9864 8.49399 37.6944 8.48906ZM15.3789 30.1H13.839L13.39 29.4693L14.609 28.5916L15.828 29.4693L15.3789 30.1ZM12.2324 28.8589C12.0458 28.9934 11.7935 28.9826 11.6189 28.8327L8.98502 26.572C8.76025 26.3791 8.81088 26.1293 8.83174 26.0573C8.85244 25.9859 8.94213 25.7516 9.22908 25.7055C9.47478 25.6694 9.69947 25.638 9.89416 25.612L13.5587 27.904L12.2324 28.8589ZM1.17353 36.9253V31.0995C1.17353 29.3161 2.22627 27.6951 3.85549 26.9696C4.80744 26.5458 6.30541 26.2064 7.65634 25.9621C7.57431 26.5237 7.78017 27.082 8.22181 27.4612L10.8557 29.7219C11.168 29.9899 11.5543 30.1255 11.942 30.1255C12.088 30.1255 12.234 30.1051 12.3766 30.0664L12.9252 30.837L11.844 38.8283H5.75361V35.6334C5.75361 35.3098 5.49127 35.0475 5.16775 35.0475C4.84424 35.0475 4.58189 35.3098 4.58189 35.6334V38.8283H3.07642C2.0272 38.8282 1.17353 37.9745 1.17353 36.9253ZM13.0264 38.8282L14.0488 31.2718H15.169L16.1913 38.8282H13.0264ZM20.3861 26.0573C20.407 26.1292 20.4575 26.3791 20.2327 26.572L17.5989 28.8327C17.4243 28.9824 17.172 28.9933 16.9855 28.8588L15.6592 27.9038L19.3237 25.6118C19.5184 25.6379 19.7431 25.6692 19.9889 25.7053C20.2757 25.7516 20.3654 25.9859 20.3861 26.0573ZM18.0743 25.0112L14.6089 27.1787L11.1435 25.0112C11.3832 24.7252 11.5274 24.3586 11.5274 23.9627V22.1904C13.4936 23.1223 15.7239 23.1224 17.6905 22.1904V23.9627C17.6905 24.3586 17.8346 24.7253 18.0743 25.0112ZM18.6799 20.1531C16.2606 22.2362 12.9578 22.2366 10.5381 20.1531C9.39689 19.1705 8.72291 17.6977 8.68885 16.1125C8.68205 15.7939 8.42181 15.5392 8.10314 15.5392H7.65767C7.33127 15.5392 7.06572 15.2737 7.06572 14.9473V13.6421C7.06572 13.4616 7.1483 13.2954 7.28564 13.1841C7.95963 13.1993 8.94299 13.3352 9.23431 13.6226C9.46463 13.8497 9.80595 13.9159 10.104 13.7913C10.4013 13.6669 10.5934 13.3781 10.5934 13.0556V10.1009C10.5934 9.39961 11.1638 8.82914 11.8651 8.82914C12.9424 8.90828 13.1942 9.24656 14.4942 9.24656H14.7238C16.0686 9.24656 16.577 8.82914 17.3306 8.82914H17.3529C18.0542 8.82914 18.6246 9.39961 18.6246 10.1009V12.8416C18.6246 13.4409 19.1122 13.9285 19.7136 13.9285C20.8224 13.9285 21.1219 13.4134 21.971 13.2173C22.0852 13.3271 22.1522 13.4791 22.1522 13.6422V14.9473C22.1522 15.2738 21.8867 15.5393 21.5603 15.5393H21.1148C20.7961 15.5393 20.5359 15.794 20.5291 16.1126C20.495 17.6978 19.821 19.1705 18.6799 20.1531ZM38.8267 11.7464C38.8267 12.3557 38.3274 12.8349 37.6899 12.8373C35.805 12.8445 34.8688 15.1225 36.2004 16.4541C36.6403 16.894 36.6403 17.6097 36.2004 18.0496L35.5498 18.7002C35.3367 18.9133 35.0535 19.0307 34.752 19.0307C34.4507 19.0307 34.1674 18.9134 33.9543 18.7002C32.6201 17.366 30.3376 18.3087 30.3376 20.1984C30.3376 20.8204 29.8315 21.3265 29.2095 21.3265H28.2893C27.6673 21.3265 27.1612 20.8204 27.1612 20.1984C27.1612 18.311 24.8804 17.3643 23.5444 18.7002C23.1035 19.1412 22.3899 19.1412 21.949 18.7002L21.3664 18.1177C21.5131 17.6644 21.6149 17.1923 21.665 16.708C22.5889 16.6536 23.3239 15.8848 23.3239 14.9474V13.6423C23.3239 13.1109 23.0874 12.6191 22.6892 12.2882V8.9543C22.6892 7.39531 22.0417 5.98547 21.0025 4.97687C21.0509 4.77797 21.1515 4.59555 21.2982 4.44883L21.9489 3.7982C22.162 3.58516 22.4452 3.46773 22.7466 3.46773C23.0479 3.46773 23.3313 3.58508 23.5443 3.7982C24.8786 5.13242 27.161 4.18977 27.161 2.30008C27.161 1.67805 27.6671 1.17195 28.2892 1.17195H29.2093C29.8313 1.17195 30.3374 1.67805 30.3374 2.30008C30.3374 4.1857 32.612 5.13023 33.9481 3.80422C34.4006 3.35531 35.0924 3.34102 35.5232 3.7718L36.2002 4.44883C36.4132 4.66188 36.5306 4.94516 36.5306 5.24648C36.5306 5.54781 36.4133 5.83117 36.2002 6.04422C34.8667 7.37758 35.8073 9.65383 37.6897 9.66094C38.3271 9.66336 38.8264 10.1426 38.8264 10.7519L38.8267 11.7464Z" fill="#212121"/>
</svg>
