<svg width="100" height="100" viewBox="0 0 100 100" fill="none" xmlns="http://www.w3.org/2000/svg">
<g clip-path="url(#clip0_689_4288)">
<path d="M93.4288 13.9956C93.3409 13.3647 93.0707 12.7732 92.6512 12.2938C92.2317 11.8144 91.6813 11.468 91.0676 11.2972L50.8758 0.119826C50.3028 -0.0396571 49.6972 -0.0396571 49.1242 0.119826L8.93248 11.2972C8.31872 11.4679 7.76823 11.8142 7.34872 12.2936C6.92921 12.7731 6.65898 13.3647 6.57126 13.9956C6.33814 15.6719 1.02006 55.278 14.6606 74.9808C28.285 94.6601 48.3839 99.7033 49.2327 99.9085C49.737 100.031 50.2631 100.031 50.7673 99.9085C51.6166 99.7033 71.7155 94.6601 85.3394 74.9808C98.98 55.2784 93.6619 15.6723 93.4288 13.9956ZM75.9185 37.1181L48.5037 64.5329C47.8658 65.1708 47.0292 65.4902 46.193 65.4902C45.3569 65.4902 44.5203 65.1712 43.8824 64.5329L26.932 47.5826C26.6285 47.2792 26.3876 46.919 26.2233 46.5225C26.059 46.126 25.9745 45.7011 25.9745 45.2719C25.9745 44.8427 26.059 44.4178 26.2233 44.0213C26.3876 43.6248 26.6285 43.2646 26.932 42.9612L30.2976 39.5956C30.9105 38.9829 31.7416 38.6386 32.6083 38.6386C33.475 38.6386 34.3061 38.9829 34.919 39.5956L46.193 50.8697L67.9316 29.1307C68.235 28.8271 68.5952 28.5863 68.9917 28.422C69.3881 28.2577 69.8131 28.1731 70.2423 28.1731C70.6714 28.1731 71.0964 28.2577 71.4929 28.422C71.8894 28.5863 72.2496 28.8271 72.553 29.1307L75.9185 32.4963C76.222 32.7998 76.4628 33.16 76.627 33.5565C76.7913 33.953 76.8758 34.378 76.8758 34.8072C76.8758 35.2364 76.7913 35.6613 76.627 36.0578C76.4628 36.4543 76.222 36.8146 75.9185 37.1181Z" fill="#3A3A3A"/>
</g>
<defs>
<clipPath id="clip0_689_4288">
<rect width="100" height="100" fill="white"/>
</clipPath>
</defs>
</svg>
