<svg width="48" height="48" viewBox="0 0 48 48" fill="none" xmlns="http://www.w3.org/2000/svg">
<path d="M38.2176 10.2704L32.1401 4.19298C31.7701 3.82302 31.2684 3.61523 30.7452 3.61523H7.8895C7.52634 3.61523 7.23193 3.90964 7.23193 4.2728V41.0969C7.23193 41.46 7.52634 41.7544 7.8895 41.7544H32.6133L38.7954 41.0969V11.6654C38.7954 11.1422 38.5876 10.6404 38.2176 10.2704Z" fill="#EEEEEE"/>
<path d="M34.1924 16.1091H31.5621C31.1989 16.1091 30.9045 16.4035 30.9045 16.7666V23.3424H34.85V16.7666C34.85 16.4035 34.5556 16.1091 34.1924 16.1091Z" fill="#71D88B"/>
<path d="M32.8773 20.0545V16.1091H31.5622C31.199 16.1091 30.9046 16.4035 30.9046 16.7666V23.3424H34.8501V21.3697H34.1925C33.4661 21.3697 32.8773 20.7809 32.8773 20.0545Z" fill="#34C759"/>
<path d="M21.0409 11.5061H18.4106C18.0474 11.5061 17.753 11.8006 17.753 12.1637V23.3424H21.6984V12.1637C21.6985 11.8005 21.4041 11.5061 21.0409 11.5061Z" fill="#FFE57F"/>
<path d="M19.7258 20.0545V11.5061H18.4107C18.0475 11.5061 17.7531 11.8005 17.7531 12.1636V23.3424H21.6986V21.3697H21.041C20.3146 21.3697 19.7258 20.7809 19.7258 20.0545Z" fill="#FFC400"/>
<path d="M12.4925 39.7817C10.6767 39.7817 9.20462 38.3097 9.20462 36.4939V3.61523H7.8895C7.52634 3.61523 7.23193 3.90964 7.23193 4.2728V41.0969C7.23193 41.46 7.52634 41.7544 7.8895 41.7544H38.1379C38.501 41.7544 38.7954 41.46 38.7954 41.0969V39.7817H12.4925Z" fill="#E0E0E0"/>
<path d="M14.4652 16.7667H11.8349C11.4717 16.7667 11.1773 17.0611 11.1773 17.4243V23.3424H15.1228V17.4243C15.1228 17.0611 14.8284 16.7667 14.4652 16.7667Z" fill="#1E88E5"/>
<path d="M13.1501 20.0545V16.7666H11.8349C11.4718 16.7666 11.1774 17.0611 11.1774 17.4242V23.3424H15.1228V21.3697H14.4653C13.7389 21.3697 13.1501 20.7809 13.1501 20.0545Z" fill="#1565C0"/>
<path d="M27.6167 19.397H24.9864C24.6232 19.397 24.3288 19.6914 24.3288 20.0545V23.3424H28.2743V20.0545C28.2743 19.6914 27.9798 19.397 27.6167 19.397Z" fill="#FF766E"/>
<path d="M26.3015 20.0545V19.397H24.9864C24.6232 19.397 24.3288 19.6914 24.3288 20.0545V23.3424H28.2743V21.3698H27.6167C26.8903 21.3697 26.3015 20.7809 26.3015 20.0545Z" fill="#FF3B30"/>
<path d="M39.453 44.3848C39.1165 44.3848 38.7797 44.2563 38.5232 43.9995L33.9201 39.3964C33.4064 38.883 33.4064 38.0502 33.9201 37.5367C34.4332 37.023 35.2668 37.023 35.7799 37.5367L40.3829 42.1397C40.8967 42.6532 40.8967 43.486 40.3829 43.9995C40.1263 44.2563 39.7895 44.3848 39.453 44.3848Z" fill="#B6B1B7"/>
<path d="M38.2176 10.2704L32.1401 4.19298C31.972 4.0249 31.7742 3.89537 31.5622 3.79849V10.1909C31.5622 10.5541 31.8566 10.8485 32.2197 10.8485H38.6123C38.5153 10.6364 38.3857 10.4386 38.2176 10.2704Z" fill="#E0E0E0"/>
<path d="M28.2743 37.1515C31.1796 37.1515 33.5348 34.7963 33.5348 31.8909C33.5348 28.9856 31.1796 26.6303 28.2743 26.6303C25.3689 26.6303 23.0137 28.9856 23.0137 31.8909C23.0137 34.7963 25.3689 37.1515 28.2743 37.1515Z" fill="#EEEEEE"/>
<path d="M28.2743 35.1788C30.0901 35.1788 31.5622 33.7068 31.5622 31.8909C31.5622 30.0751 30.0901 28.603 28.2743 28.603C26.4584 28.603 24.9864 30.0751 24.9864 31.8909C24.9864 33.7068 26.4584 35.1788 28.2743 35.1788Z" fill="white"/>
<path d="M40.3828 42.1397L36.8072 38.5642L34.9475 40.4239L38.5231 43.9995C38.7796 44.2563 39.1164 44.3848 39.4529 44.3848C39.7894 44.3848 40.1262 44.2563 40.3827 43.9995C40.8966 43.486 40.8966 42.6532 40.3828 42.1397Z" fill="#757575"/>
<path d="M36.1651 23.9577C36.5049 23.9577 36.7803 23.6822 36.7803 23.3424C36.7803 23.0027 36.5049 22.7272 36.1651 22.7272H35.4652V16.7667C35.4652 16.0649 34.8943 15.4939 34.1924 15.4939H31.5622C30.8603 15.4939 30.2894 16.0649 30.2894 16.7667V22.7272H28.8896V20.0545C28.8896 19.3527 28.3186 18.7817 27.6168 18.7817H24.9865C24.2847 18.7817 23.7137 19.3527 23.7137 20.0545V22.7272H22.3139V16.1092C22.3139 15.7694 22.0384 15.4939 21.6986 15.4939C21.3589 15.4939 21.0834 15.7694 21.0834 16.1092V22.7272H18.3684V12.1637C18.3684 12.1403 18.3874 12.1214 18.4107 12.1214H21.041C21.0644 12.1214 21.0833 12.1403 21.0833 12.1637V13.4789C21.0833 13.8187 21.3588 14.0942 21.6986 14.0942C22.0383 14.0942 22.3138 13.8187 22.3138 13.4789V12.1637C22.3138 11.4619 21.7428 10.8909 21.041 10.8909H18.4107C17.7089 10.8909 17.1379 11.4619 17.1379 12.1637V22.7272H15.7382V17.4243C15.7382 16.7224 15.1672 16.1515 14.4654 16.1515H11.8351C11.1333 16.1515 10.5623 16.7224 10.5623 17.4243V22.7272H9.86243C9.52265 22.7272 9.24719 23.0027 9.24719 23.3424C9.24719 23.6822 9.52265 23.9577 9.86243 23.9577H36.1651ZM31.5197 16.7667C31.5197 16.7434 31.5387 16.7244 31.5621 16.7244H34.1923C34.2157 16.7244 34.2346 16.7434 34.2346 16.7667V22.7272H31.5197V16.7667H31.5197ZM24.944 20.0545C24.944 20.0312 24.963 20.0122 24.9864 20.0122H27.6166C27.64 20.0122 27.6589 20.0312 27.6589 20.0545V22.7272H24.944V20.0545H24.944ZM11.7926 17.4243C11.7926 17.4009 11.8116 17.382 11.835 17.382H14.4652C14.4886 17.382 14.5075 17.4009 14.5075 17.4243V22.7272H11.7925V17.4243H11.7926Z" fill="#212121"/>
<path d="M32.2197 41.1393H7.8895C7.86612 41.1393 7.84717 41.1203 7.84717 41.097V4.2728C7.84717 4.24942 7.86612 4.23047 7.8895 4.23047H30.7451C30.8135 4.23047 30.8806 4.23711 30.9468 4.24696V10.191C30.9468 10.8929 31.5178 11.4638 32.2196 11.4638H38.1637C38.1735 11.5301 38.1801 11.5972 38.1801 11.6655V36.4939C38.1801 36.8337 38.4556 37.1092 38.7953 37.1092C39.1351 37.1092 39.4106 36.8337 39.4106 36.4939V11.6654C39.4106 10.9741 39.1414 10.3242 38.6526 9.83542L32.5751 3.75797C32.0863 3.26914 31.4363 3 30.7451 3H7.8895C7.18764 3 6.6167 3.57094 6.6167 4.2728V41.0969C6.6167 41.7987 7.18764 42.3697 7.8895 42.3697H32.2197C32.5595 42.3697 32.835 42.0942 32.835 41.7544C32.835 41.4147 32.5595 41.1393 32.2197 41.1393ZM37.3104 10.2333H32.2197C32.1963 10.2333 32.1774 10.2143 32.1774 10.1909V5.10033L37.3104 10.2333Z" fill="#212121"/>
<path d="M40.8179 41.7047L36.2152 37.102C35.8508 36.7372 35.3659 36.5363 34.85 36.5363C34.5468 36.5363 34.2545 36.6062 33.9909 36.7375L32.8389 35.5854C33.658 34.5753 34.1501 33.2898 34.1501 31.8909C34.1501 28.6509 31.5142 26.0151 28.2743 26.0151C25.0343 26.0151 22.3985 28.651 22.3985 31.8909C22.3985 35.1308 25.0344 37.7667 28.2743 37.7667C29.6731 37.7667 30.9587 37.2746 31.9688 36.4555L33.121 37.6076C32.9896 37.8712 32.9197 38.1635 32.9197 38.4666C32.9197 38.9824 33.1206 39.4671 33.4853 39.8315L38.088 44.4342C38.4523 44.799 38.9371 45 39.4531 45C39.9691 45 40.4539 44.7991 40.8179 44.4346C41.1826 44.0701 41.3835 43.5853 41.3835 43.0696C41.3835 42.5538 41.1824 42.0691 40.8179 41.7047ZM23.6289 31.8909C23.6289 29.3295 25.7128 27.2456 28.2742 27.2456C30.8357 27.2456 32.9196 29.3295 32.9196 31.8909C32.9196 34.4523 30.8357 36.5363 28.2742 36.5363C25.7127 36.5363 23.6289 34.4523 23.6289 31.8909ZM34.15 38.4666C34.15 38.2797 34.2229 38.104 34.3554 37.9715C34.4873 37.8394 34.663 37.7666 34.8499 37.7666C35.037 37.7666 35.2125 37.8394 35.3448 37.9717L35.9372 38.5642L34.9476 39.5538L34.355 38.9612C34.2228 38.8292 34.15 38.6535 34.15 38.4666ZM39.9475 43.5647C39.8156 43.6968 39.64 43.7695 39.453 43.7695C39.2659 43.7695 39.0904 43.6968 38.9581 43.5645L35.8177 40.4239L36.8073 39.4343L39.9479 42.5749C40.0801 42.707 40.1529 42.8827 40.1529 43.0696C40.1529 43.2564 40.0801 43.4322 39.9475 43.5647Z" fill="#212121"/>
<path d="M11.835 27.2455H13.1501C13.4899 27.2455 13.7653 26.97 13.7653 26.6302C13.7653 26.2905 13.4899 26.015 13.1501 26.015H11.835C11.4952 26.015 11.2197 26.2905 11.2197 26.6302C11.2197 26.97 11.4952 27.2455 11.835 27.2455Z" fill="#212121"/>
<path d="M11.835 29.8758H13.1501C13.4899 29.8758 13.7653 29.6004 13.7653 29.2606C13.7653 28.9208 13.4899 28.6453 13.1501 28.6453H11.835C11.4952 28.6453 11.2197 28.9208 11.2197 29.2606C11.2197 29.6004 11.4952 29.8758 11.835 29.8758Z" fill="#212121"/>
<path d="M22.3137 26.6302C22.3137 26.2905 22.0383 26.015 21.6985 26.015H15.7803C15.4406 26.015 15.1651 26.2905 15.1651 26.6302C15.1651 26.97 15.4406 27.2455 15.7803 27.2455H21.6985C22.0383 27.2455 22.3137 26.9701 22.3137 26.6302Z" fill="#212121"/>
<path d="M20.9986 29.2606C20.9986 28.9208 20.7231 28.6453 20.3834 28.6453H15.7803C15.4406 28.6453 15.1651 28.9208 15.1651 29.2606C15.1651 29.6004 15.4406 29.8758 15.7803 29.8758H20.3834C20.7231 29.8758 20.9986 29.6004 20.9986 29.2606Z" fill="#212121"/>
<path d="M11.835 35.1364H17.7531C18.0929 35.1364 18.3683 34.8609 18.3683 34.5212C18.3683 34.1814 18.0929 33.9059 17.7531 33.9059H11.835C11.4952 33.9059 11.2197 34.1814 11.2197 34.5212C11.2197 34.8609 11.4952 35.1364 11.835 35.1364Z" fill="#212121"/>
<path d="M11.835 32.5061H13.1501C13.4899 32.5061 13.7653 32.2307 13.7653 31.8909C13.7653 31.5511 13.4899 31.2757 13.1501 31.2757H11.835C11.4952 31.2757 11.2197 31.5511 11.2197 31.8909C11.2197 32.2307 11.4952 32.5061 11.835 32.5061Z" fill="#212121"/>
<path d="M20.341 31.8909C20.341 31.5511 20.0656 31.2757 19.7258 31.2757H15.7803C15.4406 31.2757 15.1651 31.5511 15.1651 31.8909C15.1651 32.2307 15.4406 32.5061 15.7803 32.5061H19.7258C20.0656 32.5061 20.341 32.2307 20.341 31.8909Z" fill="#212121"/>
<path d="M20.3834 9.49105C20.7231 9.49105 20.9986 9.21559 20.9986 8.87582C20.9986 8.53604 20.7231 8.26058 20.3834 8.26058H19.0682C18.7285 8.26058 18.453 8.53604 18.453 8.87582C18.453 9.21559 18.7285 9.49105 19.0682 9.49105H20.3834Z" fill="#212121"/>
<path d="M26.9591 17.382C27.2989 17.382 27.5743 17.1065 27.5743 16.7667C27.5743 16.427 27.2989 16.1515 26.9591 16.1515H25.644C25.3042 16.1515 25.0287 16.427 25.0287 16.7667C25.0287 17.1065 25.3042 17.382 25.644 17.382H26.9591Z" fill="#212121"/>
<path d="M13.8076 14.7516C14.1474 14.7516 14.4229 14.4762 14.4229 14.1364C14.4229 13.7966 14.1474 13.5212 13.8076 13.5212H12.4925C12.1527 13.5212 11.8773 13.7966 11.8773 14.1364C11.8773 14.4762 12.1527 14.7516 12.4925 14.7516H13.8076Z" fill="#212121"/>
<path d="M33.5349 14.0941C33.8746 14.0941 34.1501 13.8186 34.1501 13.4788C34.1501 13.1391 33.8746 12.8636 33.5349 12.8636H32.2197C31.88 12.8636 31.6045 13.1391 31.6045 13.4788C31.6045 13.8186 31.88 14.0941 32.2197 14.0941H33.5349Z" fill="#212121"/>
</svg>
