<svg width="48" height="48" viewBox="0 0 48 48" fill="none" xmlns="http://www.w3.org/2000/svg">
<path d="M12 11.2V9.6H9.7887C9.2512 9.59995 8.72433 9.45025 8.26711 9.16765C7.8099 8.88506 7.44039 8.48075 7.2 8L6.8426 8.7152C6.70969 8.98102 6.5054 9.20459 6.2526 9.36086C5.99981 9.51714 5.7085 9.59994 5.4113 9.6H4V11.2C4 13.409 5.791 15.2 8 15.2C10.209 15.2 12 13.409 12 11.2Z" fill="#FFDAAA"/>
<path d="M6.8426 8.7152L7.2 8C7.44039 8.48074 7.8099 8.88506 8.26711 9.16765C8.72433 9.45024 9.2512 9.59995 9.7887 9.6H12V8.8C12 7.0328 10.5672 5.6 8.8 5.6H7.2C5.4328 5.6 4 7.0328 4 8.8V9.6H5.4113C5.7085 9.59994 5.99981 9.51713 6.2526 9.36086C6.5054 9.20459 6.70969 8.98102 6.8426 8.7152Z" fill="#787680"/>
<path d="M10.4 16.8L8 22.4V32.8H14.4C14.3982 31.5942 14.6718 30.4039 15.2 29.32V21.6C15.2 18.9492 13.0508 16.8 10.4 16.8Z" fill="#00DDC2"/>
<path d="M5.6 16.8C2.9492 16.8 0.800003 18.9492 0.800003 21.6V32C0.800003 32.2122 0.884288 32.4157 1.03432 32.5657C1.18435 32.7157 1.38783 32.8 1.6 32.8H8V22.4L5.6 16.8Z" fill="#00CCB3"/>
<path d="M10.4 16.8H5.60001L8.00001 22.4L10.4 16.8Z" fill="#FFC477"/>
<path d="M44 11.2V9.6H41.7887C41.2512 9.59995 40.7243 9.45025 40.2671 9.16765C39.8099 8.88506 39.4404 8.48075 39.2 8L38.8426 8.7152C38.7097 8.98102 38.5054 9.20459 38.2526 9.36086C37.9998 9.51714 37.7085 9.59994 37.4113 9.6H36V11.2C36 13.409 37.791 15.2 40 15.2C42.209 15.2 44 13.409 44 11.2Z" fill="#FFDAAA"/>
<path d="M38.8426 8.7152L39.2 8C39.4404 8.48074 39.8099 8.88506 40.2671 9.16765C40.7243 9.45024 41.2512 9.59995 41.7887 9.6H44V8.8C44 7.0328 42.5672 5.6 40.8 5.6H39.2C37.4328 5.6 36 7.0328 36 8.8V9.6H37.4113C37.7085 9.59994 37.9998 9.51713 38.2526 9.36086C38.5054 9.20459 38.7097 8.98102 38.8426 8.7152Z" fill="#787680"/>
<path d="M37.6 16.8C34.9492 16.8 32.8 18.9492 32.8 21.6V29.32C33.3282 30.4039 33.6018 31.5942 33.6 32.8H40V22.4L37.6 16.8Z" fill="#00CCB3"/>
<path d="M42.4 16.8L40 22.4V32.8H46.4C46.6122 32.8 46.8157 32.7157 46.9657 32.5657C47.1157 32.4157 47.2 32.2122 47.2 32V21.6C47.2 18.9492 45.0508 16.8 42.4 16.8Z" fill="#00DDC2"/>
<path d="M42.4 16.8H37.6L40 22.4L42.4 16.8Z" fill="#FFC477"/>
<path d="M28.8 18.4V16.8H24L23.2 15.2L21.6 16.8H19.2V18.4C19.2 21.0508 21.3492 23.2 24 23.2C26.6508 23.2 28.8 21.0508 28.8 18.4Z" fill="#FFDAAA"/>
<path d="M23.2 15.2L24 16.8H28.8C28.8 14.1492 26.6508 12 24 12C21.3492 12 19.2 14.1492 19.2 16.8H21.6L23.2 15.2Z" fill="#787680"/>
<path d="M19.1121 25.5121C17.4042 26.2867 16.0205 27.6336 15.2 29.32C14.6718 30.4039 14.3982 31.5942 14.4 32.8V41.6C14.4 41.8122 14.4843 42.0157 14.6343 42.1657C14.7843 42.3157 14.9878 42.4 15.2 42.4H24V30.4L19.1121 25.5121Z" fill="#5AAAE7"/>
<path d="M24 30.4L28.8879 25.5121C27.8552 25.043 26.7342 24.8002 25.6 24.8H22.4C21.2654 24.7995 20.1438 25.0418 19.1105 25.5105L24 30.4Z" fill="#FFC477"/>
<path d="M32.8 29.32C31.9803 27.6333 30.5971 26.2858 28.8895 25.5105L24 30.4V42.4H32.8C33.0122 42.4 33.2157 42.3157 33.3657 42.1657C33.5157 42.0157 33.6 41.8122 33.6 41.6V32.8C33.6018 31.5942 33.3282 30.4039 32.8 29.32Z" fill="#3D9AE2"/>
<path d="M12.8 11.2V8.8C12.7973 6.5918 11.0082 4.8027 8.8 4.8H7.2C4.9918 4.8027 3.2027 6.5918 3.2 8.8V11.2C3.2 13.8508 5.3492 16 8 16C10.6508 16 12.8 13.8508 12.8 11.2ZM7.2 6.4H8.8C10.1254 6.4 11.2 7.4746 11.2 8.8H9.7887C9.40021 8.80079 9.01925 8.6928 8.68897 8.48825C8.35869 8.28369 8.09228 7.99076 7.9199 7.6426C7.846 7.5186 7.74116 7.41591 7.61565 7.3446C7.49013 7.27329 7.34825 7.2358 7.2039 7.2358C7.05954 7.2358 6.91766 7.27329 6.79215 7.3446C6.66664 7.41591 6.5618 7.5186 6.4879 7.6426L6.1305 8.3574C6.06437 8.49135 5.96182 8.60393 5.8346 8.68222C5.70738 8.7605 5.56067 8.80133 5.4113 8.8H4.8C4.8 7.4746 5.8746 6.4 7.2 6.4ZM8 14.4C6.2328 14.4 4.8 12.9672 4.8 11.2V10.4H5.4113C5.78068 10.4015 6.14533 10.317 6.47644 10.1533C6.80755 9.98954 7.09604 9.75103 7.3191 9.4566C7.99672 10.0666 8.87695 10.4029 9.7887 10.4H11.2V11.2C11.2 12.9672 9.7672 14.4 8 14.4ZM11.2 21.6H12.8V23.2H11.2V21.6ZM44.8 11.2V8.8C44.7973 6.5918 43.0082 4.8027 40.8 4.8H39.2C36.9918 4.8027 35.2027 6.5918 35.2 8.8V11.2C35.2 13.8508 37.3492 16 40 16C42.6508 16 44.8 13.8508 44.8 11.2ZM39.2 6.4H40.8C42.1254 6.4 43.2 7.4746 43.2 8.8H41.7887C41.4002 8.80079 41.0193 8.6928 40.689 8.48825C40.3587 8.28369 40.0923 7.99076 39.9199 7.6426C39.846 7.5186 39.7412 7.41591 39.6157 7.3446C39.4901 7.27329 39.3483 7.2358 39.2039 7.2358C39.0595 7.2358 38.9177 7.27329 38.7922 7.3446C38.6666 7.41591 38.5618 7.5186 38.4879 7.6426L38.1305 8.3574C38.0647 8.49075 37.9627 8.60294 37.8363 8.68119C37.7098 8.75944 37.5639 8.80061 37.4152 8.8H36.8C36.8 7.4746 37.8746 6.4 39.2 6.4ZM40 14.4C38.2328 14.4 36.8 12.9672 36.8 11.2V10.4H37.4113C37.7807 10.4015 38.1453 10.317 38.4764 10.1533C38.8076 9.98954 39.096 9.75103 39.3191 9.4566C39.9967 10.0666 40.877 10.4029 41.7887 10.4H43.2V11.2C43.2 12.9672 41.7672 14.4 40 14.4Z" fill="black"/>
<path d="M42.4 16H37.6C34.509 16.004 32.004 18.509 32 21.6V26.7816C31.1777 25.908 30.1863 25.211 29.086 24.7328C27.9857 24.2546 26.7997 24.0052 25.6 24H22.4C21.2003 24.0052 20.0143 24.2546 18.914 24.7328C17.8137 25.211 16.8223 25.908 16 26.7816V21.6C15.996 18.509 13.491 16.004 10.4 16H5.6C2.509 16.004 0.004 18.509 0 21.6V32C0 32.8836 0.7164 33.6 1.6 33.6H13.6V41.6C13.6 42.4836 14.3164 43.2 15.2 43.2H32.8C33.6836 43.2 34.4 42.4836 34.4 41.6V33.6H46.4C47.2836 33.6 48 32.8836 48 32V21.6C47.996 18.509 45.491 16.004 42.4 16ZM41.1863 17.6L40 20.3688L38.8137 17.6H41.1863ZM33.6 21.6C33.6063 19.5922 35.1023 17.9016 37.0945 17.6512L39.2 22.5602V32H34.3633C34.3633 31.9617 34.352 31.9238 34.348 31.8855C34.339 31.8055 34.3258 31.7258 34.3152 31.6457C34.2857 31.4246 34.248 31.2046 34.2023 30.9863C34.1832 30.8969 34.1648 30.8078 34.1433 30.7191C34.0824 30.4703 34.0109 30.2243 33.9289 29.9816C33.9152 29.9414 33.9055 29.9016 33.891 29.8617C33.8041 29.6176 33.707 29.3773 33.6 29.1414V21.6ZM25.6 25.6C26.2148 25.604 26.8266 25.6875 27.42 25.8488L24 29.2688L20.58 25.8488C21.1734 25.6875 21.7851 25.6039 22.4 25.6H25.6ZM14.4 21.6V29.1398C14.292 29.3753 14.1949 29.6157 14.109 29.8602C14.0953 29.8969 14.0855 29.9352 14.0734 29.9727C13.9902 30.2177 13.9179 30.4662 13.8566 30.7176C13.8356 30.8055 13.8162 30.8938 13.7984 30.9824C13.7519 31.2017 13.714 31.4227 13.6848 31.6449C13.6734 31.7246 13.6609 31.8047 13.652 31.8848C13.648 31.923 13.6398 31.9648 13.6367 32H8.8V22.5602L10.9055 17.648C12.8988 17.8984 14.3957 19.591 14.4 21.6ZM9.1863 17.6L8 20.3688L6.8137 17.6H9.1863ZM1.6 21.6C1.6063 19.5922 3.1023 17.9016 5.0945 17.6512L7.2 22.5602V32H1.6V21.6ZM15.2 32.8C15.2012 32.4969 15.2215 32.1941 15.261 31.8937C15.356 31.121 15.5784 30.3695 15.9191 29.6695C16.5819 28.3219 17.6481 27.2144 18.9695 26.5008L23.2 30.7312V41.6H15.2V32.8ZM32.8 41.6H24.8V30.7312L29.0305 26.5008C30.3514 27.2154 31.4172 28.3233 32.08 29.671C32.5563 30.6452 32.8026 31.7156 32.8 32.8V41.6ZM46.4 32H40.8V22.5602L42.9055 17.648C44.8988 17.8984 46.3957 19.591 46.4 21.6V32Z" fill="black"/>
<path d="M43.2 21.6H44.8V23.2H43.2V21.6ZM29.6 18.4V16.8C29.6 13.707 27.093 11.2 24 11.2C20.907 11.2 18.4 13.707 18.4 16.8V18.4C18.4 21.493 20.907 24 24 24C27.093 24 29.6 21.493 29.6 18.4ZM24 12.8C25.9 12.8023 27.5371 14.1387 27.92 16H24.4945L23.9199 14.8426C23.8632 14.7291 23.7804 14.6307 23.6781 14.5556C23.5759 14.4805 23.4572 14.4308 23.332 14.4106C23.2069 14.389 23.0784 14.3981 22.9576 14.4371C22.8368 14.4761 22.7272 14.5438 22.6383 14.6344L21.2687 16H20.0801C20.4629 14.1387 22.1 12.8023 24 12.8ZM24 22.4C21.7918 22.3973 20.0027 20.6082 20 18.4V17.6H21.6C21.8121 17.5999 22.0156 17.5156 22.1656 17.3656L22.9809 16.5504L23.2839 17.1574C23.3503 17.2904 23.4525 17.4023 23.579 17.4805C23.7055 17.5587 23.8513 17.6001 24 17.6H28V18.4C27.9973 20.6082 26.2082 22.3973 24 22.4ZM27.2 31.2H30.4V32.8H27.2V31.2Z" fill="black"/>
</svg>
