<svg width="48" height="48" viewBox="0 0 48 48" fill="none" xmlns="http://www.w3.org/2000/svg">
<path d="M5.87708 8.04509V41.2233C5.87708 41.9862 6.49526 42.6051 7.25817 42.6051H13.7869V6.66254H7.25817C6.49526 6.66254 5.87708 7.28145 5.87708 8.04436V8.04509Z" fill="#FF5959"/>
<path d="M13.7869 43.2829H7.25819C6.71231 43.2823 6.18895 43.0652 5.80296 42.6792C5.41696 42.2932 5.19986 41.7699 5.19928 41.224V8.04509C5.19966 7.49909 5.41669 6.97554 5.8027 6.58939C6.18872 6.20324 6.71218 5.98603 7.25819 5.98545H13.7869C14.1615 5.98545 14.4647 6.28873 14.4647 6.66327V42.6044C14.4647 42.6934 14.4472 42.7815 14.4131 42.8638C14.3791 42.946 14.3291 43.0207 14.2662 43.0837C14.2033 43.1466 14.1285 43.1965 14.0463 43.2306C13.9641 43.2646 13.8759 43.2829 13.7869 43.2829ZM7.25819 7.34182C7.07173 7.34201 6.89296 7.41617 6.76111 7.54801C6.62927 7.67986 6.55511 7.85863 6.55492 8.04509V41.2233C6.55492 41.6116 6.87055 41.9265 7.25819 41.9265H13.1091V7.34182H7.25819Z" fill="black"/>
<path d="M33.2727 43.2829H13.784C13.695 43.2829 13.6068 43.2654 13.5246 43.2313C13.4424 43.1972 13.3676 43.1473 13.3047 43.0844C13.2418 43.0214 13.1918 42.9467 13.1578 42.8645C13.1237 42.7822 13.1062 42.6941 13.1062 42.6051V6.66182C13.1062 6.28727 13.4094 5.984 13.784 5.984H33.2742C34.1872 5.98496 35.0625 6.34808 35.7081 6.99368C36.3537 7.63928 36.7168 8.51462 36.7178 9.42764V12.1185C36.718 12.2593 36.6743 12.3966 36.5927 12.5113L28.2465 24.2582L28.1716 28.5353L32.1876 27.0553L35.4858 22.4102C35.5691 22.2929 35.6874 22.2052 35.8238 22.1596C35.9603 22.114 36.1076 22.1131 36.2446 22.1568C36.3816 22.2005 36.5012 22.2867 36.586 22.4028C36.6708 22.519 36.7164 22.6591 36.7164 22.8029V39.8451C36.7146 40.7572 36.3512 41.6314 35.7057 42.2759C35.0603 42.9204 34.1848 43.2825 33.2727 43.2829ZM14.4611 41.9265H33.2734C33.826 41.9265 34.356 41.7074 34.7473 41.3173C35.1386 40.9271 35.3592 40.3977 35.3607 39.8451V24.928L33.168 28.016C33.0733 28.1486 32.9342 28.2428 32.776 28.2815L27.7113 30.1505C27.6079 30.1881 27.4969 30.2 27.3879 30.1852C27.2788 30.1704 27.175 30.1294 27.0853 30.0657C26.9957 30.002 26.9228 29.9174 26.873 29.8193C26.8231 29.7213 26.7978 29.6126 26.7993 29.5025L26.8938 24.0371C26.8936 23.8964 26.9374 23.7591 27.0189 23.6444L35.3607 11.9025V9.42764C35.36 8.87429 35.1398 8.34383 34.7485 7.95256C34.3573 7.56129 33.8268 7.34113 33.2734 7.34036H14.4611V41.9265ZM5.87708 17.7491C3.53527 17.7491 1.62836 16.184 1.62836 14.2604C1.62836 12.3367 3.53454 10.7716 5.87708 10.7716C8.21963 10.7716 10.1258 12.3367 10.1258 14.2604C10.1258 14.4401 10.0544 14.6125 9.92728 14.7397C9.80017 14.8668 9.62776 14.9382 9.44799 14.9382C9.26822 14.9382 9.09582 14.8668 8.9687 14.7397C8.84159 14.6125 8.77017 14.4401 8.77017 14.2604C8.77017 13.0844 7.47199 12.128 5.87708 12.128C4.28217 12.128 2.98472 13.0844 2.98472 14.2604C2.98472 15.4364 4.28217 16.3927 5.87636 16.3927C6.05613 16.3927 6.22853 16.4641 6.35565 16.5913C6.48276 16.7184 6.55417 16.8908 6.55417 17.0705C6.55417 17.2503 6.48276 17.4227 6.35565 17.5498C6.22853 17.677 6.05613 17.7484 5.87636 17.7484L5.87708 17.7491ZM5.87708 28.1229C3.53527 28.1229 1.62836 26.5578 1.62836 24.6342C1.62836 22.7105 3.53454 21.1455 5.87708 21.1455C8.21963 21.1455 10.1258 22.7105 10.1258 24.6342C10.1258 24.814 10.0544 24.9864 9.92728 25.1135C9.80017 25.2406 9.62776 25.312 9.44799 25.312C9.26822 25.312 9.09582 25.2406 8.9687 25.1135C8.84159 24.9864 8.77017 24.814 8.77017 24.6342C8.77017 23.4582 7.47199 22.5018 5.87708 22.5018C4.28217 22.5018 2.98472 23.4582 2.98472 24.6342C2.98472 25.8102 4.28217 26.7673 5.87708 26.7673C6.05685 26.7673 6.22926 26.8387 6.35637 26.9658C6.48349 27.0929 6.5549 27.2653 6.5549 27.4451C6.5549 27.6249 6.48349 27.7973 6.35637 27.9244C6.22926 28.0515 6.05685 28.1229 5.87708 28.1229ZM5.87708 38.496C3.53527 38.496 1.62836 36.9309 1.62836 35.008C1.62836 33.0851 3.53454 31.52 5.87708 31.52C8.21963 31.52 10.1258 33.0851 10.1258 35.008C10.1258 35.1878 10.0544 35.3602 9.92728 35.4873C9.80017 35.6144 9.62776 35.6858 9.44799 35.6858C9.26822 35.6858 9.09582 35.6144 8.9687 35.4873C8.84159 35.3602 8.77017 35.1878 8.77017 35.008C8.77017 33.832 7.47199 32.8756 5.87708 32.8756C4.28217 32.8756 2.98472 33.832 2.98472 35.008C2.98472 36.184 4.28217 37.1404 5.87708 37.1404C6.05685 37.1404 6.22926 37.2118 6.35637 37.3389C6.48349 37.466 6.5549 37.6384 6.5549 37.8182C6.5549 37.9979 6.48349 38.1704 6.35637 38.2975C6.22926 38.4246 6.05685 38.496 5.87708 38.496Z" fill="black"/>
<path d="M27.4764 30.1927C27.3863 30.1927 27.2972 30.1748 27.2142 30.14C27.1312 30.1051 27.0559 30.0541 26.9929 29.9898C26.9298 29.9255 26.8802 29.8493 26.847 29.7657C26.8137 29.682 26.7975 29.5926 26.7993 29.5025L26.8938 24.0524C26.8958 23.9288 26.9315 23.8081 26.9971 23.7034C27.0627 23.5986 27.1556 23.5138 27.2659 23.4581C27.3763 23.4024 27.4997 23.3779 27.6229 23.3873C27.7461 23.3966 27.8645 23.4395 27.9651 23.5113L32.9811 27.0771C33.0816 27.1486 33.1607 27.2462 33.2099 27.3593C33.259 27.4725 33.2765 27.5969 33.2602 27.7192C33.244 27.8414 33.1947 27.957 33.1177 28.0534C33.0407 28.1498 32.9389 28.2233 32.8233 28.2662L27.7113 30.1505C27.6363 30.1782 27.5563 30.1925 27.4764 30.1927ZM28.2269 25.3615L28.1716 28.5353L31.1484 27.4385L28.2269 25.3615ZM44.2007 11.9971C44.0602 11.9974 43.9231 11.9536 43.8087 11.872L38.7644 8.28509C38.6182 8.18111 38.5192 8.02346 38.4891 7.84666C38.459 7.66986 38.5002 7.48832 38.6036 7.34182L39.8102 5.63345C40.5062 4.65382 41.8742 4.424 42.8618 5.11709L45.448 6.95709C45.6827 7.1214 45.8825 7.33075 46.0355 7.57298C46.1886 7.8152 46.292 8.08545 46.3396 8.368C46.389 8.65164 46.3815 8.94227 46.3174 9.22296C46.2534 9.50365 46.1341 9.76878 45.9665 10.0029L44.7542 11.712C44.6915 11.8003 44.6085 11.8723 44.5121 11.9219C44.4158 11.9715 44.309 11.9973 44.2007 11.9971ZM40.1011 7.57309L44.0407 10.3738L44.8611 9.21745C44.9246 9.12908 44.97 9.02896 44.9946 8.92291C45.0191 8.81686 45.0223 8.70698 45.0041 8.59967C44.9858 8.49236 44.9464 8.38974 44.8881 8.29779C44.8299 8.20583 44.7539 8.12636 44.6647 8.064L42.0793 6.224C41.899 6.09654 41.6758 6.04536 41.458 6.08159C41.2403 6.11781 41.0456 6.23851 40.9164 6.41745L40.1011 7.57309Z" fill="black"/>
<path d="M44.2007 11.3193L36.0393 22.8029L32.6153 27.6225L32.5883 27.6298L30.08 25.8465L36.0393 17.4611L41.6793 9.52945L44.2007 11.3193Z" fill="#FD8D65"/>
<path d="M41.6793 9.52945L36.0393 17.4618L30.08 25.8473L27.5716 24.0647V24.0378L36.0393 12.12L39.1571 7.73454L41.6793 9.52945Z" fill="#FD8D65"/>
<path d="M32.6 28.3025C32.4562 28.3044 32.3151 28.2626 32.1956 28.1825L29.6873 26.4C29.6147 26.3484 29.5529 26.2831 29.5056 26.2077C29.4582 26.1322 29.4262 26.0482 29.4114 25.9604C29.3965 25.8726 29.3991 25.7828 29.419 25.696C29.4389 25.6092 29.4757 25.5271 29.5273 25.4545L41.1273 9.13745C41.1787 9.06479 41.2439 9.003 41.3193 8.95561C41.3947 8.90822 41.4786 8.87618 41.5664 8.86131C41.6542 8.84645 41.744 8.84906 41.8308 8.86899C41.9175 8.88892 41.9995 8.92578 42.072 8.97745L44.5942 10.7665C44.6668 10.8181 44.7285 10.8835 44.7759 10.9589C44.8232 11.0343 44.8552 11.1183 44.8701 11.2061C44.8849 11.2939 44.8823 11.3838 44.8625 11.4706C44.8426 11.5574 44.8058 11.6394 44.7542 11.712L33.1687 28.016C33.1046 28.1063 33.0195 28.1797 32.9206 28.2296C32.8217 28.2796 32.7122 28.3046 32.6014 28.3025H32.6ZM31.0254 25.6873L32.4436 26.6953L43.2553 11.4793L41.8393 10.4749L31.0254 25.6873Z" fill="black"/>
<path d="M30.08 26.5251C29.9392 26.5253 29.802 26.4815 29.6873 26.4L27.1796 24.6167C27.0913 24.5541 27.0193 24.4713 26.9695 24.3751C26.9198 24.2789 26.8938 24.1723 26.8938 24.064C26.8938 23.9229 26.9374 23.7585 27.0189 23.6444L38.6043 7.34036C38.6558 7.2675 38.7211 7.20552 38.7966 7.15801C38.8721 7.11049 38.9562 7.07838 39.0441 7.0635C39.1321 7.04863 39.2221 7.0513 39.309 7.07136C39.3959 7.09141 39.478 7.12846 39.5505 7.18036L42.072 8.97745C42.3774 9.19491 42.448 9.61745 42.232 9.92291L30.6327 26.2385C30.5701 26.3269 30.4872 26.3989 30.3911 26.4486C30.2949 26.4984 30.1882 26.5251 30.08 26.5251ZM28.504 23.8953L29.9207 24.9018L40.7338 9.68873L39.3163 8.67927L28.504 23.8953Z" fill="black"/>
<path d="M29.8065 14.9942H17.6465C17.5566 14.9943 17.4675 14.9766 17.3844 14.9423C17.3013 14.9079 17.2258 14.8576 17.1622 14.794C17.0985 14.7304 17.0481 14.655 17.0136 14.5719C16.9792 14.4888 16.9615 14.3998 16.9615 14.3098V10.6473C16.9615 10.2691 17.2684 9.96291 17.6465 9.96291H29.8065C30.1847 9.96291 30.4909 10.2691 30.4909 10.6473V14.3091C30.4909 14.6873 30.1847 14.9935 29.8073 14.9935L29.8065 14.9942Z" fill="#FF5959"/>
<path d="M29.8065 15.6727H17.6465C17.2852 15.6723 16.9388 15.5286 16.6832 15.2731C16.4277 15.0176 16.284 14.6712 16.2836 14.3098V10.6473C16.2836 9.896 16.8945 9.28509 17.6465 9.28509H29.8065C30.5578 9.28509 31.1687 9.896 31.1687 10.6473V14.3091C31.1687 15.0604 30.5578 15.6713 29.8065 15.6713V15.6727ZM17.6465 10.6415L17.6393 14.3098L29.8065 14.3164C29.8085 14.3164 29.8103 14.3156 29.8117 14.3142C29.813 14.3129 29.8138 14.311 29.8138 14.3091V10.648L17.6465 10.6415ZM23.9993 19.9353H16.9614C16.8724 19.9353 16.7843 19.9177 16.7021 19.8837C16.6198 19.8496 16.5451 19.7997 16.4822 19.7367C16.4192 19.6738 16.3693 19.5991 16.3352 19.5168C16.3012 19.4346 16.2836 19.3465 16.2836 19.2575C16.2836 19.1684 16.3012 19.0803 16.3352 18.9981C16.3693 18.9158 16.4192 18.8411 16.4822 18.7782C16.5451 18.7152 16.6198 18.6653 16.7021 18.6312C16.7843 18.5972 16.8724 18.5796 16.9614 18.5796H24C24.089 18.5796 24.1771 18.5972 24.2594 18.6312C24.3416 18.6653 24.4163 18.7152 24.4793 18.7782C24.5422 18.8411 24.5922 18.9158 24.6262 18.9981C24.6603 19.0803 24.6778 19.1684 24.6778 19.2575C24.6778 19.3465 24.6603 19.4346 24.6262 19.5168C24.5922 19.5991 24.5422 19.6738 24.4793 19.7367C24.4163 19.7997 24.3416 19.8496 24.2594 19.8837C24.1771 19.9177 24.0883 19.9353 23.9993 19.9353ZM23.9971 24.576H16.9614C16.7816 24.576 16.6091 24.5045 16.4819 24.3774C16.3547 24.2502 16.2833 24.0777 16.2833 23.8978C16.2833 23.718 16.3547 23.5455 16.4819 23.4183C16.6091 23.2911 16.7816 23.2196 16.9614 23.2196H23.9971C24.1769 23.2196 24.3494 23.2911 24.4766 23.4183C24.6038 23.5455 24.6753 23.718 24.6753 23.8978C24.6753 24.0777 24.6038 24.2502 24.4766 24.3774C24.3494 24.5045 24.1769 24.576 23.9971 24.576ZM23.9993 29.216H16.9614C16.7817 29.216 16.6093 29.1446 16.4822 29.0175C16.355 28.8904 16.2836 28.718 16.2836 28.5382C16.2836 28.3584 16.355 28.186 16.4822 28.0589C16.6093 27.9318 16.7817 27.8604 16.9614 27.8604H24C24.1798 27.8604 24.3522 27.9318 24.4793 28.0589C24.6064 28.186 24.6778 28.3584 24.6778 28.5382C24.6778 28.718 24.6064 28.8904 24.4793 29.0175C24.3522 29.1446 24.179 29.216 23.9993 29.216ZM32.5884 33.856H16.9614C16.8724 33.856 16.7843 33.8385 16.7021 33.8044C16.6198 33.7703 16.5451 33.7204 16.4822 33.6575C16.4192 33.5945 16.3693 33.5198 16.3352 33.4376C16.3012 33.3553 16.2836 33.2672 16.2836 33.1782C16.2836 33.0892 16.3012 33.001 16.3352 32.9188C16.3693 32.8366 16.4192 32.7618 16.4822 32.6989C16.5451 32.636 16.6198 32.586 16.7021 32.552C16.7843 32.5179 16.8724 32.5004 16.9614 32.5004H32.5891C32.6781 32.5004 32.7662 32.5179 32.8485 32.552C32.9307 32.586 33.0054 32.636 33.0684 32.6989C33.1313 32.7618 33.1812 32.8366 33.2153 32.9188C33.2494 33.001 33.2669 33.0892 33.2669 33.1782C33.2669 33.2672 33.2494 33.3553 33.2153 33.4376C33.1812 33.5198 33.1313 33.5945 33.0684 33.6575C33.0054 33.7204 32.9307 33.7703 32.8485 33.8044C32.7662 33.8385 32.6781 33.856 32.5891 33.856H32.5884ZM32.5884 38.496H16.9614C16.7817 38.496 16.6093 38.4246 16.4822 38.2975C16.355 38.1704 16.2836 37.998 16.2836 37.8182C16.2836 37.6384 16.355 37.466 16.4822 37.3389C16.6093 37.2118 16.7817 37.1404 16.9614 37.1404H32.5891C32.7689 37.1404 32.9413 37.2118 33.0684 37.3389C33.1955 37.466 33.2669 37.6384 33.2669 37.8182C33.2669 37.998 33.1955 38.1704 33.0684 38.2975C32.9413 38.4246 32.7689 38.496 32.5891 38.496H32.5884Z" fill="black"/>
</svg>
