<svg width="48" height="48" viewBox="0 0 48 48" fill="none" xmlns="http://www.w3.org/2000/svg">
<path d="M45.75 1.5H18.75C18.3375 1.5 18 1.8375 18 2.25V22.5H34.5V13.5H46.5V2.25C46.5 1.8375 46.1625 1.5 45.75 1.5Z" fill="#D3A06C"/>
<path d="M35.25 1.5V7.5L33.75 6L32.25 7.5L30.75 6L29.25 7.5V1.5H35.25Z" fill="#FCD770"/>
<path d="M34.5 22.5V13.5H46.5V26.25C46.5 26.6625 46.1625 27 45.75 27H43.5V22.5H34.5Z" fill="#E6E9ED"/>
<path d="M10.5 18V22.5H8.25001C7.80464 22.501 7.36902 22.3697 6.99844 22.1227C6.62786 21.8757 6.33904 21.5241 6.16866 21.1126C5.99828 20.7011 5.95402 20.2483 6.0415 19.8116C6.12899 19.3749 6.34427 18.9741 6.66001 18.66C7.06501 18.255 7.62751 18 8.25001 18H10.5Z" fill="#37BC9B"/>
<path d="M8.25 22.5H43.5V43.5H40.5V25.5H6V20.25C6 21.495 7.005 22.5 8.25 22.5Z" fill="#5CD6B3"/>
<path d="M40.5 43.5V46.5H1.5V25.5H40.5V43.5Z" fill="#37BC9B"/>
<path d="M8.25 28.5H21C16.86 28.5 13.5 31.86 13.5 36C13.5 40.14 16.86 43.5 21 43.5H8.25C8.25 41.43 6.57 39.75 4.5 39.75V32.25C6.57 32.25 8.25 30.57 8.25 28.5ZM37.5 32.25V39.75C35.43 39.75 33.75 41.43 33.75 43.5H21C25.14 43.5 28.5 40.14 28.5 36C28.5 31.86 25.14 28.5 21 28.5H33.75C33.75 30.57 35.43 32.25 37.5 32.25Z" fill="#5CD6B3"/>
<path d="M8.25 43.5H4.5V39.75C6.57 39.75 8.25 41.43 8.25 43.5ZM4.5 28.5H8.25C8.25 30.57 6.57 32.25 4.5 32.25V28.5ZM37.5 39.75V43.5H33.75C33.75 41.43 35.43 39.75 37.5 39.75ZM37.5 28.5V32.25C35.43 32.25 33.75 30.57 33.75 28.5H37.5Z" fill="#E6E9ED"/>
<path d="M21 43.5C25.1421 43.5 28.5 40.1421 28.5 36C28.5 31.8579 25.1421 28.5 21 28.5C16.8579 28.5 13.5 31.8579 13.5 36C13.5 40.1421 16.8579 43.5 21 43.5Z" fill="#FCD770"/>
<path d="M21.75 30.75H20.25V32.25H18.75V36.75H21.75V38.25H18.75V39.75H20.25V41.25H21.75V39.75H23.25V35.25H20.25V33.75H23.25V32.25H21.75V30.75Z" fill="black"/>
<path d="M38.25 44.25V27.75H3.75V44.25H38.25ZM34.6065 42.75C34.7408 42.2343 35.0102 41.7638 35.387 41.387C35.7638 41.0102 36.2343 40.7408 36.75 40.6065V42.75H34.6065ZM36.75 31.3935C36.2343 31.2592 35.7638 30.9898 35.387 30.613C35.0102 30.2362 34.7408 29.7657 34.6065 29.25H36.75V31.3935ZM33.0675 29.25C33.2245 30.1695 33.6631 31.0176 34.3228 31.6772C34.9824 32.3369 35.8305 32.7755 36.75 32.9325V39.0682C35.8305 39.2253 34.9824 39.6639 34.3228 40.3235C33.6631 40.9831 33.2245 41.8312 33.0675 42.7507H25.728C27.8542 41.256 29.25 38.79 29.25 36C29.25 33.21 27.8542 30.744 25.7288 29.25H33.0675ZM21 42.75C17.2778 42.75 14.25 39.7222 14.25 36C14.25 32.2778 17.2778 29.25 21 29.25C24.7222 29.25 27.75 32.2778 27.75 36C27.75 39.7222 24.7222 42.75 21 42.75ZM7.3935 29.25C7.25937 29.7657 6.98998 30.2363 6.61316 30.6132C6.23634 30.99 5.76575 31.2594 5.25 31.3935V29.25H7.3935ZM5.25 40.6065C5.76575 40.7406 6.23634 41.01 6.61316 41.3868C6.98998 41.7637 7.25937 42.2343 7.3935 42.75H5.25V40.6065ZM8.9325 42.75C8.77546 41.8305 8.33686 40.9824 7.67724 40.3228C7.01763 39.6631 6.16952 39.2245 5.25 39.0675V32.9325C6.16952 32.7755 7.01763 32.3369 7.67724 31.6772C8.33686 31.0176 8.77546 30.1695 8.9325 29.25H16.272C14.1457 30.744 12.75 33.21 12.75 36C12.75 38.79 14.1458 41.256 16.2712 42.75H8.9325Z" fill="black"/>
<path d="M45.75 0.75H18.75C17.9228 0.75 17.25 1.42275 17.25 2.25V21.75H11.25V17.25H8.25C6.5955 17.25 5.25 18.5955 5.25 20.25V24.75H0.75V47.25H41.25V44.25H44.25V27.75H45.75C46.5773 27.75 47.25 27.0772 47.25 26.25V2.25C47.25 1.42275 46.5773 0.75 45.75 0.75ZM30 2.25H34.5V5.6895L33.75 4.9395L32.25 6.4395L30.75 4.9395L30 5.6895V2.25ZM18.75 2.25H28.5V9.3105L30.75 7.0605L32.25 8.5605L33.75 7.0605L36 9.3105V2.25H45.75V12.75H33.75V21.75H18.75V2.25ZM8.25 18.75H9.75V21.75H8.25C7.42275 21.75 6.75 21.0772 6.75 20.25C6.75 19.4228 7.42275 18.75 8.25 18.75ZM39.75 45.75H2.25V26.25H39.75V45.75ZM42.75 42.75H41.25V24.75H6.75V22.833C7.20401 23.1029 7.72181 23.2469 8.25 23.25H42.75V42.75ZM44.25 26.25V21.75H35.25V14.25H45.75V26.25H44.25Z" fill="black"/>
<path d="M36.75 18.75H44.25V20.25H36.75V18.75ZM36.75 15.75H38.25V17.25H36.75V15.75ZM39.75 15.75H44.25V17.25H39.75V15.75Z" fill="black"/>
</svg>
