<svg width="100" height="100" viewBox="0 0 100 100" fill="none" xmlns="http://www.w3.org/2000/svg">
<path d="M97.3035 43.4951L97.2966 43.4883L56.5046 2.69785C54.7658 0.958008 52.454 0 49.9953 0C47.5363 0 45.2246 0.957422 43.4851 2.69707L2.7142 43.4668C2.70053 43.4805 2.68686 43.4949 2.67319 43.5088C-0.897515 47.0998 -0.891265 52.9264 2.69077 56.5084C4.3271 58.1457 6.48862 59.0939 8.79956 59.1932C8.89331 59.2023 8.98803 59.2068 9.08335 59.2068H10.7091V89.2264C10.7091 95.1668 15.5423 100 21.4841 100H37.4431C39.0607 100 40.3728 98.6885 40.3728 97.0703V73.5352C40.3728 70.8244 42.5779 68.6195 45.2886 68.6195H54.7017C57.4126 68.6195 59.6173 70.8246 59.6173 73.5352V97.0703C59.6173 98.6885 60.9289 100 62.547 100H78.5062C84.448 100 89.2812 95.1668 89.2812 89.2266V59.207H90.7888C93.247 59.207 95.5587 58.2496 97.299 56.5102C100.885 52.9221 100.886 47.0855 97.3035 43.4951Z" fill="#3A3A3A"/>
</svg>
