<svg width="48" height="48" viewBox="0 0 48 48" fill="none" xmlns="http://www.w3.org/2000/svg">
<g clip-path="url(#clip0_656_4239)">
<path d="M30.1339 41.0258L29.0001 36.2427H18.9999L17.8661 41.0258H30.1339Z" fill="#FFB125"/>
<path d="M24.7985 36.2427L25.9323 41.0258H30.1339L29.0001 36.2427H24.7985Z" fill="#EAA200"/>
<path d="M33.7453 43.8057H14.2547C14.131 43.8057 14.0123 43.7566 13.9248 43.6691C13.8373 43.5816 13.7882 43.4629 13.7882 43.3392V42.0874C13.7882 41.2496 14.4673 40.5705 15.3051 40.5705H32.6949C33.5327 40.5705 34.2118 41.2496 34.2118 42.0874V43.3392C34.2118 43.4005 34.1998 43.4612 34.1764 43.5178C34.1529 43.5744 34.1186 43.6258 34.0752 43.6691C34.0319 43.7125 33.9805 43.7468 33.9239 43.7703C33.8673 43.7937 33.8066 43.8057 33.7453 43.8057Z" fill="#FF6D3A"/>
<path d="M32.6949 40.5704H30.1338V41.9682C30.1338 42.0919 30.0846 42.2106 29.9972 42.2981C29.9097 42.3856 29.791 42.4347 29.6673 42.4347H13.7881V43.3392C13.7881 43.4629 13.8373 43.5816 13.9247 43.6691C14.0122 43.7566 14.1309 43.8057 14.2546 43.8057H33.7453C33.869 43.8057 33.9877 43.7566 34.0752 43.6691C34.1627 43.5816 34.2118 43.4629 34.2118 43.3392V42.0874C34.2119 41.2496 33.5327 40.5704 32.6949 40.5704Z" fill="#ED5729"/>
<path d="M44.4493 36.7891H3.55068C1.96696 36.7891 0.683151 35.5053 0.683151 33.9216V7.06181C0.683151 5.47809 1.96696 4.19428 3.55068 4.19428H44.4493C46.033 4.19428 47.3168 5.47809 47.3168 7.06181V33.9216C47.3168 35.5052 46.033 36.7891 44.4493 36.7891Z" fill="#61AFF6"/>
<path d="M44.4493 4.19428H40.3203C41.904 4.19428 43.1878 5.47809 43.1878 7.06181V32.8355C43.1878 33.7786 42.4233 34.5431 41.4802 34.5431L3.55068 34.5425C1.96696 34.5425 0.683151 33.2586 0.683151 31.6749V33.9217C0.683151 35.5054 1.96696 36.7892 3.55068 36.7892H44.4493C46.033 36.7892 47.3168 35.5054 47.3168 33.9217V7.06181C47.3168 5.47809 46.033 4.19428 44.4493 4.19428Z" fill="#55A2F0"/>
<path d="M3.59775 31.475V7.82419C3.59775 7.63448 3.67311 7.45254 3.80726 7.31839C3.94141 7.18424 4.12335 7.10888 4.31306 7.10888H43.6869C43.8766 7.10888 44.0586 7.18424 44.1927 7.31839C44.3269 7.45254 44.4022 7.63448 44.4022 7.82419V31.475C44.4022 31.6647 44.3269 31.8466 44.1927 31.9808C44.0586 32.1149 43.8766 32.1903 43.6869 32.1903H4.31306C4.21912 32.1903 4.12609 32.1718 4.03929 32.1359C3.9525 32.0999 3.87363 32.0473 3.8072 31.9808C3.74078 31.9144 3.68809 31.8355 3.65215 31.7487C3.61621 31.6619 3.59772 31.5689 3.59775 31.475Z" fill="white"/>
<path d="M43.6869 7.10897H40.2733V29.5641C40.2733 29.7538 40.1979 29.9357 40.0638 30.0699C39.9296 30.204 39.7477 30.2794 39.558 30.2794H3.59775V31.475C3.59775 31.6647 3.67311 31.8466 3.80726 31.9808C3.94141 32.1149 4.12335 32.1903 4.31306 32.1903H43.6869C43.8766 32.1903 44.0586 32.1149 44.1927 31.9808C44.3269 31.8466 44.4022 31.6647 44.4022 31.475V7.82419C44.4022 7.63449 44.3268 7.45257 44.1927 7.31845C44.0586 7.18432 43.8766 7.10897 43.6869 7.10897Z" fill="#CCDFED"/>
<path d="M13.4531 14.2588L16.1002 24.6375H31.9064C32.0631 24.6375 32.2154 24.5853 32.3392 24.4891C32.463 24.3929 32.5512 24.2583 32.5899 24.1064L34.8772 15.1383C34.991 14.6923 34.654 14.2585 34.1937 14.2585H13.4531V14.2588Z" fill="#FF4C4C"/>
<path d="M0.683158 28.2346C0.864342 28.2346 1.03811 28.1626 1.16622 28.0345C1.29434 27.9064 1.36631 27.7326 1.36631 27.5514V7.06181C1.36631 5.85731 2.34628 4.87734 3.55078 4.87734H36.6084C36.9857 4.87734 37.2915 4.57153 37.2915 4.19419C37.2915 3.81684 36.9857 3.51103 36.6084 3.51103H3.55069C1.59281 3.51113 1.65153e-06 5.10403 1.65153e-06 7.06181V27.5514C-1.06629e-05 27.6412 0.0176513 27.73 0.0519787 27.8129C0.0863062 27.8958 0.136627 27.9711 0.200066 28.0345C0.263505 28.098 0.338821 28.1483 0.421711 28.1826C0.504601 28.2169 0.593441 28.2346 0.683158 28.2346ZM3.55069 36.1059C2.34619 36.1059 1.36622 35.126 1.36622 33.9215V32.3333C1.36727 32.2429 1.35038 32.1532 1.31652 32.0694C1.28266 31.9856 1.23251 31.9093 1.16896 31.845C1.10542 31.7808 1.02975 31.7297 0.946347 31.6949C0.86294 31.6601 0.77345 31.6421 0.683064 31.6421C0.592677 31.6421 0.50319 31.6601 0.419787 31.6949C0.336385 31.7298 0.260725 31.7808 0.197192 31.8451C0.133659 31.9094 0.0835151 31.9857 0.0496663 32.0695C0.0158176 32.1533 -0.00106335 32.243 1.65153e-06 32.3333V33.9216C1.65153e-06 35.8794 1.59281 37.4723 3.55069 37.4723H18.0065L17.434 39.8873H15.3051C14.0919 39.8873 13.105 40.8743 13.105 42.0874V43.3392C13.105 43.9732 13.6208 44.4889 14.2547 44.4889H33.7453C34.3793 44.4889 34.895 43.9732 34.895 43.3392V42.0874C34.895 40.8743 33.9081 39.8873 32.6949 39.8873H30.566L29.9935 37.4723H44.4493C46.4072 37.4723 48 35.8794 48 33.9216V7.06181C48 5.10394 46.4072 3.51113 44.4493 3.51113H41.3903C41.3005 3.51113 41.2117 3.5288 41.1288 3.56313C41.0459 3.59746 40.9706 3.64778 40.9072 3.71122C40.8438 3.77465 40.7934 3.84997 40.7591 3.93285C40.7248 4.01573 40.7071 4.10457 40.7071 4.19428C40.7071 4.284 40.7248 4.37283 40.7591 4.45571C40.7934 4.5386 40.8438 4.61391 40.9072 4.67735C40.9706 4.74078 41.0459 4.7911 41.1288 4.82544C41.2117 4.85977 41.3005 4.87744 41.3903 4.87744H44.4493C45.6538 4.87744 46.6338 5.85741 46.6338 7.06191V33.9216C46.6338 35.1261 45.6538 36.106 44.4493 36.106L3.55069 36.1059ZM19.4106 37.4723H28.5894L29.1619 39.8873H18.8381L19.4106 37.4723ZM15.3051 41.2536H32.6949C33.1547 41.2536 33.5288 41.6276 33.5288 42.0874V43.1227H14.4713V42.0874C14.4713 41.6277 14.8453 41.2536 15.3051 41.2536Z" fill="black"/>
<path d="M2.9146 7.82419V31.475C2.9146 32.2461 3.54197 32.8734 4.31307 32.8734H43.6869C44.458 32.8734 45.0854 32.2461 45.0854 31.475V7.82419C45.0854 7.0531 44.458 6.42572 43.6869 6.42572H4.31307C3.54197 6.42581 2.9146 7.05319 2.9146 7.82419ZM43.7192 7.82419V31.475C43.7192 31.4928 43.7048 31.5072 43.6869 31.5072H4.31307C4.30451 31.5072 4.29631 31.5038 4.29026 31.4978C4.28421 31.4917 4.28082 31.4835 4.28082 31.475V7.82419C4.28082 7.80638 4.29525 7.79194 4.31307 7.79194H43.6869C43.7048 7.79203 43.7192 7.80656 43.7192 7.82419Z" fill="black"/>
<path d="M18.7786 23.4299C18.8827 23.43 18.9855 23.4062 19.0791 23.3605C19.1726 23.3147 19.2545 23.2482 19.3184 23.166C19.3823 23.0838 19.4266 22.9881 19.4478 22.8861C19.4691 22.7842 19.4668 22.6787 19.441 22.5778L17.7585 15.981C17.712 15.8074 17.5989 15.6591 17.4438 15.5683C17.2887 15.4775 17.104 15.4515 16.9298 15.4959C16.7557 15.5403 16.606 15.6516 16.5133 15.8056C16.4206 15.9596 16.3924 16.1439 16.4347 16.3186L18.1172 22.9154C18.1547 23.0624 18.24 23.1928 18.3598 23.2859C18.4795 23.3791 18.6269 23.4297 18.7786 23.4299ZM21.695 22.8044C21.7013 22.8947 21.7256 22.9829 21.7663 23.0638C21.807 23.1447 21.8634 23.2166 21.9322 23.2755C22.001 23.3344 22.0809 23.379 22.1671 23.4068C22.2533 23.4345 22.3441 23.4449 22.4343 23.4372C22.5246 23.4295 22.6124 23.404 22.6927 23.3621C22.7729 23.3202 22.8441 23.2627 22.9019 23.1931C22.9598 23.1234 23.0032 23.0429 23.0297 22.9563C23.0562 22.8697 23.0652 22.7787 23.0562 22.6886L22.4954 16.0918C22.4878 16.0024 22.4627 15.9154 22.4215 15.8357C22.3803 15.756 22.3237 15.6852 22.2552 15.6274C22.1866 15.5696 22.1073 15.5258 22.0218 15.4986C21.9363 15.4715 21.8462 15.4614 21.7568 15.469C21.5763 15.4844 21.4093 15.5708 21.2925 15.7093C21.1757 15.8478 21.1187 16.0271 21.1341 16.2076L21.695 22.8044ZM25.9144 23.4273C26.0949 23.4426 26.2741 23.3856 26.4126 23.2688C26.5511 23.152 26.6375 22.985 26.6528 22.8045L27.2137 16.2077C27.2273 16.0281 27.1695 15.8503 27.0528 15.7131C26.936 15.576 26.7698 15.4904 26.5904 15.4752C26.4109 15.4599 26.2326 15.5161 26.0944 15.6316C25.9562 15.7471 25.8692 15.9126 25.8523 16.0919L25.2915 22.6887C25.2762 22.8692 25.3332 23.0485 25.45 23.187C25.5668 23.3255 25.7339 23.4119 25.9144 23.4273ZM29.4 23.4085C29.4566 23.423 29.5134 23.4299 29.5693 23.4299C29.721 23.4297 29.8684 23.3791 29.9881 23.2859C30.1079 23.1928 30.1932 23.0624 30.2307 22.9154L31.9132 16.3186C31.9579 16.143 31.9311 15.9569 31.8386 15.8011C31.7461 15.6453 31.5956 15.5327 31.42 15.4879C31.2445 15.4432 31.0584 15.4701 30.9026 15.5625C30.7469 15.655 30.6342 15.8055 30.5893 15.981L28.9069 22.5778C28.8847 22.6647 28.8799 22.7552 28.8927 22.844C28.9054 22.9328 28.9356 23.0182 28.9814 23.0953C29.0272 23.1725 29.0877 23.2398 29.1595 23.2936C29.2314 23.3473 29.3131 23.3864 29.4 23.4085Z" fill="black"/>
<path d="M12.0548 11.539C12.0545 11.5378 12.0551 11.5404 12.0548 11.539L15.7873 26.174C15.7871 26.1731 15.7875 26.1748 15.7873 26.174C15.2451 26.6092 14.897 27.2768 14.897 28.0246C14.897 29.3328 15.9613 30.3971 17.2695 30.3971C18.4037 30.3971 19.354 29.597 19.587 28.5316H28.0926C28.3255 29.597 29.2759 30.3971 30.4101 30.3971C31.5443 30.3971 32.4946 29.597 32.7276 28.5316H33.3143C33.404 28.5316 33.4928 28.5139 33.5757 28.4796C33.6586 28.4453 33.7339 28.3949 33.7973 28.3315C33.8607 28.2681 33.911 28.1927 33.9453 28.1099C33.9797 28.027 33.9973 27.9381 33.9973 27.8484C33.9973 27.6673 33.9254 27.4935 33.7973 27.3654C33.6692 27.2373 33.4954 27.1653 33.3143 27.1653H32.6232C32.6149 27.1437 32.6048 27.1231 32.5959 27.1019V27.1018C32.4701 26.8024 32.284 26.5321 32.0491 26.3078C31.8142 26.0836 31.5356 25.9101 31.2307 25.7983L31.2144 25.7925C31.1612 25.7734 31.1072 25.7562 31.0527 25.741C31.0323 25.7352 31.0119 25.7293 30.9912 25.7242C30.9334 25.7097 30.875 25.6975 30.8163 25.6874C30.7997 25.6846 30.7833 25.6812 30.7666 25.6788C30.7024 25.6692 30.6379 25.6624 30.5731 25.6582C30.52 25.6544 30.4668 25.6524 30.4135 25.6522L30.4102 25.6521L30.4068 25.6522C30.3535 25.6524 30.3003 25.6545 30.2472 25.6582C30.1824 25.6625 30.1179 25.6694 30.0536 25.6788C30.037 25.6813 30.0207 25.6846 30.0042 25.6874C29.9701 25.6933 29.9362 25.6998 29.9026 25.7072C29.878 25.7124 29.8536 25.7181 29.8292 25.7242C29.8082 25.7295 29.7874 25.7355 29.7666 25.7414C29.7125 25.7565 29.6592 25.7735 29.6067 25.7923L29.5891 25.7986C29.2846 25.9103 29.0064 26.0835 28.7718 26.3073C28.5372 26.5312 28.3511 26.801 28.2252 27.0998L28.2237 27.1032C28.215 27.124 28.2052 27.1442 28.197 27.1653H19.4827C19.4743 27.1437 19.4644 27.1232 19.4555 27.1019L19.4554 27.1017C19.3296 26.8024 19.1435 26.5321 18.9086 26.3079C18.6738 26.0837 18.3952 25.9102 18.0904 25.7984L18.0735 25.7923C18.0205 25.7733 17.9668 25.7562 17.9125 25.7411C17.892 25.7353 17.8715 25.7294 17.8508 25.7242C17.7929 25.7097 17.7346 25.6975 17.6758 25.6874C17.6592 25.6846 17.6428 25.6812 17.6261 25.6788C17.5619 25.6692 17.4974 25.6624 17.4326 25.6582C17.3795 25.6544 17.3263 25.6524 17.2731 25.6522L17.2697 25.6521L17.2672 25.6522C17.2062 25.6522 17.146 25.6552 17.0862 25.6598C17.0797 25.6603 17.0731 25.6601 17.0665 25.6607L16.9798 25.3206H31.9065C32.2151 25.3207 32.5149 25.218 32.7585 25.0287C33.0022 24.8394 33.1758 24.5743 33.252 24.2752L35.5392 15.3072C35.5922 15.1023 35.5973 14.8879 35.5541 14.6806C35.511 14.4734 35.4207 14.2788 35.2902 14.1121C35.1609 13.9445 34.9947 13.809 34.8046 13.716C34.6145 13.6229 34.4055 13.5749 34.1938 13.5756H13.9842L13.9841 13.5753L13.2923 10.8631C13.2656 10.7583 13.2144 10.6614 13.143 10.5803C13.0715 10.4992 12.9818 10.4362 12.8813 10.3965L9.21581 8.94975C9.04782 8.88574 8.86137 8.89053 8.69689 8.96307C8.5324 9.03562 8.40314 9.17007 8.33713 9.33729C8.27112 9.5045 8.27369 9.691 8.34426 9.85633C8.41484 10.0217 8.54774 10.1525 8.71416 10.2205L12.0548 11.539ZM30.1051 27.0658C30.1079 27.065 30.1105 27.0638 30.1133 27.063C30.1402 27.0547 30.1675 27.048 30.1952 27.0419C30.2003 27.0408 30.2053 27.0393 30.2105 27.0382C30.2371 27.0329 30.2642 27.0291 30.2915 27.0259C30.2975 27.0251 30.3034 27.0239 30.3094 27.0233C30.3763 27.0167 30.4437 27.0167 30.5106 27.0233C30.5166 27.0239 30.5224 27.0251 30.5284 27.0259C30.5558 27.0291 30.5829 27.0329 30.6096 27.0383C30.6146 27.0394 30.6196 27.0408 30.6247 27.0419C30.6524 27.048 30.6799 27.0547 30.7068 27.0631L30.7148 27.0658C31.1211 27.1953 31.4164 27.576 31.4164 28.0247C31.4164 28.5796 30.965 29.031 30.4101 29.031C29.8552 29.031 29.4037 28.5796 29.4037 28.0247C29.4037 27.5761 29.6989 27.1955 30.1051 27.0658ZM17.1535 27.0256C17.1571 27.0251 17.1606 27.0244 17.1642 27.024C17.1942 27.0208 17.2246 27.0196 17.255 27.0191C17.2599 27.019 17.2647 27.0184 17.2697 27.0184C17.3036 27.0184 17.3372 27.0202 17.3703 27.0234C17.3763 27.024 17.3821 27.0252 17.3881 27.026C17.4155 27.0292 17.4427 27.033 17.4693 27.0384C17.4743 27.0395 17.4793 27.0409 17.4843 27.042C17.512 27.0481 17.5396 27.0548 17.5664 27.0632L17.5743 27.0658C17.9807 27.1952 18.2759 27.576 18.2759 28.0247C18.2759 28.5796 17.8245 29.031 17.2696 29.031C16.7147 29.031 16.2633 28.5796 16.2633 28.0247C16.2633 27.6186 16.5056 27.2687 16.8528 27.1099C16.8534 27.1096 16.8542 27.1094 16.8548 27.109C16.9495 27.066 17.0503 27.0378 17.1535 27.0256ZM34.1937 14.9419C34.1989 14.9419 34.2046 14.9419 34.2113 14.9505C34.2179 14.9591 34.2165 14.9647 34.2152 14.9697L31.928 23.9377C31.9267 23.9426 31.9239 23.9468 31.92 23.9499C31.9161 23.9529 31.9113 23.9545 31.9063 23.9545H16.6313L14.3326 14.9419H34.1937Z" fill="black"/>
</g>
<defs>
<clipPath id="clip0_656_4239">
<rect width="48" height="48" fill="white"/>
</clipPath>
</defs>
</svg>
