<svg width="48" height="48" viewBox="0 0 48 48" fill="none" xmlns="http://www.w3.org/2000/svg">
<path d="M36 7.5V18H12V7.5C12 6.675 12.675 6 13.5 6H34.5C35.325 6 36 6.675 36 7.5Z" fill="#E4E8EF"/>
<path d="M42 18V33C42 33.825 41.325 34.5 40.5 34.5H7.5C6.675 34.5 6 33.825 6 33V18C6 17.175 6.675 16.5 7.5 16.5H40.5C41.325 16.5 42 17.175 42 18Z" fill="#529DEF"/>
<path d="M36 25.5V40.5C36 41.325 35.325 42 34.5 42H13.5C12.675 42 12 41.325 12 40.5V25.5H36Z" fill="#E4E8EF"/>
<path d="M12 12.75C11.8011 12.75 11.6103 12.671 11.4697 12.5303C11.329 12.3897 11.25 12.1989 11.25 12V7.5C11.25 7.30109 11.329 7.11032 11.4697 6.96967C11.6103 6.82902 11.8011 6.75 12 6.75C12.1989 6.75 12.3897 6.82902 12.5303 6.96967C12.671 7.11032 12.75 7.30109 12.75 7.5V12C12.75 12.1989 12.671 12.3897 12.5303 12.5303C12.3897 12.671 12.1989 12.75 12 12.75ZM39 26.25H9C8.80109 26.25 8.61032 26.171 8.46967 26.0303C8.32902 25.8897 8.25 25.6989 8.25 25.5C8.25 25.3011 8.32902 25.1103 8.46967 24.9697C8.61032 24.829 8.80109 24.75 9 24.75H39C39.1989 24.75 39.3897 24.829 39.5303 24.9697C39.671 25.1103 39.75 25.3011 39.75 25.5C39.75 25.6989 39.671 25.8897 39.5303 26.0303C39.3897 26.171 39.1989 26.25 39 26.25Z" fill="#383838"/>
<path d="M36 41.25C35.8011 41.25 35.6103 41.171 35.4697 41.0303C35.329 40.8897 35.25 40.6989 35.25 40.5V25.5C35.25 25.3011 35.329 25.1103 35.4697 24.9697C35.6103 24.829 35.8011 24.75 36 24.75C36.1989 24.75 36.3897 24.829 36.5303 24.9697C36.671 25.1103 36.75 25.3011 36.75 25.5V40.5C36.75 40.6989 36.671 40.8897 36.5303 41.0303C36.3897 41.171 36.1989 41.25 36 41.25ZM12 41.25C11.8011 41.25 11.6103 41.171 11.4697 41.0303C11.329 40.8897 11.25 40.6989 11.25 40.5V25.5C11.25 25.3011 11.329 25.1103 11.4697 24.9697C11.6103 24.829 11.8011 24.75 12 24.75C12.1989 24.75 12.3897 24.829 12.5303 24.9697C12.671 25.1103 12.75 25.3011 12.75 25.5V40.5C12.75 40.6989 12.671 40.8897 12.5303 41.0303C12.3897 41.171 12.1989 41.25 12 41.25ZM36 17.25C35.8011 17.25 35.6103 17.171 35.4697 17.0303C35.329 16.8897 35.25 16.6989 35.25 16.5V7.5C35.25 7.30109 35.329 7.11032 35.4697 6.96967C35.6103 6.82902 35.8011 6.75 36 6.75C36.1989 6.75 36.3897 6.82902 36.5303 6.96967C36.671 7.11032 36.75 7.30109 36.75 7.5V16.5C36.75 16.6989 36.671 16.8897 36.5303 17.0303C36.3897 17.171 36.1989 17.25 36 17.25ZM6 33.75C5.80109 33.75 5.61032 33.671 5.46967 33.5303C5.32902 33.3897 5.25 33.1989 5.25 33V18C5.25 17.8011 5.32902 17.6103 5.46967 17.4697C5.61032 17.329 5.80109 17.25 6 17.25C6.19891 17.25 6.38968 17.329 6.53033 17.4697C6.67098 17.6103 6.75 17.8011 6.75 18V33C6.75 33.1989 6.67098 33.3897 6.53033 33.5303C6.38968 33.671 6.19891 33.75 6 33.75ZM42 33.75C41.8011 33.75 41.6103 33.671 41.4697 33.5303C41.329 33.3897 41.25 33.1989 41.25 33V18C41.25 17.8011 41.329 17.6103 41.4697 17.4697C41.6103 17.329 41.8011 17.25 42 17.25C42.1989 17.25 42.3897 17.329 42.5303 17.4697C42.671 17.6103 42.75 17.8011 42.75 18V33C42.75 33.1989 42.671 33.3897 42.5303 33.5303C42.3897 33.671 42.1989 33.75 42 33.75ZM37.5 21.75H34.5C34.3011 21.75 34.1103 21.671 33.9697 21.5303C33.829 21.3897 33.75 21.1989 33.75 21C33.75 20.8011 33.829 20.6103 33.9697 20.4697C34.1103 20.329 34.3011 20.25 34.5 20.25H37.5C37.6989 20.25 37.8897 20.329 38.0303 20.4697C38.171 20.6103 38.25 20.8011 38.25 21C38.25 21.1989 38.171 21.3897 38.0303 21.5303C37.8897 21.671 37.6989 21.75 37.5 21.75ZM13.5 21.75H10.5C10.3011 21.75 10.1103 21.671 9.96967 21.5303C9.82902 21.3897 9.75 21.1989 9.75 21C9.75 20.8011 9.82902 20.6103 9.96967 20.4697C10.1103 20.329 10.3011 20.25 10.5 20.25H13.5C13.6989 20.25 13.8897 20.329 14.0303 20.4697C14.171 20.6103 14.25 20.8011 14.25 21C14.25 21.1989 14.171 21.3897 14.0303 21.5303C13.8897 21.671 13.6989 21.75 13.5 21.75Z" fill="#383838"/>
<path d="M42 18.75C41.8011 18.75 41.6103 18.671 41.4697 18.5303C41.329 18.3897 41.25 18.1989 41.25 18C41.25 17.5868 40.914 17.25 40.5 17.25C40.3011 17.25 40.1103 17.171 39.9697 17.0303C39.829 16.8897 39.75 16.6989 39.75 16.5C39.75 16.3011 39.829 16.1103 39.9697 15.9697C40.1103 15.829 40.3011 15.75 40.5 15.75C41.7405 15.75 42.75 16.7595 42.75 18C42.75 18.1989 42.671 18.3897 42.5303 18.5303C42.3897 18.671 42.1989 18.75 42 18.75Z" fill="#383838"/>
<path d="M40.5 17.25H7.5C7.30109 17.25 7.11032 17.171 6.96967 17.0303C6.82902 16.8897 6.75 16.6989 6.75 16.5C6.75 16.3011 6.82902 16.1103 6.96967 15.9697C7.11032 15.829 7.30109 15.75 7.5 15.75H40.5C40.6989 15.75 40.8897 15.829 41.0303 15.9697C41.171 16.1103 41.25 16.3011 41.25 16.5C41.25 16.6989 41.171 16.8897 41.0303 17.0303C40.8897 17.171 40.6989 17.25 40.5 17.25Z" fill="#383838"/>
<path d="M6 18.75C5.80109 18.75 5.61032 18.671 5.46967 18.5303C5.32902 18.3897 5.25 18.1989 5.25 18C5.25 16.7595 6.2595 15.75 7.5 15.75C7.69891 15.75 7.88968 15.829 8.03033 15.9697C8.17098 16.1103 8.25 16.3011 8.25 16.5C8.25 16.6989 8.17098 16.8897 8.03033 17.0303C7.88968 17.171 7.69891 17.25 7.5 17.25C7.086 17.25 6.75 17.5868 6.75 18C6.75 18.1989 6.67098 18.3897 6.53033 18.5303C6.38968 18.671 6.19891 18.75 6 18.75ZM12 35.25H7.5C7.30109 35.25 7.11032 35.171 6.96967 35.0303C6.82902 34.8897 6.75 34.6989 6.75 34.5C6.75 34.3011 6.82902 34.1103 6.96967 33.9697C7.11032 33.829 7.30109 33.75 7.5 33.75H12C12.1989 33.75 12.3897 33.829 12.5303 33.9697C12.671 34.1103 12.75 34.3011 12.75 34.5C12.75 34.6989 12.671 34.8897 12.5303 35.0303C12.3897 35.171 12.1989 35.25 12 35.25Z" fill="#383838"/>
<path d="M7.5 35.25C6.2595 35.25 5.25 34.2405 5.25 33C5.25 32.8011 5.32902 32.6103 5.46967 32.4697C5.61032 32.329 5.80109 32.25 6 32.25C6.19891 32.25 6.38968 32.329 6.53033 32.4697C6.67098 32.6103 6.75 32.8011 6.75 33C6.75 33.4132 7.086 33.75 7.5 33.75C7.69891 33.75 7.88968 33.829 8.03033 33.9697C8.17098 34.1103 8.25 34.3011 8.25 34.5C8.25 34.6989 8.17098 34.8897 8.03033 35.0303C7.88968 35.171 7.69891 35.25 7.5 35.25ZM40.5 35.25C40.3011 35.25 40.1103 35.171 39.9697 35.0303C39.829 34.8897 39.75 34.6989 39.75 34.5C39.75 34.3011 39.829 34.1103 39.9697 33.9697C40.1103 33.829 40.3011 33.75 40.5 33.75C40.914 33.75 41.25 33.4132 41.25 33C41.25 32.8011 41.329 32.6103 41.4697 32.4697C41.6103 32.329 41.8011 32.25 42 32.25C42.1989 32.25 42.3897 32.329 42.5303 32.4697C42.671 32.6103 42.75 32.8011 42.75 33C42.75 34.2405 41.7405 35.25 40.5 35.25ZM31.5 39H16.5C16.3011 39 16.1103 38.921 15.9697 38.7803C15.829 38.6397 15.75 38.4489 15.75 38.25C15.75 38.0511 15.829 37.8603 15.9697 37.7197C16.1103 37.579 16.3011 37.5 16.5 37.5H31.5C31.6989 37.5 31.8897 37.579 32.0303 37.7197C32.171 37.8603 32.25 38.0511 32.25 38.25C32.25 38.4489 32.171 38.6397 32.0303 38.7803C31.8897 38.921 31.6989 39 31.5 39ZM31.5 30H16.5C16.3011 30 16.1103 29.921 15.9697 29.7803C15.829 29.6397 15.75 29.4489 15.75 29.25C15.75 29.0511 15.829 28.8603 15.9697 28.7197C16.1103 28.579 16.3011 28.5 16.5 28.5H31.5C31.6989 28.5 31.8897 28.579 32.0303 28.7197C32.171 28.8603 32.25 29.0511 32.25 29.25C32.25 29.4489 32.171 29.6397 32.0303 29.7803C31.8897 29.921 31.6989 30 31.5 30ZM31.5 34.5H16.5C16.3011 34.5 16.1103 34.421 15.9697 34.2803C15.829 34.1397 15.75 33.9489 15.75 33.75C15.75 33.5511 15.829 33.3603 15.9697 33.2197C16.1103 33.079 16.3011 33 16.5 33H31.5C31.6989 33 31.8897 33.079 32.0303 33.2197C32.171 33.3603 32.25 33.5511 32.25 33.75C32.25 33.9489 32.171 34.1397 32.0303 34.2803C31.8897 34.421 31.6989 34.5 31.5 34.5ZM34.5 6.75H13.5C13.3011 6.75 13.1103 6.67098 12.9697 6.53033C12.829 6.38968 12.75 6.19891 12.75 6C12.75 5.80109 12.829 5.61032 12.9697 5.46967C13.1103 5.32902 13.3011 5.25 13.5 5.25H34.5C34.6989 5.25 34.8897 5.32902 35.0303 5.46967C35.171 5.61032 35.25 5.80109 35.25 6C35.25 6.19891 35.171 6.38968 35.0303 6.53033C34.8897 6.67098 34.6989 6.75 34.5 6.75ZM34.5 42.75H13.5C13.3011 42.75 13.1103 42.671 12.9697 42.5303C12.829 42.3897 12.75 42.1989 12.75 42C12.75 41.8011 12.829 41.6103 12.9697 41.4697C13.1103 41.329 13.3011 41.25 13.5 41.25H34.5C34.6989 41.25 34.8897 41.329 35.0303 41.4697C35.171 41.6103 35.25 41.8011 35.25 42C35.25 42.1989 35.171 42.3897 35.0303 42.5303C34.8897 42.671 34.6989 42.75 34.5 42.75Z" fill="#383838"/>
<path d="M13.5 42.75C12.2595 42.75 11.25 41.7405 11.25 40.5C11.25 40.3011 11.329 40.1103 11.4697 39.9697C11.6103 39.829 11.8011 39.75 12 39.75C12.1989 39.75 12.3897 39.829 12.5303 39.9697C12.671 40.1103 12.75 40.3011 12.75 40.5C12.75 40.9132 13.086 41.25 13.5 41.25C13.6989 41.25 13.8897 41.329 14.0303 41.4697C14.171 41.6103 14.25 41.8011 14.25 42C14.25 42.1989 14.171 42.3897 14.0303 42.5303C13.8897 42.671 13.6989 42.75 13.5 42.75ZM12 8.25C11.8011 8.25 11.6103 8.17098 11.4697 8.03033C11.329 7.88968 11.25 7.69891 11.25 7.5C11.25 6.2595 12.2595 5.25 13.5 5.25C13.6989 5.25 13.8897 5.32902 14.0303 5.46967C14.171 5.61032 14.25 5.80109 14.25 6C14.25 6.19891 14.171 6.38968 14.0303 6.53033C13.8897 6.67098 13.6989 6.75 13.5 6.75C13.086 6.75 12.75 7.08675 12.75 7.5C12.75 7.69891 12.671 7.88968 12.5303 8.03033C12.3897 8.17098 12.1989 8.25 12 8.25ZM34.5 42.75C34.3011 42.75 34.1103 42.671 33.9697 42.5303C33.829 42.3897 33.75 42.1989 33.75 42C33.75 41.8011 33.829 41.6103 33.9697 41.4697C34.1103 41.329 34.3011 41.25 34.5 41.25C34.914 41.25 35.25 40.9132 35.25 40.5C35.25 40.3011 35.329 40.1103 35.4697 39.9697C35.6103 39.829 35.8011 39.75 36 39.75C36.1989 39.75 36.3897 39.829 36.5303 39.9697C36.671 40.1103 36.75 40.3011 36.75 40.5C36.75 41.7405 35.7405 42.75 34.5 42.75ZM36 8.25C35.8011 8.25 35.6103 8.17098 35.4697 8.03033C35.329 7.88968 35.25 7.69891 35.25 7.5C35.25 7.08675 34.914 6.75 34.5 6.75C34.3011 6.75 34.1103 6.67098 33.9697 6.53033C33.829 6.38968 33.75 6.19891 33.75 6C33.75 5.80109 33.829 5.61032 33.9697 5.46967C34.1103 5.32902 34.3011 5.25 34.5 5.25C35.7405 5.25 36.75 6.2595 36.75 7.5C36.75 7.69891 36.671 7.88968 36.5303 8.03033C36.3897 8.17098 36.1989 8.25 36 8.25Z" fill="#383838"/>
</svg>
