<svg width="48" height="48" viewBox="0 0 48 48" fill="none" xmlns="http://www.w3.org/2000/svg">
<path d="M46.5 23.8294V42.7762C46.5 43.3502 46.272 43.9006 45.8663 44.3066C45.4605 44.7125 44.9102 44.9407 44.3362 44.9409H31.4897C31.2055 44.9409 30.924 44.8849 30.6615 44.776C30.3989 44.6672 30.1604 44.5078 29.9595 44.3067C29.7585 44.1057 29.5992 43.8671 29.4905 43.6045C29.3818 43.3419 29.3259 43.0605 29.3259 42.7762V23.8294C29.3259 23.5452 29.3818 23.2638 29.4905 23.0013C29.5993 22.7387 29.7586 22.5002 29.9596 22.2993C30.1605 22.0983 30.399 21.939 30.6616 21.8302C30.9241 21.7215 31.2055 21.6656 31.4897 21.6656H34.4119V21.6722C34.4118 21.8835 34.4534 22.0927 34.5342 22.2879C34.6151 22.4831 34.7336 22.6605 34.8829 22.8099C35.0323 22.9593 35.2097 23.0777 35.4049 23.1586C35.6001 23.2394 35.8093 23.281 36.0206 23.2809H39.8053C40.0166 23.281 40.2258 23.2394 40.421 23.1586C40.6162 23.0777 40.7936 22.9593 40.943 22.8099C41.0924 22.6605 41.2109 22.4831 41.2917 22.2879C41.3725 22.0927 41.4141 21.8835 41.4141 21.6722V21.6656H44.3362C44.9101 21.6657 45.4604 21.8937 45.8662 22.2994C46.272 22.7052 46.4999 23.2555 46.5 23.8294ZM35.3362 35.8247V32.7328H32.2453V35.8247H35.3362Z" fill="#F8EC7D"/>
<path d="M34.4119 21.6656V21.5672C34.4118 21.3559 34.4534 21.1467 34.5342 20.9515C34.6151 20.7563 34.7336 20.5789 34.8829 20.4295C35.0323 20.2801 35.2097 20.1616 35.4049 20.0808C35.6001 20 35.8093 19.9584 36.0206 19.9584H39.8053C40.0166 19.9584 40.2258 20 40.421 20.0808C40.6162 20.1616 40.7936 20.2801 40.943 20.4295C41.0924 20.5789 41.2109 20.7563 41.2917 20.9515C41.3725 21.1467 41.4141 21.3559 41.4141 21.5672V21.6722C41.4141 21.8835 41.3725 22.0927 41.2917 22.2879C41.2109 22.4831 41.0924 22.6605 40.943 22.8099C40.7936 22.9592 40.6162 23.0777 40.421 23.1586C40.2258 23.2394 40.0166 23.281 39.8053 23.2809H36.0206C35.8093 23.281 35.6001 23.2394 35.4049 23.1586C35.2097 23.0777 35.0323 22.9592 34.8829 22.8099C34.7336 22.6605 34.6151 22.4831 34.5342 22.2879C34.4534 22.0927 34.4118 21.8835 34.4119 21.6722V21.6656Z" fill="#6FE3FF"/>
<path d="M36.6853 13.2169V19.9584H36.0206C35.8093 19.9584 35.6001 20 35.4049 20.0808C35.2097 20.1616 35.0323 20.2801 34.8829 20.4295C34.7335 20.5789 34.615 20.7563 34.5342 20.9515C34.4534 21.1467 34.4118 21.3559 34.4118 21.5672V21.6656H31.4897C31.2055 21.6656 30.9241 21.7215 30.6616 21.8302C30.399 21.9389 30.1605 22.0983 29.9596 22.2993C29.7586 22.5002 29.5992 22.7387 29.4905 23.0013C29.3818 23.2638 29.3259 23.5452 29.3259 23.8294V37.7794L19.0922 43.6875V23.3719L36.6834 13.2159L36.6853 13.2169Z" fill="#C16752"/>
<path d="M19.0922 23.3719L10.1241 18.1941L27.7144 8.03719H27.7153L36.6835 13.2159L19.0922 23.3719Z" fill="#AF593C"/>
<path d="M32.2453 32.7328H35.3362V35.8247H32.2453V32.7328Z" fill="#6FE3FF"/>
<path d="M27.7144 8.03718L10.1241 18.1941L1.50189 13.2159L19.0922 3.05906L27.7144 8.03718Z" fill="#AF593C"/>
<path d="M19.0922 23.3719V43.6875L1.5 33.5306V13.2169L1.50188 13.2159L10.1241 18.1941L19.0922 23.3719Z" fill="#E48E66"/>
<path d="M44.3363 21H42.0007C41.8677 20.5185 41.5815 20.0933 41.1854 19.7888C40.7893 19.4844 40.3049 19.3172 39.8053 19.3125H37.3125V13.2169C37.315 13.1022 37.2869 12.9889 37.2312 12.8887C37.1754 12.7884 37.0939 12.7048 36.9952 12.6465L28.0362 7.46887L27.7288 8.03794H27.75V8.03644L28.0601 7.46887L19.4291 2.49075C19.3286 2.43311 19.2147 2.40279 19.0988 2.40279C18.9829 2.40279 18.869 2.43311 18.7685 2.49075L1.18519 12.6423C1.08216 12.6988 0.996153 12.782 0.93611 12.883C0.876067 12.9841 0.844176 13.0993 0.84375 13.2169V33.5306C0.843753 33.6458 0.874077 33.759 0.931675 33.8587C0.989273 33.9585 1.07211 34.0413 1.17188 34.0989L18.7641 44.2558C18.8638 44.3135 18.977 44.3438 19.0922 44.3438C19.2104 44.3439 19.3266 44.3136 19.4297 44.2558L28.6875 38.9156V42.7762C28.6865 43.1438 28.7585 43.5078 28.8991 43.8473C29.0398 44.1869 29.2465 44.4951 29.5071 44.7542C29.7677 45.0134 30.0771 45.2182 30.4174 45.357C30.7577 45.4957 31.1222 45.5656 31.4897 45.5625H44.3363C44.7047 45.566 45.0702 45.4965 45.4117 45.3581C45.7532 45.2197 46.0639 45.0152 46.3261 44.7562C46.5882 44.4972 46.7965 44.189 46.9389 43.8492C47.0814 43.5094 47.1553 43.1447 47.1562 42.7762V23.8294C47.1558 23.0808 46.8588 22.3628 46.3303 21.8326C45.8018 21.3023 45.0849 21.003 44.3363 21ZM40.7812 21.5672V21.6722C40.7812 22.1972 40.3305 22.5938 39.8053 22.5938H36.0206C35.8964 22.597 35.7729 22.5754 35.6571 22.5303C35.5414 22.4852 35.4358 22.4174 35.3466 22.331C35.2573 22.2446 35.1862 22.1412 35.1375 22.0269C35.0887 21.9127 35.0632 21.7899 35.0625 21.6656V21.5672C35.0635 21.4424 35.089 21.319 35.1377 21.2041C35.1864 21.0892 35.2573 20.985 35.3463 20.8975C35.4352 20.81 35.5406 20.7409 35.6563 20.6941C35.772 20.6474 35.8958 20.6239 36.0206 20.625H39.8053C40.0592 20.6222 40.3039 20.7195 40.4866 20.8959C40.6692 21.0722 40.7751 21.3134 40.7812 21.5672ZM35.371 13.2159L19.0922 22.6141L11.4365 18.1941L27.7147 8.79469L35.371 13.2159ZM19.0922 3.81684L26.402 8.03719L10.1241 17.4363L2.81428 13.2159L19.0922 3.81684ZM2.15625 14.3515L18.4688 23.7507V42.5509L2.15625 33.1518V14.3515ZM19.7812 42.5509V23.7508L36 14.3515V19.3125H36.0206C35.521 19.3171 35.0365 19.4843 34.6404 19.7888C34.2442 20.0932 33.958 20.5184 33.825 21H31.4897C30.7429 21.0037 30.0282 21.3038 29.5027 21.8344C28.9772 22.365 28.684 23.0826 28.6875 23.8294V37.4005L19.7812 42.5509ZM45.8438 42.7759C45.8429 42.9721 45.8032 43.1661 45.7267 43.3468C45.6502 43.5275 45.5386 43.6911 45.3984 43.8283C45.2581 43.9655 45.092 44.0734 44.9096 44.1458C44.7273 44.2182 44.5324 44.2536 44.3363 44.25H31.4897C31.2945 44.2533 31.1006 44.2175 30.9195 44.1448C30.7383 44.0721 30.5735 43.9639 30.4347 43.8266C30.2959 43.6893 30.186 43.5257 30.1113 43.3453C30.0367 43.1649 29.9988 42.9715 30 42.7762V23.8294C29.998 23.6319 30.035 23.436 30.1089 23.2529C30.1827 23.0697 30.2919 22.9029 30.4303 22.762C30.5687 22.6212 30.7335 22.5089 30.9152 22.4318C31.097 22.3547 31.2922 22.3141 31.4897 22.3125H33.851C33.9917 22.777 34.2792 23.1834 34.6704 23.4707C35.0615 23.7581 35.5353 23.9109 36.0206 23.9062H39.8053C40.2906 23.9109 40.7644 23.7581 41.1556 23.4707C41.5467 23.1834 41.8342 22.777 41.9749 22.3125H44.3363C44.7369 22.3151 45.1203 22.476 45.4027 22.7602C45.6851 23.0444 45.8437 23.4287 45.8438 23.8294V42.7759Z" fill="#63316D"/>
<path d="M32.2453 30.4688H32.9325C33.1065 30.4688 33.2734 30.3996 33.3965 30.2765C33.5196 30.1535 33.5887 29.9865 33.5887 29.8125C33.5887 29.6385 33.5196 29.4715 33.3965 29.3485C33.2734 29.2254 33.1065 29.1562 32.9325 29.1562H32.9062V27.375H34.7156C34.7568 27.5069 34.8402 27.6217 34.9529 27.7017C35.0657 27.7818 35.2015 27.8226 35.3397 27.818C35.514 27.8185 35.6815 27.7499 35.8053 27.6271C35.9291 27.5043 35.9991 27.3375 36 27.1631V26.7216C35.9984 26.5464 35.9278 26.379 35.8035 26.2556C35.6793 26.1322 35.5114 26.0628 35.3362 26.0625H32.2453C32.1592 26.0629 32.0741 26.0803 31.9947 26.1136C31.9153 26.147 31.8433 26.1957 31.7828 26.2569C31.7223 26.3181 31.6744 26.3907 31.642 26.4704C31.6096 26.5501 31.5932 26.6355 31.5937 26.7216V29.8134C31.5932 29.8993 31.6097 29.9845 31.6422 30.0639C31.6747 30.1434 31.7227 30.2157 31.7832 30.2766C31.8438 30.3375 31.9158 30.3858 31.9951 30.4188C32.0744 30.4518 32.1594 30.4688 32.2453 30.4688ZM36 32.7188C36 32.5447 35.9308 32.3778 35.8078 32.2547C35.6847 32.1316 35.5178 32.0625 35.3437 32.0625H32.25C32.0759 32.0625 31.909 32.1316 31.7859 32.2547C31.6629 32.3778 31.5937 32.5447 31.5937 32.7188V35.8125C31.5937 35.9865 31.6629 36.1535 31.7859 36.2765C31.909 36.3996 32.0759 36.4688 32.25 36.4688H35.3437C35.5178 36.4688 35.6847 36.3996 35.8078 36.2765C35.9308 36.1535 36 35.9865 36 35.8125V32.7188ZM32.9062 33.375H34.6875V35.1562H32.9062V33.375ZM32.9325 41.1562H32.9062V39.375H34.6804C34.6849 39.5469 34.7563 39.7103 34.8795 39.8304C35.0026 39.9505 35.1678 40.0178 35.3398 40.0179C35.5118 40.018 35.677 39.951 35.8003 39.8311C35.9236 39.7112 35.9953 39.5479 36 39.3759V38.7441C35.9993 38.5666 35.9297 38.3963 35.8059 38.2691C35.6821 38.1419 35.5137 38.0678 35.3362 38.0625H32.2453C32.0692 38.0684 31.9024 38.1431 31.7806 38.2705C31.6588 38.3979 31.5917 38.5678 31.5937 38.7441V41.835C31.5936 41.9198 31.6106 42.0037 31.6435 42.0818C31.6765 42.1599 31.7247 42.2306 31.7855 42.2897C31.8463 42.3488 31.9183 42.3951 31.9972 42.4258C32.0762 42.4566 32.1606 42.4712 32.2453 42.4688H32.9325C33.1065 42.4688 33.2734 42.3996 33.3965 42.2765C33.5196 42.1535 33.5887 41.9865 33.5887 41.8125C33.5887 41.6385 33.5196 41.4715 33.3965 41.3485C33.2734 41.2254 33.1065 41.1562 32.9325 41.1562Z" fill="#63316D"/>
<path d="M36.8475 26.8678L34.9257 28.7897L34.3406 28.2052C34.2175 28.0821 34.0506 28.0129 33.8765 28.0129C33.7024 28.0129 33.5355 28.0821 33.4124 28.2052C33.2894 28.3282 33.2202 28.4952 33.2202 28.6692C33.2202 28.8433 33.2894 29.0102 33.4124 29.1333L34.4616 30.1814C34.5225 30.2424 34.5949 30.2907 34.6745 30.3237C34.7541 30.3567 34.8395 30.3736 34.9257 30.3736C35.0118 30.3736 35.0972 30.3567 35.1768 30.3237C35.2564 30.2907 35.3288 30.2424 35.3897 30.1814L37.7757 27.7955C37.8366 27.7345 37.8849 27.6622 37.9179 27.5826C37.9509 27.5029 37.9679 27.4176 37.9679 27.3314C37.9679 27.2452 37.9509 27.1599 37.9179 27.0803C37.8849 27.0006 37.8366 26.9283 37.7757 26.8673C37.7147 26.8064 37.6424 26.7581 37.5627 26.7251C37.4831 26.6921 37.3978 26.6751 37.3116 26.6751C37.2254 26.6751 37.1401 26.6921 37.0604 26.7251C36.9808 26.7581 36.9085 26.8064 36.8475 26.8673V26.8678ZM36.8475 38.985L34.9257 40.9069L34.3406 40.3223C34.2175 40.1993 34.0506 40.1301 33.8765 40.1301C33.7024 40.1301 33.5355 40.1993 33.4124 40.3223C33.2894 40.4454 33.2202 40.6124 33.2202 40.7864C33.2202 40.9605 33.2894 41.1274 33.4124 41.2505L34.4616 42.2986C34.5225 42.3595 34.5949 42.4079 34.6745 42.4409C34.7541 42.4739 34.8395 42.4908 34.9257 42.4908C35.0118 42.4908 35.0972 42.4739 35.1768 42.4409C35.2564 42.4079 35.3288 42.3595 35.3897 42.2986L37.7757 39.9127C37.8366 39.8517 37.8849 39.7794 37.9179 39.6997C37.9509 39.6201 37.9679 39.5348 37.9679 39.4486C37.9679 39.3624 37.9509 39.2771 37.9179 39.1974C37.8849 39.1178 37.8366 39.0455 37.7757 38.9845C37.7147 38.9236 37.6424 38.8752 37.5627 38.8423C37.4831 38.8093 37.3978 38.7923 37.3116 38.7923C37.2254 38.7923 37.1401 38.8093 37.0604 38.8423C36.9808 38.8752 36.9085 38.9236 36.8475 38.9845V38.985ZM43.5807 27.6563H39.4585C39.2844 27.6563 39.1175 27.7254 38.9944 27.8485C38.8714 27.9715 38.8022 28.1385 38.8022 28.3125C38.8022 28.4866 38.8714 28.6535 38.9944 28.7765C39.1175 28.8996 39.2844 28.9688 39.4585 28.9688H43.5807C43.7547 28.9688 43.9216 28.8996 44.0447 28.7765C44.1678 28.6535 44.2369 28.4866 44.2369 28.3125C44.2369 28.1385 44.1678 27.9715 44.0447 27.8485C43.9216 27.7254 43.7547 27.6563 43.5807 27.6563ZM43.5807 33.6563H39.4585C39.2844 33.6563 39.1175 33.7254 38.9944 33.8485C38.8714 33.9715 38.8022 34.1385 38.8022 34.3125C38.8022 34.4866 38.8714 34.6535 38.9944 34.7765C39.1175 34.8996 39.2844 34.9688 39.4585 34.9688H43.5807C43.7547 34.9688 43.9216 34.8996 44.0447 34.7765C44.1678 34.6535 44.2369 34.4866 44.2369 34.3125C44.2369 34.1385 44.1678 33.9715 44.0447 33.8485C43.9216 33.7254 43.7547 33.6563 43.5807 33.6563ZM43.5807 39.6563H39.4585C39.2844 39.6563 39.1175 39.7254 38.9944 39.8485C38.8714 39.9715 38.8022 40.1385 38.8022 40.3125C38.8022 40.4866 38.8714 40.6535 38.9944 40.7765C39.1175 40.8996 39.2844 40.9688 39.4585 40.9688H43.5807C43.7547 40.9688 43.9216 40.8996 44.0447 40.7765C44.1678 40.6535 44.2369 40.4866 44.2369 40.3125C44.2369 40.1385 44.1678 39.9715 44.0447 39.8485C43.9216 39.7254 43.7547 39.6563 43.5807 39.6563Z" fill="#63316D"/>
</svg>
