<svg width="48" height="48" viewBox="0 0 48 48" fill="none" xmlns="http://www.w3.org/2000/svg">
<path d="M25.5 30H46.5V46.5H25.5V30Z" fill="#D3A06C"/>
<path d="M10.5 16.5H12C9.9 16.5 8.1 17.7225 7.26 19.5H2.25C1.8375 19.5 1.5 19.1625 1.5 18.75V17.25C1.5 16.8375 1.8375 16.5 2.25 16.5H4.5H10.5ZM16.5 16.5H45.75C46.1625 16.5 46.5 16.8375 46.5 17.25V18.75C46.5 19.1625 46.1625 19.5 45.75 19.5H16.74C16.3167 18.6012 15.646 17.8417 14.8065 17.3104C13.967 16.779 12.9935 16.4979 12 16.5H16.5Z" fill="#838F9B"/>
<path d="M3.75 40.5L3.7725 40.41C4.005 40.47 4.2525 40.5 4.5 40.5H8.25V46.5H3.75V40.5Z" fill="#FCD770"/>
<path d="M12 27C17.7975 27 22.5 31.7025 22.5 37.5V46.5H18.75V35.25L15 31.5H8.25V36.75H1.53C1.71856 34.102 2.90358 31.6238 4.84635 29.8147C6.78912 28.0055 9.34529 26.9997 12 27Z" fill="#FCD770"/>
<path d="M18.75 35.25V46.5H8.25V40.5H11.625C12.1425 40.5 12.615 40.29 12.9525 39.9525C13.29 39.615 13.5 39.1425 13.5 38.625C13.5 38.1277 13.3025 37.6508 12.9508 37.2992C12.5992 36.9475 12.1223 36.75 11.625 36.75H8.25V31.5H15V35.25H18.75Z" fill="#E6E9ED"/>
<path d="M18.75 35.25H15V31.5L18.75 35.25Z" fill="#FC6E51"/>
<path d="M11.625 36.75C12.1223 36.75 12.5992 36.9475 12.9508 37.2992C13.3025 37.6508 13.5 38.1277 13.5 38.625C13.5 39.1223 13.3025 39.5992 12.9508 39.9508C12.5992 40.3025 12.1223 40.5 11.625 40.5H4.5C3.70441 40.4998 2.94147 40.1837 2.3789 39.6211C1.81633 39.0585 1.5002 38.2956 1.5 37.5C1.5 37.245 1.5075 36.9975 1.53 36.75H8.25H11.625ZM16.74 19.5C17.07 20.1825 17.25 20.94 17.25 21.75C17.25 24.6525 14.9025 27 12 27C9.0975 27 6.75 24.6525 6.75 21.75C6.75 20.94 6.93 20.1825 7.26 19.5C8.1 17.7225 9.9 16.5 12 16.5C14.1 16.5 15.9 17.7225 16.74 19.5Z" fill="#F0D0B4"/>
<path d="M25.5 1.5H43.5V16.5H25.5V1.5ZM4.5 1.5H22.5V16.5H4.5V1.5Z" fill="#D3A06C"/>
<path d="M16.5 13.5V16.5H10.5V13.5H16.5ZM10.5 1.5H16.5V4.5H10.5V1.5ZM31.5 1.5H37.5V4.5H31.5V1.5ZM31.5 13.5H37.5V16.5H31.5V13.5ZM33 30H39V33H33V30Z" fill="#ECC19C"/>
<path d="M24.75 47.25H47.25V29.25H24.75V47.25ZM33.75 30.75H38.25V32.25H33.75V30.75ZM26.25 30.75H32.25V33.75H39.75V30.75H45.75V45.75H26.25V30.75Z" fill="black"/>
<path d="M42.75 42.75H44.25V44.25H42.75V42.75ZM39.75 42.75H41.25V44.25H39.75V42.75ZM36.75 42.75H38.25V44.25H36.75V42.75ZM45.75 15.75H44.25V0.75H24.75V15.75H23.25V0.75H3.75V15.75H2.25C1.42275 15.75 0.75 16.4227 0.75 17.25V18.75C0.75 19.5772 1.42275 20.25 2.25 20.25H6.19725C6.0681 20.7396 6.00182 21.2437 6 21.75C6.00053 22.7404 6.24636 23.7153 6.71554 24.5876C7.18472 25.4599 7.86264 26.2024 8.68875 26.7488C4.0965 28.1663 0.75 32.4487 0.75 37.5C0.751244 38.2288 0.96468 38.9414 1.36424 39.5508C1.7638 40.1603 2.33219 40.6402 3 40.932V47.25H23.25V37.5C23.25 32.4487 19.9035 28.1663 15.3113 26.7488C16.1374 26.2024 16.8153 25.4599 17.2845 24.5876C17.7536 23.7153 17.9995 22.7404 18 21.75C18 21.231 17.9272 20.7307 17.8027 20.25H45.75C46.5773 20.25 47.25 19.5772 47.25 18.75V17.25C47.25 16.4227 46.5773 15.75 45.75 15.75ZM32.25 2.25H36.75V3.75H32.25V2.25ZM26.25 2.25H30.75V5.25H38.25V2.25H42.75V15.75H38.25V12.75H30.75V15.75H26.25V2.25ZM36.75 15.75H32.25V14.25H36.75V15.75ZM11.25 2.25H15.75V3.75H11.25V2.25ZM5.25 2.25H9.75V5.25H17.25V2.25H21.75V15.75H17.25V12.75H9.75V15.75H5.25V2.25ZM11.25 15.75V14.25H15.75V15.75H11.25ZM2.25 18.75V17.25H8.0445C7.55544 17.6804 7.13908 18.1869 6.8115 18.75H2.25ZM4.5 41.25H7.5V45.75H4.5V41.25ZM11.625 36H9V32.25H14.25V36H18V45.75H9V41.25H11.625C13.0725 41.25 14.25 40.0725 14.25 38.625C14.25 37.1775 13.0725 36 11.625 36ZM15.75 33.3105L16.9395 34.5H15.75V33.3105ZM21.75 37.5V45.75H19.5V34.9395L15.3105 30.75H7.5V36H5.25V37.5H11.625C12.2452 37.5 12.75 38.0047 12.75 38.625C12.75 39.2453 12.2452 39.75 11.625 39.75H4.5C3.2595 39.75 2.25 38.7405 2.25 37.5C2.25 32.124 6.624 27.75 12 27.75C17.376 27.75 21.75 32.124 21.75 37.5ZM12 26.25C9.51825 26.25 7.5 24.2318 7.5 21.75C7.5 19.2682 9.51825 17.25 12 17.25C14.4818 17.25 16.5 19.2682 16.5 21.75C16.5 24.2318 14.4818 26.25 12 26.25ZM45.75 18.75H17.1885C16.8612 18.1867 16.4448 17.6802 15.9555 17.25H45.75V18.75ZM36.75 39.75H44.25V41.25H36.75V39.75Z" fill="black"/>
</svg>
