<svg width="46" height="46" viewBox="0 0 46 46" fill="none" xmlns="http://www.w3.org/2000/svg">
<path d="M16.25 7.25C16.25 5.6587 16.8821 4.13258 18.0074 3.00736C19.1326 1.88214 20.6587 1.25 22.25 1.25H32V11H16.25V7.25Z" fill="#FFCEB6"/>
<path d="M9.5 8H29V22.25H9.5V8Z" fill="#DB8638"/>
<path d="M37.25 44.75L32.75 22.25H5.75L1.25 44.75H37.25Z" fill="#FFC431"/>
<path d="M37.25 44.75H28.25L32.75 22.25L37.25 44.75Z" fill="#FFB401"/>
<path d="M20 4.25V12.6925C20 13.0392 20.1378 13.3718 20.383 13.617C20.6282 13.8622 20.9608 14 21.3075 14C21.582 14 21.8495 13.9137 22.0721 13.7532C22.2947 13.5927 22.4613 13.3663 22.548 13.1059L23.75 9.5C24.2007 9.27463 24.5798 8.9282 24.8448 8.49952C25.1097 8.07084 25.25 7.57685 25.25 7.07291V4.25H20Z" fill="#FFCEB6"/>
<path d="M17 8V12.5L18.5 11L20 12.5V8H17Z" fill="#F7A156"/>
<path d="M32 1.25H45.5V11H32V1.25Z" fill="#548AFF"/>
<path d="M15.5 7.25H9.50001C9.3011 7.25 9.11033 7.32902 8.96968 7.46967C8.82903 7.61032 8.75001 7.80109 8.75001 8V21.5H5.75001C5.57663 21.5 5.40861 21.56 5.27452 21.6699C5.14043 21.7798 5.04856 21.9328 5.01454 22.1028L0.514539 44.6028C0.49276 44.7116 0.495401 44.8239 0.522273 44.9316C0.549144 45.0393 0.599577 45.1396 0.669932 45.2255C0.740288 45.3113 0.828813 45.3804 0.929124 45.4279C1.02943 45.4754 1.13903 45.5 1.25001 45.5H37.25C37.361 45.5 37.4706 45.4754 37.5709 45.4279C37.6712 45.3804 37.7597 45.3113 37.8301 45.2255C37.9004 45.1396 37.9509 45.0393 37.9777 44.9316C38.0046 44.8239 38.0073 44.7116 37.9855 44.6028L33.4855 22.1028C33.4515 21.9328 33.3596 21.7798 33.2255 21.6699C33.0914 21.56 32.9234 21.5 32.75 21.5H29.75V11.75H45.5V10.25H32.75V2H45.5V0.5H22.25C20.4604 0.50201 18.7447 1.21381 17.4793 2.47925C16.2138 3.74468 15.502 5.46041 15.5 7.25ZM19.25 10.6893L19.0303 10.4697C18.8897 10.329 18.6989 10.25 18.5 10.25C18.3011 10.25 18.1103 10.329 17.9697 10.4697L17.75 10.6894V8.75H19.25V10.6893ZM6.36491 23H13.25V26.75H11.75V28.25H16.25V26.75H14.75V23H22.25V26.75H20.75V28.25H25.25V26.75H23.75V23H31.8351L27.6351 44H2.16482L6.36491 23ZM22.25 21.5H14.75V20.75C14.75 19.7554 15.1451 18.8016 15.8484 18.0984C16.5516 17.3951 17.5054 17 18.5 17C19.4946 17 20.4484 17.3951 21.1517 18.0984C21.8549 18.8016 22.25 19.7554 22.25 20.75V21.5ZM32 39.9393L29.4713 42.468L32 29.8243V39.9393ZM32.75 41.3106L35.4393 44H30.0607L32.75 41.3106ZM33.5 39.9393V29.8242L36.0288 42.4681L33.5 39.9393ZM23.75 21.5V20.75C23.75 19.3576 23.1969 18.0223 22.2123 17.0377C21.2278 16.0531 19.8924 15.5 18.5 15.5C17.1076 15.5 15.7723 16.0531 14.7877 17.0377C13.8031 18.0223 13.25 19.3576 13.25 20.75V21.5H10.25V8.75H16.25V12.5C16.25 12.6483 16.294 12.7934 16.3764 12.9167C16.4588 13.04 16.5759 13.1362 16.713 13.1929C16.85 13.2497 17.0008 13.2646 17.1463 13.2356C17.2918 13.2067 17.4255 13.1352 17.5303 13.0303L18.5 12.0606L19.2539 12.8146C19.2823 13.2918 19.4759 13.7443 19.8016 14.0943C20.1272 14.4442 20.5646 14.6698 21.0386 14.7324C21.5125 14.7949 21.9934 14.6904 22.3987 14.4369C22.804 14.1834 23.1084 13.7966 23.2595 13.3431L24.37 10.0118C24.8716 9.70096 25.2849 9.26648 25.5703 8.75H28.25V21.5H23.75ZM31.25 10.25H29.75V8C29.75 7.80109 29.671 7.61032 29.5303 7.46967C29.3897 7.32902 29.1989 7.25 29 7.25H25.9944C25.9973 7.19122 26 7.13234 26 7.07291V4.25H24.5V7.07291C24.5012 7.43783 24.4002 7.7958 24.2084 8.10623C24.0165 8.41666 23.7415 8.66712 23.4146 8.82922C23.2367 8.91818 23.1014 9.07414 23.0385 9.26281L21.8365 12.8687C21.7946 12.9943 21.7094 13.1009 21.5962 13.1695C21.4829 13.238 21.3489 13.264 21.2183 13.2428C21.0876 13.2216 20.9687 13.1546 20.8829 13.0538C20.7971 12.9529 20.75 12.8249 20.75 12.6925V5.75H19.25V7.25H17C17.0016 5.85809 17.5552 4.52364 18.5394 3.53942C19.5237 2.55519 20.8581 2.00156 22.25 2H31.25V10.25Z" fill="black"/>
</svg>
