<svg width="48" height="48" viewBox="0 0 48 48" fill="none" xmlns="http://www.w3.org/2000/svg">
<g clip-path="url(#clip0_656_4268)">
<path d="M24 0.774194H3.87097C2.16078 0.774194 0.7742 2.16077 0.7742 3.87097V44.129C0.7742 45.8392 2.16078 47.2258 3.87097 47.2258H24C25.7102 47.2258 27.0968 45.8392 27.0968 44.129V3.87097C27.0968 2.16077 25.7102 0.774194 24 0.774194Z" fill="#8C95A4"/>
<path d="M0.7742 6.96774H27.0968V41.0323H0.7742V6.96774Z" fill="#39C3FC"/>
<path d="M0.7742 37.9355H27.0968V41.0323H0.7742V37.9355Z" fill="#148CE0"/>
<path d="M17.8065 13.1613V24.7742L12.3871 30.1935H45.6774C46.5329 30.1935 47.2258 29.5006 47.2258 28.6452V13.1613C47.2258 12.3058 46.5329 11.6129 45.6774 11.6129H19.3548C18.4994 11.6129 17.8065 12.3058 17.8065 13.1613Z" fill="#ECECEC"/>
<path d="M12.3871 30.1935L27.0968 33.2903V30.1935H12.3871Z" fill="#148CE0"/>
<path d="M45.6774 10.8387H27.871V3.87097C27.871 1.73652 26.1345 0 24 0H3.87097C1.73652 0 0 1.73652 0 3.87097V44.129C0 46.2635 1.73652 48 3.87097 48H24C26.1345 48 27.871 46.2635 27.871 44.129V32.5161H26.3226V40.2581H1.54839V7.74194H26.3226V10.8387H19.3548C18.0743 10.8387 17.0323 11.8808 17.0323 13.1613V24.4537L10.5182 30.9677H45.6774C46.9579 30.9677 48 29.9257 48 28.6452V13.1613C48 11.8808 46.9579 10.8387 45.6774 10.8387ZM26.3226 41.8064V44.129C26.3226 45.4095 25.2805 46.4516 24 46.4516H3.87097C2.59045 46.4516 1.54839 45.4095 1.54839 44.129V41.8064H26.3226ZM1.54839 6.19355V3.87097C1.54839 2.59045 2.59045 1.54839 3.87097 1.54839H24C25.2805 1.54839 26.3226 2.59045 26.3226 3.87097V6.19355H1.54839ZM46.4516 28.6452C46.4516 29.0725 46.1048 29.4194 45.6774 29.4194H14.256L18.5806 25.0947V13.1613C18.5806 12.7339 18.9275 12.3871 19.3548 12.3871H45.6774C46.1048 12.3871 46.4516 12.7339 46.4516 13.1613V28.6452Z" fill="black"/>
<path d="M40.2581 17.0323C41.112 17.0323 41.8065 17.7267 41.8065 18.5806H43.3548C43.3548 16.8728 41.9659 15.4839 40.2581 15.4839C38.5502 15.4839 37.1613 16.8728 37.1613 18.5806C37.1613 20.2885 38.5502 21.6774 40.2581 21.6774C41.112 21.6774 41.8065 22.3719 41.8065 23.2258C41.8065 24.0797 41.112 24.7742 40.2581 24.7742C39.4041 24.7742 38.7097 24.0797 38.7097 23.2258H37.1613C37.1613 24.9337 38.5502 26.3226 40.2581 26.3226C41.9659 26.3226 43.3548 24.9337 43.3548 23.2258C43.3548 21.5179 41.9659 20.129 40.2581 20.129C39.4041 20.129 38.7097 19.4346 38.7097 18.5806C38.7097 17.7267 39.4041 17.0323 40.2581 17.0323ZM24.7742 17.0323C25.6281 17.0323 26.3226 17.7267 26.3226 18.5806H27.871C27.871 16.8728 26.4821 15.4839 24.7742 15.4839C23.0663 15.4839 21.6774 16.8728 21.6774 18.5806C21.6774 20.2885 23.0663 21.6774 24.7742 21.6774C25.6281 21.6774 26.3226 22.3719 26.3226 23.2258C26.3226 24.0797 25.6281 24.7742 24.7742 24.7742C23.9203 24.7742 23.2258 24.0797 23.2258 23.2258H21.6774C21.6774 24.9337 23.0663 26.3226 24.7742 26.3226C26.4821 26.3226 27.871 24.9337 27.871 23.2258C27.871 21.5179 26.4821 20.129 24.7742 20.129C23.9203 20.129 23.2258 19.4346 23.2258 18.5806C23.2258 17.7267 23.9203 17.0323 24.7742 17.0323ZM32.5161 19.2596L31.5724 15.4839H29.4194V25.5484H30.9677V19.4501L32.5161 25.6436L34.0645 19.4501V25.5484H35.6129V15.4839H33.4599L32.5161 19.2596ZM10.8387 43.3548H17.0323V44.9032H10.8387V43.3548ZM23.2258 32.5161H24.7742V34.0645H23.2258V32.5161ZM20.129 32.5161H21.6774V34.0645H20.129V32.5161ZM17.0323 32.5161H18.5806V34.0645H17.0323V32.5161ZM13.9355 32.5161H15.4839V34.0645H13.9355V32.5161Z" fill="black"/>
</g>
<defs>
<clipPath id="clip0_656_4268">
<rect width="48" height="48" fill="white"/>
</clipPath>
</defs>
</svg>
