<svg width="100" height="100" viewBox="0 0 100 100" fill="none" xmlns="http://www.w3.org/2000/svg">
<path d="M99.1429 76.1365L85.3168 62.3106C78.8141 71.5431 68.7944 78.1263 57.222 80.0982L76.2015 99.0779C76.6107 99.4871 77.1321 99.7657 77.6996 99.8785C78.2671 99.9914 78.8554 99.9334 79.39 99.712C79.9246 99.4906 80.3816 99.1156 80.7031 98.6345C81.0246 98.1534 81.1963 97.5878 81.1964 97.0092V81.1314H97.0739C97.6526 81.1314 98.2183 80.9598 98.6995 80.6383C99.1806 80.3168 99.5556 79.8598 99.7771 79.3252C99.9986 78.7905 100.057 78.2022 99.9437 77.6346C99.8309 77.0671 99.5522 76.5457 99.1429 76.1365ZM53.3547 30.6862L49.935 24.6191L46.5152 30.6862C46.3088 31.0523 46.026 31.3696 45.6861 31.6167C45.3461 31.8637 44.9569 32.0346 44.5449 32.1177L37.7183 33.4952L42.4317 38.6215C42.716 38.9309 42.9304 39.2979 43.0603 39.6975C43.1901 40.0971 43.2324 40.52 43.1842 40.9375L42.3852 47.856L48.7172 44.9578C49.0993 44.783 49.5146 44.6924 49.9349 44.6924C50.3551 44.6924 50.7704 44.783 51.1525 44.9578L57.4845 47.8558L56.6853 40.9375C56.5878 40.0929 56.8625 39.2475 57.4379 38.6215L62.1513 33.495L55.3246 32.1175C54.9128 32.0344 54.5236 31.8635 54.1837 31.6165C53.8438 31.3695 53.561 31.0522 53.3547 30.6862Z" fill="#3A3A3A"/>
<path d="M87.3343 37.4643C87.3343 16.8423 70.5571 0.0649414 49.935 0.0649414C29.3128 0.0649414 12.5358 16.8423 12.5358 37.4643C12.5358 58.0862 29.313 74.8634 49.935 74.8634C70.5569 74.8634 87.3343 58.0862 87.3343 37.4643ZM69.9729 33.6339L62.6524 41.5964L63.8933 52.341C63.9528 52.8563 63.8743 53.3781 63.6657 53.853C63.4571 54.3279 63.1261 54.7389 62.7064 55.0437C61.2671 56.0888 59.801 55.3515 59.7688 55.3369L49.935 50.8361L40.1009 55.3371C39.1408 55.7771 38.0179 55.6648 37.1635 55.0439C36.3092 54.423 35.8555 53.39 35.9766 52.3412L37.2173 41.5966L29.897 33.6341C29.546 33.2522 29.3029 32.7838 29.1924 32.2771C29.082 31.7703 29.1083 31.2432 29.2685 30.7499C29.4288 30.2566 29.7173 29.8147 30.1045 29.4696C30.4917 29.1245 30.9637 28.8885 31.4721 28.7857L42.0747 26.6465L47.3857 17.224C47.6405 16.7722 48.0107 16.3961 48.4586 16.1345C48.9065 15.8728 49.4159 15.7349 49.9346 15.7349C50.4533 15.7349 50.9627 15.8728 51.4105 16.1345C51.8584 16.3961 52.2287 16.7722 52.4834 17.224L57.7946 26.6465L68.3972 28.7857C68.9057 28.8883 69.3778 29.1242 69.7652 29.4692C70.1525 29.8143 70.4411 30.2562 70.6014 30.7495C70.7618 31.2428 70.7881 31.7699 70.6776 32.2768C70.5672 32.7836 70.324 33.252 69.9729 33.6339Z" fill="#3A3A3A"/>
<path d="M14.6064 62.3873L0.857078 76.1365C0.447962 76.5458 0.169363 77.0671 0.0565022 77.6346C-0.0563586 78.2022 0.00158645 78.7904 0.223012 79.325C0.444437 79.8596 0.8194 80.3166 1.3005 80.6381C1.78159 80.9596 2.34722 81.1313 2.92587 81.1314H18.8036V97.0092C18.8035 97.5879 18.9751 98.1537 19.2966 98.6349C19.6181 99.1161 20.0751 99.4911 20.6098 99.7126C21.1444 99.9341 21.7328 99.992 22.3004 99.879C22.868 99.766 23.3893 99.4873 23.7985 99.078L42.7597 80.1167C31.1719 78.1735 21.1313 71.6092 14.6064 62.3873Z" fill="#3A3A3A"/>
</svg>
