<svg width="100" height="100" viewBox="0 0 100 100" fill="none" xmlns="http://www.w3.org/2000/svg">
<path d="M81.5023 0H72.8932V29.1368C72.8932 31.1839 70.8234 32.1961 69.2198 29.6258L63.5335 20.5277L57.8471 29.6258C56.2322 32.1847 54.1738 31.1839 54.1738 29.1368V0H25.3099C18.3325 0.0187649 12.6862 5.68037 12.6862 12.6578V87.3763C12.705 94.3404 18.3458 99.9812 25.3099 100H81.5137C82.2748 99.9988 83.0281 99.8475 83.7307 99.5547C84.4332 99.262 85.0711 98.8336 85.6079 98.2941C86.1474 97.7573 86.5758 97.1194 86.8685 96.4169C87.1612 95.7144 87.3125 94.961 87.3138 94.1999V5.81144C87.3075 2.60434 84.7094 0.00625498 81.5023 0ZM82.5827 84.9881L27.7437 85.0563C27.1372 85.0981 26.5693 85.3685 26.1546 85.8129C25.7398 86.2572 25.5091 86.8424 25.5091 87.4502C25.5091 88.0581 25.7398 88.6433 26.1546 89.0876C26.5693 89.532 27.1372 89.8024 27.7437 89.8442H82.5827L82.5714 94.2568C82.5719 94.5199 82.4699 94.7728 82.287 94.9619C82.0979 95.1448 81.845 95.2467 81.5819 95.2462H25.3099C20.9917 95.2462 17.4912 91.7457 17.4912 87.4275C17.4912 83.1093 20.9917 79.6088 25.3099 79.6088H81.5819C81.8464 79.6117 82.0993 79.7181 82.2863 79.9052C82.4734 80.0922 82.5798 80.3451 82.5827 80.6096V84.9881Z" fill="#3A3A3A"/>
</svg>
