<svg width="46" height="48" viewBox="0 0 46 48" fill="none" xmlns="http://www.w3.org/2000/svg">
<path d="M1.3578 1.6875C1.3578 1.16972 1.77752 0.75 2.2953 0.75H26.4308L35.1436 9.46284V46.3125C35.1436 46.8303 34.7239 47.25 34.2061 47.25H2.2953C1.77752 47.25 1.3578 46.8303 1.3578 46.3125V1.6875Z" fill="#F6E080"/>
<path d="M34.2061 45.5625H2.2953C1.77752 45.5625 1.3578 45.1428 1.3578 44.625V46.3125C1.3578 46.8303 1.77752 47.25 2.2953 47.25H34.2061C34.7239 47.25 35.1436 46.8303 35.1436 46.3125V44.625C35.1436 45.1428 34.7239 45.5625 34.2061 45.5625Z" fill="#ECCD61"/>
<path d="M28.3058 9.46284H35.1436L26.4308 0.75V7.58784C26.4308 8.62341 27.2703 9.46284 28.3058 9.46284Z" fill="#ECB85E"/>
<path d="M28.3058 7.77534C27.2702 7.77534 26.4308 6.93591 26.4308 5.90034V7.58784C26.4308 8.62341 27.2702 9.46284 28.3058 9.46284H35.1436L33.4561 7.77534H28.3058Z" fill="#EAA949"/>
<path d="M42.6438 47.25H26.0853C24.9817 47.25 24.0869 46.3553 24.0869 45.2517V17.8483C24.0869 16.7447 24.9816 15.8499 26.0853 15.8499H42.6439C43.7475 15.8499 44.6423 16.7446 44.6423 17.8483V45.2516C44.6422 46.3553 43.7474 47.25 42.6438 47.25Z" fill="#E7ECF1"/>
<path d="M42.6438 45.5625H26.0853C24.9817 45.5625 24.0869 44.6678 24.0869 43.5642V45.2517C24.0869 46.3553 24.9816 47.25 26.0853 47.25H42.6439C43.7475 47.25 44.6423 46.3553 44.6423 45.2517V43.5642C44.6422 44.6678 43.7474 45.5625 42.6438 45.5625Z" fill="#C6D0DA"/>
<path d="M42.6438 15.85H26.0853C24.9817 15.85 24.0869 16.7447 24.0869 17.8484V27.2662H44.6422V17.8483C44.6422 16.7447 43.7474 15.85 42.6438 15.85ZM29.8567 32.2811H28.5178C28.288 32.2811 28.0675 32.1898 27.905 32.0273C27.7424 31.8647 27.6511 31.6443 27.6511 31.4144V30.0756C27.6511 29.8457 27.7424 29.6252 27.905 29.4627C28.0675 29.3002 28.288 29.2088 28.5178 29.2088H29.8567C30.0865 29.2088 30.307 29.3002 30.4695 29.4627C30.6321 29.6252 30.7234 29.8457 30.7234 30.0756V31.4144C30.7234 31.6443 30.6321 31.8647 30.4695 32.0273C30.307 32.1898 30.0865 32.2811 29.8567 32.2811ZM35.0952 32.2811H33.7564C33.5265 32.2811 33.3061 32.1898 33.1435 32.0273C32.981 31.8647 32.8897 31.6443 32.8897 31.4144V30.0756C32.8897 29.8457 32.981 29.6252 33.1435 29.4627C33.3061 29.3002 33.5265 29.2088 33.7564 29.2088H35.0952C35.3251 29.2088 35.5456 29.3002 35.7081 29.4627C35.8706 29.6252 35.962 29.8457 35.962 30.0756V31.4144C35.962 31.6443 35.8706 31.8647 35.7081 32.0273C35.5456 32.1898 35.3251 32.2811 35.0952 32.2811ZM40.3338 32.2811H38.995C38.7651 32.2811 38.5446 32.1898 38.3821 32.0273C38.2196 31.8647 38.1282 31.6443 38.1282 31.4144V30.0756C38.1282 29.8457 38.2196 29.6252 38.3821 29.4627C38.5446 29.3002 38.7651 29.2088 38.995 29.2088H40.3338C40.5637 29.2088 40.7841 29.3002 40.9467 29.4627C41.1092 29.6252 41.2005 29.8457 41.2005 30.0756V31.4144C41.2005 31.6443 41.1092 31.8647 40.9467 32.0273C40.7841 32.1898 40.5637 32.2811 40.3338 32.2811ZM29.8567 38.014H28.5178C28.288 38.014 28.0675 37.9227 27.905 37.7602C27.7424 37.5976 27.6511 37.3772 27.6511 37.1473V35.8085C27.6511 35.5786 27.7424 35.3581 27.905 35.1956C28.0675 35.0331 28.288 34.9418 28.5178 34.9418H29.8567C30.0865 34.9418 30.307 35.0331 30.4695 35.1956C30.6321 35.3581 30.7234 35.5786 30.7234 35.8085V37.1473C30.7234 37.3772 30.6321 37.5976 30.4695 37.7602C30.307 37.9227 30.0865 38.014 29.8567 38.014ZM35.0952 38.014H33.7564C33.5265 38.014 33.3061 37.9227 33.1435 37.7602C32.981 37.5976 32.8897 37.3772 32.8897 37.1473V35.8085C32.8897 35.5786 32.981 35.3581 33.1435 35.1956C33.3061 35.0331 33.5265 34.9418 33.7564 34.9418H35.0952C35.3251 34.9418 35.5456 35.0331 35.7081 35.1956C35.8706 35.3581 35.962 35.5786 35.962 35.8085V37.1473C35.962 37.3772 35.8706 37.5976 35.7081 37.7602C35.5456 37.9227 35.3251 38.014 35.0952 38.014Z" fill="#909BA5"/>
<path d="M29.8567 30.5936H28.5178C28.0989 30.5936 27.7493 30.2963 27.6687 29.9012C27.657 29.9586 27.6511 30.017 27.6511 30.0756V31.4144C27.6511 31.6443 27.7424 31.8647 27.905 32.0273C28.0675 32.1898 28.288 32.2811 28.5178 32.2811H29.8567C30.0866 32.2811 30.307 32.1898 30.4695 32.0273C30.6321 31.8647 30.7234 31.6443 30.7234 31.4144V30.0756C30.7234 30.0158 30.7173 29.9575 30.7059 29.9012C30.6252 30.2963 30.2757 30.5936 29.8567 30.5936ZM35.0952 30.5936H33.7564C33.3374 30.5936 32.9878 30.2963 32.9072 29.9012C32.8955 29.9586 32.8896 30.017 32.8897 30.0756V31.4144C32.8897 31.6443 32.981 31.8647 33.1435 32.0273C33.3061 32.1898 33.5265 32.2811 33.7564 32.2811H35.0952C35.3251 32.2811 35.5456 32.1898 35.7081 32.0273C35.8707 31.8647 35.962 31.6443 35.962 31.4144V30.0756C35.962 30.0158 35.9559 29.9575 35.9444 29.9012C35.8637 30.2963 35.5142 30.5936 35.0952 30.5936ZM40.3338 30.5936H38.995C38.576 30.5936 38.2264 30.2963 38.1458 29.9012C38.1341 29.9586 38.1282 30.017 38.1282 30.0756V31.4144C38.1282 31.6443 38.2196 31.8647 38.3821 32.0273C38.5446 32.1898 38.7651 32.2811 38.995 32.2811H40.3338C40.5637 32.2811 40.7841 32.1898 40.9467 32.0273C41.1092 31.8647 41.2005 31.6443 41.2005 31.4144V30.0756C41.2005 30.0158 41.1944 29.9575 41.183 29.9012C41.1023 30.2963 40.7528 30.5936 40.3338 30.5936ZM29.8567 36.3265H28.5178C28.0989 36.3265 27.7493 36.0292 27.6687 35.6341C27.657 35.6915 27.6511 35.7499 27.6511 35.8085V37.1473C27.6511 37.3772 27.7424 37.5976 27.905 37.7602C28.0675 37.9227 28.288 38.014 28.5178 38.014H29.8567C30.0866 38.014 30.307 37.9227 30.4695 37.7602C30.6321 37.5976 30.7234 37.3772 30.7234 37.1473V35.8085C30.7234 35.7488 30.7173 35.6904 30.7059 35.6341C30.6252 36.0292 30.2757 36.3265 29.8567 36.3265ZM35.0952 36.3265H33.7564C33.3374 36.3265 32.9878 36.0292 32.9072 35.6341C32.8955 35.6915 32.8896 35.7499 32.8897 35.8085V37.1473C32.8897 37.3772 32.981 37.5976 33.1435 37.7602C33.3061 37.9227 33.5265 38.014 33.7564 38.014H35.0952C35.3251 38.014 35.5456 37.9227 35.7081 37.7602C35.8707 37.5976 35.962 37.3772 35.962 37.1473V35.8085C35.962 35.7488 35.9559 35.6904 35.9444 35.6341C35.8637 36.0292 35.5142 36.3265 35.0952 36.3265Z" fill="#808B95"/>
<path d="M29.8567 43.7469H28.5178C28.288 43.7469 28.0675 43.6556 27.905 43.4931C27.7424 43.3305 27.6511 43.1101 27.6511 42.8802V41.5414C27.6511 41.3115 27.7424 41.0911 27.905 40.9285C28.0675 40.766 28.288 40.6747 28.5178 40.6747H29.8567C30.0866 40.6747 30.307 40.766 30.4695 40.9285C30.6321 41.0911 30.7234 41.3115 30.7234 41.5414V42.8802C30.7234 43.1101 30.6321 43.3305 30.4695 43.4931C30.307 43.6556 30.0866 43.7469 29.8567 43.7469ZM35.0952 43.7469H33.7564C33.5265 43.7469 33.3061 43.6556 33.1435 43.4931C32.981 43.3305 32.8897 43.1101 32.8897 42.8802V41.5414C32.8897 41.3115 32.981 41.0911 33.1435 40.9285C33.3061 40.766 33.5265 40.6747 33.7564 40.6747H35.0952C35.3251 40.6747 35.5456 40.766 35.7081 40.9285C35.8707 41.0911 35.962 41.3115 35.962 41.5414V42.8802C35.962 43.1101 35.8707 43.3305 35.7081 43.4931C35.5456 43.6556 35.3251 43.7469 35.0952 43.7469Z" fill="#909BA5"/>
<path d="M29.8567 42.0594H28.5178C28.0989 42.0594 27.7493 41.7622 27.6687 41.367C27.657 41.4244 27.6511 41.4828 27.6511 41.5414V42.8802C27.6511 43.1101 27.7424 43.3305 27.905 43.4931C28.0675 43.6556 28.288 43.7469 28.5178 43.7469H29.8567C30.0866 43.7469 30.307 43.6556 30.4695 43.4931C30.6321 43.3305 30.7234 43.1101 30.7234 42.8802V41.5414C30.7234 41.4817 30.7173 41.4233 30.7059 41.367C30.6252 41.7622 30.2757 42.0594 29.8567 42.0594ZM35.0952 42.0594H33.7564C33.3374 42.0594 32.9878 41.7622 32.9072 41.367C32.8955 41.4244 32.8896 41.4828 32.8897 41.5414V42.8802C32.8897 43.1101 32.981 43.3305 33.1435 43.4931C33.3061 43.6556 33.5265 43.7469 33.7564 43.7469H35.0952C35.3251 43.7469 35.5456 43.6556 35.7081 43.4931C35.8707 43.3305 35.962 43.1101 35.962 42.8802V41.5414C35.962 41.4817 35.9559 41.4233 35.9444 41.367C35.8637 41.7622 35.5142 42.0594 35.0952 42.0594Z" fill="#808B95"/>
<path d="M40.263 24.9368H28.5886C28.0708 24.9368 27.6511 24.517 27.6511 23.9993V20.0292C27.6511 19.5114 28.0708 19.0917 28.5886 19.0917H40.2631C40.7809 19.0917 41.2006 19.5114 41.2006 20.0292V23.9993C41.2005 24.517 40.7808 24.9368 40.263 24.9368Z" fill="#B3E59F"/>
<path d="M40.263 23.2493H28.5886C28.0708 23.2493 27.6511 22.8295 27.6511 22.3118V23.9993C27.6511 24.517 28.0708 24.9368 28.5886 24.9368H40.2631C40.7809 24.9368 41.2006 24.517 41.2006 23.9993V22.3118C41.2005 22.8295 40.7808 23.2493 40.263 23.2493Z" fill="#95D6A4"/>
<path d="M40.2011 43.7469H39.1277C38.5757 43.7469 38.1283 43.2995 38.1283 42.7475V35.9412C38.1283 35.3892 38.5757 34.9417 39.1277 34.9417H40.2011C40.7531 34.9417 41.2005 35.3892 41.2005 35.9412V42.7475C41.2005 43.2995 40.7531 43.7469 40.2011 43.7469Z" fill="#DC4955"/>
<path d="M40.2011 42.0594H39.1277C38.5757 42.0594 38.1283 41.612 38.1283 41.06V42.7475C38.1283 43.2995 38.5757 43.7469 39.1277 43.7469H40.2011C40.7531 43.7469 41.2005 43.2995 41.2005 42.7475V41.06C41.2005 41.612 40.7531 42.0594 40.2011 42.0594Z" fill="#D82F3C"/>
<path d="M44.6846 25.5499C44.4977 25.5499 44.3185 25.6241 44.1864 25.7563C44.0543 25.8884 43.98 26.0676 43.98 26.2544V45.2932C43.98 46.0088 43.3978 46.5909 42.6822 46.5909H26.0913C25.3757 46.5909 24.7936 46.0087 24.7936 45.2932V43.4208C24.7906 43.2359 24.715 43.0596 24.5833 42.93C24.4515 42.8003 24.274 42.7276 24.0891 42.7276C23.9042 42.7276 23.7267 42.8003 23.5949 42.93C23.4631 43.0596 23.3876 43.2359 23.3846 43.4208V45.2932C23.3846 45.7632 23.5051 46.2054 23.7167 46.5909H2.25481C2.19255 46.5909 2.13286 46.5661 2.08883 46.5221C2.0448 46.478 2.02004 46.4184 2.01996 46.3561V29.3594C2.01695 29.1745 1.94139 28.9983 1.8096 28.8686C1.6778 28.7389 1.50032 28.6663 1.31543 28.6663C1.13054 28.6663 0.953065 28.7389 0.821267 28.8686C0.68947 28.9983 0.613917 29.1745 0.610901 29.3594V46.3562C0.610901 47.2626 1.34834 48 2.25471 48H42.6821C44.1746 48 45.3889 46.7857 45.3889 45.2932V26.2544C45.3889 26.1619 45.3707 26.0703 45.3353 25.9848C45.2999 25.8993 45.2481 25.8217 45.1827 25.7562C45.1173 25.6908 45.0396 25.6389 44.9541 25.6035C44.8687 25.5681 44.7771 25.5499 44.6846 25.5499Z" fill="black"/>
<path d="M42.6824 15.1296H35.8721V9.43444C35.8716 9.24764 35.7974 9.06859 35.6657 8.93616L26.9359 0.206437C26.8035 0.0747068 26.6245 0.000526934 26.4377 0L2.25494 0C1.34857 0 0.61113 0.737437 0.61113 1.64381V26.5414C0.614146 26.7262 0.689699 26.9025 0.821496 27.0322C0.953293 27.1618 1.13077 27.2345 1.31566 27.2345C1.50055 27.2345 1.67803 27.1618 1.80983 27.0322C1.94162 26.9025 2.01718 26.7262 2.02019 26.5414V1.64381C2.02027 1.58155 2.04503 1.52186 2.08906 1.47784C2.13308 1.43381 2.19277 1.40904 2.25504 1.40897H25.7332V7.55569C25.7332 8.98003 26.8921 10.1389 28.3164 10.1389H34.4631V15.1295H26.0915C24.599 15.1295 23.3848 16.3437 23.3848 17.8362V17.9465H12.221C12.0342 17.9465 11.855 18.0207 11.7229 18.1528C11.5907 18.2849 11.5165 18.4641 11.5165 18.651C11.5165 18.8379 11.5907 19.0171 11.7229 19.1492C11.855 19.2813 12.0342 19.3555 12.221 19.3555H23.3848V24.1409H12.221C12.0362 24.1439 11.8599 24.2195 11.7302 24.3513C11.6006 24.4831 11.5279 24.6606 11.5279 24.8454C11.5279 25.0303 11.6006 25.2078 11.7302 25.3396C11.8599 25.4714 12.0362 25.547 12.221 25.55H23.3848V30.3353H12.221C12.0362 30.3384 11.8599 30.4139 11.7302 30.5457C11.6006 30.6775 11.5279 30.855 11.5279 31.0399C11.5279 31.2248 11.6006 31.4022 11.7302 31.534C11.8599 31.6658 12.0362 31.7414 12.221 31.7444H23.3848V36.5299H12.221C12.0342 36.5299 11.855 36.6041 11.7229 36.7362C11.5907 36.8684 11.5165 37.0476 11.5165 37.2344C11.5165 37.4213 11.5907 37.6005 11.7229 37.7326C11.855 37.8647 12.0342 37.9389 12.221 37.9389H23.3848V40.6029C23.3848 40.6955 23.403 40.7871 23.4384 40.8726C23.4738 40.958 23.5257 41.0357 23.5911 41.1011C23.6566 41.1665 23.7342 41.2184 23.8197 41.2538C23.9052 41.2892 23.9968 41.3075 24.0893 41.3075C24.1818 41.3075 24.2735 41.2892 24.3589 41.2538C24.4444 41.2184 24.5221 41.1665 24.5875 41.1011C24.6529 41.0357 24.7048 40.958 24.7402 40.8726C24.7756 40.7871 24.7939 40.6955 24.7939 40.6029V17.8362C24.7939 17.1206 25.376 16.5385 26.0915 16.5385H42.6825C43.3981 16.5385 43.9803 17.1207 43.9803 17.8362V23.4364C43.9833 23.6212 44.0588 23.7975 44.1906 23.9272C44.3224 24.0568 44.4999 24.1295 44.6848 24.1295C44.8697 24.1295 45.0472 24.0568 45.179 23.9272C45.3108 23.7975 45.3863 23.6212 45.3893 23.4364V17.8362C45.3891 16.3438 44.1749 15.1296 42.6824 15.1296ZM27.1422 7.55569V2.40534L33.4668 8.72991H28.3163C27.6689 8.72991 27.1422 8.20322 27.1422 7.55569Z" fill="black"/>
<path d="M41.9407 20.0215C41.9407 19.1152 41.2032 18.3777 40.2969 18.3777H28.5995C27.6931 18.3777 26.9557 19.1152 26.9557 20.0215V23.9993C26.9557 24.9057 27.6931 25.6432 28.5995 25.6432H40.2969C41.2032 25.6432 41.9407 24.9057 41.9407 23.9993V20.0215ZM40.5317 23.9992C40.5316 24.0615 40.5069 24.1212 40.4628 24.1652C40.4188 24.2092 40.3591 24.234 40.2969 24.2341H28.5995C28.5372 24.234 28.4775 24.2092 28.4335 24.1652C28.3895 24.1212 28.3647 24.0615 28.3646 23.9992V20.0214C28.3647 19.9592 28.3895 19.8995 28.4335 19.8555C28.4775 19.8114 28.5372 19.7867 28.5995 19.7866H40.2969C40.3591 19.7867 40.4188 19.8114 40.4628 19.8555C40.5069 19.8995 40.5316 19.9592 40.5317 20.0214V23.9992ZM26.9557 31.4288C26.9557 32.2961 27.6613 33.0018 28.5286 33.0018H29.8701C30.7374 33.0018 31.443 32.2961 31.443 31.4288V30.0874C31.443 29.22 30.7374 28.5144 29.8701 28.5144H28.5286C27.6613 28.5144 26.9557 29.2201 26.9557 30.0874V31.4288ZM28.3646 30.0875C28.3646 29.9971 28.4382 29.9235 28.5286 29.9235H29.8701C29.9605 29.9235 30.034 29.9971 30.034 30.0875V31.4289C30.034 31.5193 29.9605 31.5929 29.8701 31.5929H28.5286C28.4851 31.5929 28.4435 31.5756 28.4127 31.5448C28.382 31.5141 28.3647 31.4724 28.3646 31.4289V30.0875ZM36.6919 30.0875C36.6919 29.2201 35.9862 28.5145 35.119 28.5145H33.7775C32.9102 28.5145 32.2045 29.2202 32.2045 30.0875V31.4289C32.2045 32.2962 32.9102 33.0019 33.7775 33.0019H35.119C35.9862 33.0019 36.6919 32.2962 36.6919 31.4289V30.0875ZM35.2828 31.4288C35.2828 31.5192 35.2092 31.5928 35.1189 31.5928H33.7775C33.734 31.5928 33.6923 31.5755 33.6616 31.5447C33.6309 31.514 33.6136 31.4723 33.6135 31.4288V30.0874C33.6135 29.997 33.6871 29.9234 33.7775 29.9234H35.119C35.2093 29.9234 35.2829 29.997 35.2829 30.0874V31.4288H35.2828ZM41.9407 30.0875C41.9407 29.2201 41.235 28.5145 40.3677 28.5145H39.0263C38.159 28.5145 37.4533 29.2202 37.4533 30.0875V31.4289C37.4533 32.2962 38.159 33.0019 39.0263 33.0019H40.3677C41.235 33.0019 41.9407 32.2962 41.9407 31.4289V30.0875ZM40.5317 31.4288C40.5317 31.5192 40.4581 31.5928 40.3677 31.5928H39.0263C38.9828 31.5928 38.9411 31.5755 38.9104 31.5447C38.8796 31.514 38.8623 31.4723 38.8623 31.4288V30.0874C38.8623 29.997 38.9359 29.9234 39.0263 29.9234H40.3677C40.4581 29.9234 40.5317 29.997 40.5317 30.0874V31.4288ZM26.9557 37.173C26.9557 38.0403 27.6613 38.7459 28.5286 38.7459H29.8701C30.7374 38.7459 31.443 38.0403 31.443 37.173V35.8315C31.443 34.9642 30.7374 34.2586 29.8701 34.2586H28.5286C27.6613 34.2586 26.9557 34.9642 26.9557 35.8315V37.173ZM28.3646 35.8315C28.3646 35.7412 28.4382 35.6676 28.5286 35.6676H29.8701C29.9136 35.6676 29.9552 35.6849 29.986 35.7156C30.0167 35.7464 30.034 35.788 30.034 35.8315V37.173C30.034 37.2634 29.9605 37.337 29.8701 37.337H28.5286C28.4851 37.3369 28.4435 37.3196 28.4127 37.2889C28.382 37.2581 28.3647 37.2165 28.3646 37.173V35.8315ZM36.6919 35.8315C36.6919 34.9642 35.9862 34.2586 35.119 34.2586H33.7775C32.9102 34.2586 32.2045 34.9642 32.2045 35.8315V37.173C32.2045 38.0403 32.9102 38.7459 33.7775 38.7459H35.119C35.9862 38.7459 36.6919 38.0403 36.6919 37.173V35.8315ZM35.2828 37.173C35.2828 37.2634 35.2092 37.337 35.1189 37.337H33.7775C33.734 37.3369 33.6923 37.3196 33.6616 37.2889C33.6309 37.2581 33.6136 37.2165 33.6135 37.173V35.8315C33.6135 35.7412 33.6871 35.6676 33.7775 35.6676H35.119C35.1624 35.6676 35.2041 35.6849 35.2349 35.7156C35.2656 35.7464 35.2829 35.788 35.2829 35.8315V37.173H35.2828ZM26.9557 42.9171C26.9557 43.7843 27.6613 44.49 28.5286 44.49H29.8701C30.7374 44.49 31.443 43.7843 31.443 42.9171V41.5756C31.443 40.7083 30.7374 40.0027 29.8701 40.0027H28.5286C27.6613 40.0027 26.9557 40.7082 26.9557 41.5756V42.9171ZM28.3646 41.5757C28.3646 41.4853 28.4382 41.4117 28.5286 41.4117H29.8701C29.9136 41.4117 29.9552 41.429 29.986 41.4598C30.0167 41.4905 30.034 41.5322 30.034 41.5757V42.9172C30.034 43.0075 29.9605 43.0811 29.8701 43.0811H28.5286C28.4851 43.0811 28.4435 43.0638 28.4127 43.033C28.382 43.0023 28.3647 42.9606 28.3646 42.9172V41.5757ZM35.1189 40.0027H33.7775C32.9102 40.0027 32.2045 40.7083 32.2045 41.5757V42.9172C32.2045 43.7844 32.9102 44.4901 33.7775 44.4901H35.119C35.9862 44.4901 36.6919 43.7844 36.6919 42.9172V41.5757C36.6919 40.7083 35.9862 40.0027 35.1189 40.0027ZM35.2828 42.9171C35.2828 43.0074 35.2092 43.081 35.1189 43.081H33.7775C33.734 43.081 33.6923 43.0637 33.6616 43.0329C33.6309 43.0022 33.6136 42.9605 33.6135 42.9171V41.5756C33.6135 41.4852 33.6871 41.4116 33.7775 41.4116H35.119C35.1624 41.4116 35.2041 41.4289 35.2349 41.4597C35.2656 41.4904 35.2829 41.5321 35.2829 41.5756V42.9171H35.2828ZM40.2347 34.2586H39.1593C38.2186 34.2586 37.4533 35.0239 37.4533 35.9646V42.7841C37.4533 43.7248 38.2186 44.4901 39.1593 44.4901H40.2347C41.1754 44.4901 41.9407 43.7248 41.9407 42.7841V35.9646C41.9407 35.0239 41.1754 34.2586 40.2347 34.2586ZM40.5317 42.7841C40.5316 42.8629 40.5003 42.9384 40.4446 42.994C40.389 43.0497 40.3134 43.081 40.2347 43.0811H39.1593C39.0806 43.081 39.0051 43.0497 38.9494 42.994C38.8937 42.9384 38.8624 42.8629 38.8623 42.7841V35.9646C38.8624 35.8858 38.8937 35.8103 38.9494 35.7547C39.0051 35.699 39.0806 35.6677 39.1593 35.6677H40.2347C40.3134 35.6677 40.3889 35.699 40.4446 35.7547C40.5003 35.8104 40.5316 35.8858 40.5317 35.9646V42.7841ZM6.23824 13.1611H9.05046C9.23731 13.1611 9.41651 13.0869 9.54864 12.9547C9.68076 12.8226 9.75499 12.6434 9.75499 12.4566C9.75499 12.2697 9.68076 12.0905 9.54864 11.9584C9.41651 11.8263 9.23731 11.752 9.05046 11.752H6.23824C6.05337 11.755 5.8771 11.8306 5.74744 11.9624C5.61777 12.0942 5.54511 12.2717 5.54511 12.4566C5.54511 12.6414 5.61777 12.8189 5.74744 12.9507C5.8771 13.0825 6.05337 13.1581 6.23824 13.1611ZM12.2208 13.1611H25.7799C25.9667 13.1611 26.1459 13.0869 26.278 12.9547C26.4102 12.8226 26.4844 12.6434 26.4844 12.4566C26.4844 12.2697 26.4102 12.0905 26.278 11.9584C26.1459 11.8263 25.9667 11.752 25.7799 11.752H12.2208C12.0359 11.755 11.8597 11.8306 11.73 11.9624C11.6003 12.0942 11.5277 12.2717 11.5277 12.4566C11.5277 12.6414 11.6003 12.8189 11.73 12.9507C11.8597 13.0825 12.0359 13.1581 12.2208 13.1611ZM6.23824 19.3554H9.05046C9.23532 19.3524 9.41159 19.2769 9.54125 19.1451C9.67092 19.0133 9.74359 18.8358 9.74359 18.6509C9.74359 18.466 9.67092 18.2885 9.54125 18.1567C9.41159 18.0249 9.23532 17.9494 9.05046 17.9464H6.23824C6.05138 17.9464 5.87218 18.0206 5.74006 18.1527C5.60793 18.2848 5.53371 18.464 5.53371 18.6509C5.53371 18.8378 5.60793 19.017 5.74006 19.1491C5.87218 19.2812 6.05138 19.3554 6.23824 19.3554ZM6.23824 25.5499H9.05046C9.23532 25.5469 9.41159 25.4713 9.54125 25.3395C9.67092 25.2077 9.74359 25.0302 9.74359 24.8453C9.74359 24.6605 9.67092 24.483 9.54125 24.3512C9.41159 24.2194 9.23532 24.1438 9.05046 24.1408H6.23824C6.05337 24.1438 5.8771 24.2194 5.74744 24.3512C5.61777 24.483 5.54511 24.6605 5.54511 24.8453C5.54511 25.0302 5.61777 25.2077 5.74744 25.3395C5.8771 25.4713 6.05337 25.5469 6.23824 25.5499ZM6.23824 31.7443H9.05046C9.23532 31.7413 9.41159 31.6657 9.54125 31.5339C9.67092 31.4021 9.74359 31.2247 9.74359 31.0398C9.74359 30.8549 9.67092 30.6774 9.54125 30.5456C9.41159 30.4138 9.23532 30.3383 9.05046 30.3352H6.23824C6.05337 30.3383 5.8771 30.4138 5.74744 30.5456C5.61777 30.6774 5.54511 30.8549 5.54511 31.0398C5.54511 31.2247 5.61777 31.4021 5.74744 31.5339C5.8771 31.6657 6.05337 31.7413 6.23824 31.7443ZM6.23824 37.9387H9.05046C9.14298 37.9387 9.23459 37.9205 9.32007 37.8851C9.40555 37.8497 9.48321 37.7978 9.54864 37.7324C9.61406 37.667 9.66595 37.5893 9.70136 37.5038C9.73676 37.4183 9.75499 37.3267 9.75499 37.2342C9.75499 37.1417 9.73676 37.0501 9.70136 36.9646C9.66595 36.8791 9.61406 36.8015 9.54864 36.736C9.48321 36.6706 9.40555 36.6187 9.32007 36.5833C9.23459 36.5479 9.14298 36.5297 9.05046 36.5297H6.23824C6.14572 36.5297 6.0541 36.5479 5.96863 36.5833C5.88315 36.6187 5.80548 36.6706 5.74006 36.736C5.67464 36.8015 5.62274 36.8791 5.58734 36.9646C5.55193 37.0501 5.53371 37.1417 5.53371 37.2342C5.53371 37.3267 5.55193 37.4183 5.58734 37.5038C5.62274 37.5893 5.67464 37.667 5.74006 37.7324C5.80548 37.7978 5.88315 37.8497 5.96863 37.8851C6.0541 37.9205 6.14572 37.9387 6.23824 37.9387Z" fill="black"/>
</svg>
